<svg class="highcharts-root" xmlns="http://www.w3.org/2000/svg" viewBox="0 0 485 415" font-family="Arial" font-size="12">
    <defs>
        <clipPath id="a">
            <path fill="none" d="M0 0h419v240H0z"/>
        </clipPath>
    </defs>
    <rect fill="#fbfbfb" class="highcharts-background" width="485" height="415" rx="0" ry="0"/>
    <path fill="none" class="highcharts-plot-background" d="M56 108h419v240H56z"/>
    <g class="highcharts-grid highcharts-xaxis-grid">
        <path fill="none" class="highcharts-grid-line" d="M59.5 108v240m91-240v240m92-240v240m91-240v240m91-240v240"/>
    </g>
    <g class="highcharts-grid highcharts-yaxis-grid">
        <path fill="none" stroke="#e6e6e6" class="highcharts-grid-line" d="M56 348.5h419m-419-60h419m-419-60h419m-419-60h419m-419-61h419"/>
    </g>
    <path fill="none" class="highcharts-plot-border" d="M56 108h419v240H56z"/>
    <g class="highcharts-axis highcharts-xaxis">
        <path fill="none" class="highcharts-axis-line" stroke="#ccd6eb" d="M56 348.5h419"/>
    </g>
    <g class="highcharts-axis highcharts-yaxis">
        <path fill="none" class="highcharts-axis-line" d="M56 108v240"/>
    </g>
    <g class="highcharts-series-group">
        <g class="highcharts-series highcharts-series-0 highcharts-line-series highcharts-color-undefined" transform="translate(56 108)" clip-path="url(#a)">
            <path fill="none" d="M4.108 226.68l45.643 3.6 45.642-1.08 45.643 2.88 45.643-62.52 45.642 8.16 45.643 54.72 45.643-2.88 45.642 1.32 45.643-3" class="highcharts-graph" stroke="#b00000" stroke-width="2" stroke-linejoin="round" stroke-linecap="round"/>
            <path fill="none" d="M-5.892 226.68h10l45.643 3.6 45.642-1.08 45.643 2.88 45.643-62.52 45.642 8.16 45.643 54.72 45.643-2.88 45.642 1.32 45.643-3h10" stroke-linejoin="round" stroke="rgba(192,192,192,0.0001)" stroke-width="22" class="highcharts-tracker"/>
        </g>
        <g class="highcharts-series highcharts-series-1 highcharts-line-series highcharts-color-undefined" transform="translate(56 108)" clip-path="url(#a)">
            <path fill="none" d="M4.108 134.04L49.75 20.88l45.642 26.4 45.643 69.84 45.643 36.72 45.642 18.24 45.643-11.28 45.643-26.16 45.642 13.92 45.643-25.92" class="highcharts-graph" stroke="#71a3b5" stroke-width="2" stroke-linejoin="round" stroke-linecap="round"/>
            <path fill="none" d="M-5.892 134.04h10L49.75 20.88l45.642 26.4 45.643 69.84 45.643 36.72 45.642 18.24 45.643-11.28 45.643-26.16 45.642 13.92 45.643-25.92h10" stroke-linejoin="round" stroke="rgba(192,192,192,0.0001)" stroke-width="22" class="highcharts-tracker"/>
        </g>
        <g class="highcharts-series highcharts-series-2 highcharts-line-series highcharts-color-undefined" transform="translate(56 108)" clip-path="url(#a)">
            <path fill="none" d="M4.108 191.64l45.643-44.4 45.642 5.04 45.643 36.6 45.643 13.44 45.642 6 45.643-4.8 45.643-10.56 45.642 6.72 45.643-17.28" class="highcharts-graph" stroke="#000" stroke-width="2" stroke-linejoin="round" stroke-linecap="round"/>
            <path fill="none" d="M-5.892 191.64h10l45.643-44.4 45.642 5.04 45.643 36.6 45.643 13.44 45.642 6 45.643-4.8 45.643-10.56 45.642 6.72 45.643-17.28h10" stroke-linejoin="round" stroke="rgba(192,192,192,0.0001)" stroke-width="22" class="highcharts-tracker"/>
        </g>
        <g class="highcharts-markers highcharts-series-2 highcharts-line-series highcharts-color-undefined highcharts-tracker">
            <path d="M470 286c5.328 0 5.328 8 0 8s-5.328-8 0-8zm-45 18c5.328 0 5.328 8 0 8s-5.328-8 0-8zm-46-7c5.328 0 5.328 8 0 8s-5.328-8 0-8zm-46 11c5.328 0 5.328 8 0 8s-5.328-8 0-8zm-45 4c5.328 0 5.328 8 0 8s-5.328-8 0-8zm-46-6c5.328 0 5.328 8 0 8s-5.328-8 0-8zm-45-13c5.328 0 5.328 8 0 8s-5.328-8 0-8zm-46-37c5.328 0 5.328 8 0 8s-5.328-8 0-8zm-46-5c5.328 0 5.328 8 0 8s-5.328-8 0-8zm-45 45c5.328 0 5.328 8 0 8s-5.328-8 0-8z" class="highcharts-point"/>
        </g>
    </g>
    <text x="10" class="highcharts-title" style="width:421px" y="21" color="#000" font-size="14" font-weight="700">
        <tspan>I.01.5.0002 Ordentlich Eingebürgerte nach</tspan><tspan dy="17" x="10">bisheriger Heimat und Geburtsland</tspan><title>I.01.5.0002 Ordentlich Eingebürgerte nach bisheriger Heimat und Geburtsland</title>
    </text>
    <g class="highcharts-legend" transform="translate(45 65)">
        <rect fill="none" class="highcharts-legend-box" rx="0" ry="0" width="367" height="31"/>
        <g class="highcharts-legend-item highcharts-line-series highcharts-color-undefined highcharts-series-0">
            <path fill="none" d="M8 14h16" class="highcharts-graph" stroke="#b00000" stroke-width="2"/>
            <text x="21" y="15" color="#333" font-weight="400" cursor="pointer" fill="#333" transform="translate(8 3)">
                Schweiz
            </text>
        </g>
        <g class="highcharts-legend-item highcharts-line-series highcharts-color-undefined highcharts-series-1">
            <path fill="none" d="M99.156 14h16" class="highcharts-graph" stroke="#71a3b5" stroke-width="2"/>
            <text x="21" y="15" color="#333" font-weight="400" cursor="pointer" fill="#333" transform="translate(99.156 3)">
                Ausland
            </text>
        </g>
        <g class="highcharts-legend-item highcharts-line-series highcharts-color-undefined highcharts-series-2">
            <path fill="none" d="M189.047 14h16" class="highcharts-graph" stroke="#000" stroke-width="2"/>
            <path d="M197.047 10c5.328 0 5.328 8 0 8s-5.328-8 0-8z" class="highcharts-point"/>
            <text x="21" y="15" color="#333" font-weight="400" cursor="pointer" fill="#333" transform="translate(189.047 3)">
                Ausland_GeburtslandCH
            </text>
        </g>
    </g>
    <g class="highcharts-axis-labels highcharts-xaxis-labels" text-anchor="middle" color="#000" cursor="default" font-size="11">
        <text x="60.108" style="width:95px" y="367">
            <tspan>2006</tspan>
        </text>
        <text x="151.393" style="width:95px" y="367">
            <tspan>2008</tspan>
        </text>
        <text x="242.679" style="width:95px" y="367">
            <tspan>2010</tspan>
        </text>
        <text x="333.964" style="width:95px" y="367">
            <tspan>2012</tspan>
        </text>
        <text x="425.249" style="width:95px" y="367">
            <tspan>2014</tspan>
        </text>
    </g>
    <g class="highcharts-axis-labels highcharts-yaxis-labels" text-anchor="end" color="#000" cursor="default" font-size="11">
        <text x="41" style="width:150px" y="352">
            <tspan>0</tspan>
        </text>
        <text x="41" style="width:150px" y="292">
            <tspan>500</tspan>
        </text>
        <text x="41" style="width:150px" y="232">
            <tspan>1 000</tspan>
        </text>
        <text x="41" style="width:150px" y="172">
            <tspan>1 500</tspan>
        </text>
        <text x="41" style="width:150px" y="112">
            <tspan>2 000</tspan>
        </text>
    </g>
    <text x="10" class="highcharts-credits" y="400" cursor="default" color="#000" font-size="10">
        <tspan>Quelle: Statistisches Amt Basel-Stadt, kantonale Bevölkerungsstatistik</tspan>
    </text>
</svg>
