<svg class="highcharts-root" xmlns="http://www.w3.org/2000/svg" viewBox="0 0 485 415" font-family="Arial" font-size="12">
    <defs>
        <clipPath id="a">
            <path fill="none" d="M0 0h250v300H0z"/>
        </clipPath>
    </defs>
    <rect fill="#fbfbfb" class="highcharts-background" width="485" height="415" rx="0" ry="0"/>
    <path fill="none" class="highcharts-plot-background" d="M175 113h300v250H175z"/>
    <g class="highcharts-grid highcharts-xaxis-grid">
        <path fill="none" class="highcharts-grid-line" d="M175 136.5h300m-300 22h300m-300 23h300m-300 23h300m-300 23h300m-300 22h300m-300 23h300m-300 23h300m-300 23h300m-300 22h300m-300 23h300m-300-250h300"/>
    </g>
    <g class="highcharts-grid highcharts-yaxis-grid">
        <path fill="none" stroke="#e6e6e6" class="highcharts-grid-line" d="M174.5 113v250m75-250v250m75-250v250m75-250v250m76-250v250"/>
    </g>
    <path fill="none" class="highcharts-plot-border" d="M175 113h300v250H175z"/>
    <g class="highcharts-axis highcharts-xaxis">
        <path fill="none" class="highcharts-tick" stroke="#FFF" d="M175 136.5h-10m10 22h-10m10 23h-10m10 23h-10m10 23h-10m10 22h-10m10 23h-10m10 23h-10m10 23h-10m10 22h-10m10 23h-10m10-251h-10"/>
        <path fill="none" class="highcharts-axis-line" stroke="#ccd6eb" d="M174.5 113v250"/>
    </g>
    <g class="highcharts-axis highcharts-yaxis">
        <path fill="none" class="highcharts-axis-line" d="M175 363h300"/>
    </g>
    <g class="highcharts-series-group">
        <g class="highcharts-series highcharts-series-0 highcharts-column-series highcharts-color-undefined highcharts-tracker" transform="matrix(0 -1 -1 0 475 363)" clip-path="url(#a)">
            <path fill="#8a8a8a" class="highcharts-point" stroke="#fff" d="M238.5 216.5h6v9h-6zm-22 5h6v4h-6zm-23-20h6v24h-6z"/>
            <path fill="#8a8a8a" class="highcharts-point highcharts-negative" stroke="#fff" d="M170.5 225.5h6v17h-6z"/>
            <path fill="#8a8a8a" class="highcharts-point" stroke="#fff" d="M147.5 150.5h6v75h-6z"/>
            <path fill="#8a8a8a" class="highcharts-point highcharts-negative" stroke="#fff" d="M125.5 225.5h6v24h-6z"/>
            <path fill="#8a8a8a" class="highcharts-point" stroke="#fff" d="M102.5 211.5h6v14h-6zm-23-27h6v41h-6zm-22-9h6v50h-6zm-23 47h6v3h-6zm-23-23h6v26h-6z"/>
        </g>
        <g class="highcharts-series highcharts-series-1 highcharts-column-series highcharts-color-undefined highcharts-tracker" transform="matrix(0 -1 -1 0 475 363)" clip-path="url(#a)">
            <path fill="#ff8028" class="highcharts-point highcharts-negative" stroke="#fff" d="M231.5 225.5h6v3h-6z"/>
            <path fill="#ff8028" class="highcharts-point" stroke="#fff" d="M209.5 206.5h6v19h-6zm-23-24h6v43h-6zm-23 36h6v7h-6zm-22-59h6v66h-6z"/>
            <path fill="#ff8028" class="highcharts-point highcharts-negative" stroke="#fff" d="M118.5 225.5h6v41h-6z"/>
            <path fill="#ff8028" class="highcharts-point" stroke="#fff" d="M95.5 34.5h6v191h-6zm-23 141h6v50h-6zm-22-14h6v64h-6zm-23 57h6v7h-6zm-23-56h6v63h-6z"/>
        </g>
    </g>
    <text x="10" class="highcharts-title" style="width:421px" y="21" color="#000" font-size="14" font-weight="700">
        <tspan>I.04.0.0003 Wachstumsrate der realen</tspan><tspan dy="17" x="10">Wertschöpfung ausgewählter Branchen 2015</tspan><title>I.04.0.0003 Wachstumsrate der realen Wertschöpfung ausgewählter Branchen 2015</title>
    </text>
    <text x="10" class="highcharts-subtitle" style="width:421px" y="59" color="#000" font-weight="400">
        <tspan>BS im Vergleich mit ZH, GE, CH</tspan>
    </text>
    <g class="highcharts-legend" transform="translate(165 60)">
        <rect fill="none" class="highcharts-legend-box" rx="0" ry="0" width="296" height="41"/>
        <g class="highcharts-legend-item highcharts-column-series highcharts-color-undefined highcharts-series-0">
            <text x="21" y="15" color="#333" font-weight="400" cursor="pointer" fill="#333" transform="translate(8 3)">
                Schweiz
            </text>
            <path fill="#8a8a8a" class="highcharts-point" d="M10 7h12v12H10z"/>
        </g>
        <g class="highcharts-legend-item highcharts-column-series highcharts-color-undefined highcharts-series-1">
            <text x="21" y="15" color="#333" font-weight="400" cursor="pointer" fill="#333" transform="translate(158 3)">
                Basel-Stadt
            </text>
            <path fill="#ff8028" class="highcharts-point" d="M160 7h12v12h-12z"/>
        </g>
        <g class="highcharts-legend-item highcharts-column-series highcharts-color-undefined highcharts-series-2 highcharts-legend-item-hidden">
            <text x="21" y="15" color="#ccc" font-weight="400" cursor="pointer" fill="#ccc" transform="translate(8 18)">
                Genf
            </text>
            <path fill="#ccc" class="highcharts-point" d="M10 22h12v12H10z"/>
        </g>
        <g class="highcharts-legend-item highcharts-column-series highcharts-color-undefined highcharts-series-3 highcharts-legend-item-hidden">
            <text x="21" y="15" color="#ccc" font-weight="400" cursor="pointer" fill="#ccc" transform="translate(158 18)">
                Zürich
            </text>
            <path fill="#ccc" class="highcharts-point" d="M160 22h12v12h-12z"/>
        </g>
    </g>
    <g class="highcharts-axis-labels highcharts-xaxis-labels" text-anchor="end" color="#000" cursor="default" font-size="11">
        <text x="160" style="width:150px" y="128">
            <tspan>Baugewerbe</tspan>
        </text>
        <text x="160" style="width:150px" y="151" text-overflow="ellipsis">
            <tspan>Finanz-und Versicherun…</tspan><title>Finanz- und Versicherungsdienstleistungen</title>
        </text>
        <text x="160" style="width:150px" y="174" text-overflow="ellipsis">
            <tspan>Freiberufliche und wisse…</tspan><title>Freiberufliche und wissenschaftl. Dienstl.</title>
        </text>
        <text x="160" style="width:150px" y="197">
            <tspan>Gastgewerbe</tspan>
        </text>
        <text x="160" style="width:150px" y="219" text-overflow="ellipsis">
            <tspan>Gesundheits-und Sozial…</tspan><title>Gesundheits- und Sozialwesen</title>
        </text>
        <text x="160" style="width:150px" y="242" text-overflow="ellipsis">
            <tspan>Handel und Garagenge…</tspan><title>Handel und Garagengewerbe</title>
        </text>
        <text x="160" style="width:150px" y="265" text-overflow="ellipsis">
            <tspan>Herstellung von chemisc…</tspan><title>Herstellung von chemischen Erzeugnissen</title>
        </text>
        <text x="160" style="width:150px" y="287">
            <tspan>Life Sciences</tspan>
        </text>
        <text x="160" style="width:150px" y="310" text-overflow="ellipsis">
            <tspan>Sonstige wirtschaftliche …</tspan><title>Sonstige wirtschaftliche Dienstleistungen</title>
        </text>
        <text x="160" style="width:150px" y="333">
            <tspan>Verkehr und Lagerei</tspan>
        </text>
        <text x="160" style="width:150px" y="356">
            <tspan>Verwaltung</tspan>
        </text>
    </g>
    <g class="highcharts-axis-labels highcharts-yaxis-labels" text-anchor="middle" color="#000" cursor="default" font-size="11">
        <text x="175" style="width:65px" y="382">
            <tspan>-0.05%</tspan>
        </text>
        <text x="250" style="width:65px" y="382">
            <tspan>0%</tspan>
        </text>
        <text x="325" style="width:65px" y="382">
            <tspan>0.05%</tspan>
        </text>
        <text x="400" style="width:65px" y="382">
            <tspan>0.1%</tspan>
        </text>
        <text x="457.563" style="width:65px" y="382">
            <tspan>0.15%</tspan>
        </text>
    </g>
    <text x="10" class="highcharts-credits" y="400" cursor="default" color="#000" font-size="10">
        <tspan>Quelle: BAK Basel Economics</tspan>
    </text>
</svg>
