<svg class="highcharts-root" xmlns="http://www.w3.org/2000/svg" viewBox="0 0 485 415" font-family="Arial" font-size="12">
    <defs>
        <clipPath id="a">
            <path fill="none" d="M0 0h419v235H0z"/>
        </clipPath>
    </defs>
    <rect fill="#fbfbfb" class="highcharts-background" width="485" height="415" rx="0" ry="0"/>
    <path fill="none" class="highcharts-plot-background" d="M56 128h419v235H56z"/>
    <g class="highcharts-grid highcharts-xaxis-grid">
        <path fill="none" class="highcharts-grid-line" d="M139.5 128v235m84-235v235m83-235v235m84-235v235m84-235v235m-419-235v235"/>
    </g>
    <g class="highcharts-grid highcharts-yaxis-grid">
        <path fill="none" stroke="#e6e6e6" class="highcharts-grid-line" d="M56 363.5h419m-419-59h419m-419-58h419m-419-59h419m-419-60h419"/>
    </g>
    <path fill="none" class="highcharts-plot-border" d="M56 128h419v235H56z"/>
    <g class="highcharts-axis highcharts-xaxis">
        <path fill="none" class="highcharts-tick" stroke="#FFF" d="M139.5 363v10m84-10v10m83-10v10m84-10v10m84-10v10m-419-10v10"/>
        <path fill="none" class="highcharts-axis-line" stroke="#ccd6eb" d="M56 363.5h419"/>
    </g>
    <g class="highcharts-axis highcharts-yaxis">
        <path fill="none" class="highcharts-axis-line" d="M56 128v235"/>
    </g>
    <g class="highcharts-series-group">
        <g class="highcharts-series highcharts-series-0 highcharts-column-series highcharts-color-undefined highcharts-tracker" transform="translate(56 128)" clip-path="url(#a)">
            <path fill="#ffda80" class="highcharts-point" stroke="#fff" d="M17.5 7.5h9v228h-9zm84-4h9v232h-9zm83 9h9v223h-9zm84-1h9v224h-9zm84-8h9v232h-9z"/>
        </g>
        <g class="highcharts-series highcharts-series-1 highcharts-column-series highcharts-color-undefined highcharts-tracker" transform="translate(56 128)" clip-path="url(#a)">
            <path fill="#fabd24" class="highcharts-point" stroke="#fff" d="M27.5 8.5h9v227h-9zm84 2h9v225h-9zm83-2h9v227h-9zm84-2h9v229h-9zm84-1h9v230h-9z"/>
        </g>
        <g class="highcharts-series highcharts-series-2 highcharts-column-series highcharts-color-undefined highcharts-tracker" transform="translate(56 128)" clip-path="url(#a)">
            <path fill="#cd9c00" class="highcharts-point" stroke="#fff" d="M37.5 14.5h9v221h-9zm84-6h9v227h-9zm83 4h9v223h-9zm84-7h9v230h-9zm84-1h9v231h-9z"/>
        </g>
        <g class="highcharts-series highcharts-series-3 highcharts-column-series highcharts-color-undefined highcharts-tracker" transform="translate(56 128)" clip-path="url(#a)">
            <path fill="#7f5f1a" class="highcharts-point" stroke="#fff" d="M47.5 17.5h9v218h-9zm84-3h9v221h-9zm84 2h9v219h-9zm83-12h9v231h-9zm84 9h9v222h-9z"/>
        </g>
        <g class="highcharts-series highcharts-series-4 highcharts-column-series highcharts-color-undefined highcharts-tracker" transform="translate(56 128)" clip-path="url(#a)">
            <path fill="#948a54" class="highcharts-point" stroke="#fff" d="M57.5 7.5h9v228h-9zm84 20h9v208h-9zm84-24h9v232h-9zm83-1h9v233h-9zm84 5h9v228h-9z"/>
        </g>
    </g>
    <text x="10" class="highcharts-title" style="width:421px" y="21" color="#000" font-size="14" font-weight="700">
        <tspan>I.50.1.0030 Anteil Befragte, die sehr oder eher gerne</tspan><tspan dy="17" x="10">in ihrem Quartier/an ihrem Wohnort leben nach</tspan><tspan dy="17" x="10">Wohngegend</tspan><title>I.50.1.0030 Anteil Befragte, die sehr oder eher gerne in ihrem Quartier/an ihrem Wohnort leben nach Wohngegend</title>
    </text>
    <text x="10" class="highcharts-subtitle" style="width:421px" y="76" color="#000" font-weight="400">
        <tspan>«Wie gerne leben Sie insgesamt an Ihrem Wohnort?»</tspan>
    </text>
    <g class="highcharts-legend" transform="translate(10 75)">
        <rect fill="none" class="highcharts-legend-box" rx="0" ry="0" width="378" height="41"/>
        <g class="highcharts-legend-item highcharts-column-series highcharts-color-undefined highcharts-series-0">
            <text x="21" y="15" color="#333" font-weight="400" cursor="pointer" fill="#333" transform="translate(8 3)">
                Innenstadt
            </text>
            <path fill="#ffda80" class="highcharts-point" d="M10 7h12v12H10z"/>
        </g>
        <g class="highcharts-legend-item highcharts-column-series highcharts-color-undefined highcharts-series-1">
            <text x="21" y="15" color="#333" font-weight="400" cursor="pointer" fill="#333" transform="translate(114.578 3)">
                <tspan>Am Ring</tspan>
            </text>
            <path fill="#fabd24" class="highcharts-point" d="M116.578 7h12v12h-12z"/>
        </g>
        <g class="highcharts-legend-item highcharts-column-series highcharts-color-undefined highcharts-series-2">
            <text x="21" y="15" color="#333" font-weight="400" cursor="pointer" fill="#333" transform="translate(207.672 3)">
                <tspan>St Alban</tspan>
            </text>
            <path fill="#cd9c00" class="highcharts-point" d="M209.672 7h12v12h-12z"/>
        </g>
        <g class="highcharts-legend-item highcharts-column-series highcharts-color-undefined highcharts-series-3">
            <text x="21" y="15" color="#333" font-weight="400" cursor="pointer" fill="#333" transform="translate(300.531 3)">
                Unteres
            </text>
            <path fill="#7f5f1a" class="highcharts-point" d="M302.531 7h12v12h-12z"/>
        </g>
        <g class="highcharts-legend-item highcharts-column-series highcharts-color-undefined highcharts-series-4">
            <text x="21" y="15" color="#333" font-weight="400" cursor="pointer" fill="#333" transform="translate(8 18)">
                Oberes
            </text>
            <path fill="#948a54" class="highcharts-point" d="M10 22h12v12H10z"/>
        </g>
    </g>
    <g class="highcharts-axis-labels highcharts-xaxis-labels" text-anchor="middle" color="#000" cursor="default" font-size="11">
        <text x="97.9" style="width:74px" y="382">
            <tspan>2003</tspan>
        </text>
        <text x="181.7" style="width:74px" y="382">
            <tspan>2005</tspan>
        </text>
        <text x="265.5" style="width:74px" y="382">
            <tspan>2007</tspan>
        </text>
        <text x="349.3" style="width:74px" y="382">
            <tspan>2011</tspan>
        </text>
        <text x="433.1" style="width:74px" y="382">
            <tspan>2015</tspan>
        </text>
    </g>
    <g class="highcharts-axis-labels highcharts-yaxis-labels" text-anchor="end" color="#000" cursor="default" font-size="11">
        <text x="41" style="width:150px" y="367">
            <tspan>0%</tspan>
        </text>
        <text x="41" style="width:150px" y="308">
            <tspan>25%</tspan>
        </text>
        <text x="41" style="width:150px" y="250">
            <tspan>50%</tspan>
        </text>
        <text x="41" style="width:150px" y="191">
            <tspan>75%</tspan>
        </text>
        <text x="41" style="width:150px" y="132">
            <tspan>100%</tspan>
        </text>
    </g>
    <text x="10" class="highcharts-credits" y="400" cursor="default" color="#000" font-size="10">
        <tspan>Quelle: Statistisches Amt Basel-Stadt, kantonale Bevölkerungsbefragung: F2b</tspan>
    </text>
</svg>
