<svg class="highcharts-root" xmlns="http://www.w3.org/2000/svg" viewBox="0 0 485 415" font-family="Arial" font-size="12">
    <defs>
        <clipPath id="a">
            <path fill="none" d="M0 0h401v220H0z"/>
        </clipPath>
    </defs>
    <rect fill="#fbfbfb" class="highcharts-background" width="485" height="415" rx="0" ry="0"/>
    <path fill="none" class="highcharts-plot-background" d="M74 128h401v220H74z"/>
    <g class="highcharts-grid highcharts-xaxis-grid">
        <path fill="none" class="highcharts-grid-line" d="M153.5 128v220m80-220v220m81-220v220m80-220v220m80-220v220m-401-220v220"/>
    </g>
    <g class="highcharts-grid highcharts-yaxis-grid">
        <path fill="none" stroke="#e6e6e6" class="highcharts-grid-line" d="M74 348.5h401m-401-55h401m-401-55h401m-401-55h401m-401-55h401"/>
    </g>
    <path fill="none" class="highcharts-plot-border" d="M74 128h401v220H74z"/>
    <g class="highcharts-axis highcharts-xaxis">
        <path fill="none" class="highcharts-tick" stroke="#FFF" d="M153.5 348v10m80-10v10m81-10v10m80-10v10m80-10v10m-401-10v10"/>
        <path fill="none" class="highcharts-axis-line" stroke="#ccd6eb" d="M74 348.5h401"/>
    </g>
    <g class="highcharts-axis highcharts-yaxis">
        <path fill="none" class="highcharts-axis-line" d="M74 128v220"/>
    </g>
    <g class="highcharts-series-group">
        <g class="highcharts-series highcharts-series-0 highcharts-column-series highcharts-color-undefined highcharts-tracker" transform="translate(74 128)" clip-path="url(#a)">
            <path fill="#ffda80" class="highcharts-point" stroke="#fff" d="M16.5 6.5h8v214h-8zm80-4h8v218h-8zm80 9h8v209h-8zm81-1h8v210h-8zm80-7h8v217h-8z"/>
        </g>
        <g class="highcharts-series highcharts-series-1 highcharts-column-series highcharts-color-undefined highcharts-tracker" transform="translate(74 128)" clip-path="url(#a)">
            <path fill="#fabd24" class="highcharts-point" stroke="#fff" d="M26.5 8.5h8v212h-8zm80 1h8v211h-8zm80-1h8v212h-8zm80-2h8v214h-8zm80-2h8v216h-8z"/>
        </g>
        <g class="highcharts-series highcharts-series-2 highcharts-column-series highcharts-color-undefined highcharts-tracker" transform="translate(74 128)" clip-path="url(#a)">
            <path fill="#cd9c00" class="highcharts-point" stroke="#fff" d="M35.5 13.5h8v207h-8zm80-6h8v213h-8zm81 4h8v209h-8zm80-6h8v215h-8zm80-1h8v216h-8z"/>
        </g>
        <g class="highcharts-series highcharts-series-3 highcharts-column-series highcharts-color-undefined highcharts-tracker" transform="translate(74 128)" clip-path="url(#a)">
            <path fill="#7f5f1a" class="highcharts-point" stroke="#fff" d="M45.5 16.5h8v204h-8zm80-3h8v207h-8zm80 2h8v205h-8zm80-11h8v216h-8zm81 8h8v208h-8z"/>
        </g>
        <g class="highcharts-series highcharts-series-4 highcharts-column-series highcharts-color-undefined highcharts-tracker" transform="translate(74 128)" clip-path="url(#a)">
            <path fill="#948a54" class="highcharts-point" stroke="#fff" d="M54.5 6.5h8v214h-8zm81 19h8v195h-8zm80-22h8v217h-8zm80-1h8v218h-8zm80 5h8v213h-8z"/>
        </g>
    </g>
    <text x="10" class="highcharts-title" style="width:421px" y="21" color="#000" font-size="14" font-weight="700">
        <tspan>I.50.1.0030 Anteil Befragte, die sehr oder eher gerne</tspan><tspan dy="17" x="10">in ihrem Quartier/an ihrem Wohnort leben nach</tspan><tspan dy="17" x="10">Wohngegend</tspan><title>I.50.1.0030 Anteil Befragte, die sehr oder eher gerne in ihrem Quartier/an ihrem Wohnort leben nach Wohngegend</title>
    </text>
    <text x="10" class="highcharts-subtitle" style="width:421px" y="76" color="#000" font-weight="400">
        <tspan>«Wie gerne leben Sie insgesamt an Ihrem Wohnort?»</tspan>
    </text>
    <g class="highcharts-legend" transform="translate(10 75)">
        <rect fill="none" class="highcharts-legend-box" rx="0" ry="0" width="378" height="41"/>
        <g class="highcharts-legend-item highcharts-column-series highcharts-color-undefined highcharts-series-0">
            <text x="21" y="15" color="#333" font-weight="400" cursor="pointer" fill="#333" transform="translate(8 3)">
                Innenstadt
            </text>
            <path fill="#ffda80" class="highcharts-point" d="M10 7h12v12H10z"/>
        </g>
        <g class="highcharts-legend-item highcharts-column-series highcharts-color-undefined highcharts-series-1">
            <text x="21" y="15" color="#333" font-weight="400" cursor="pointer" fill="#333" transform="translate(114.578 3)">
                <tspan>Am Ring</tspan>
            </text>
            <path fill="#fabd24" class="highcharts-point" d="M116.578 7h12v12h-12z"/>
        </g>
        <g class="highcharts-legend-item highcharts-column-series highcharts-color-undefined highcharts-series-2">
            <text x="21" y="15" color="#333" font-weight="400" cursor="pointer" fill="#333" transform="translate(207.672 3)">
                <tspan>St Alban</tspan>
            </text>
            <path fill="#cd9c00" class="highcharts-point" d="M209.672 7h12v12h-12z"/>
        </g>
        <g class="highcharts-legend-item highcharts-column-series highcharts-color-undefined highcharts-series-3">
            <text x="21" y="15" color="#333" font-weight="400" cursor="pointer" fill="#333" transform="translate(300.531 3)">
                Unteres
            </text>
            <path fill="#7f5f1a" class="highcharts-point" d="M302.531 7h12v12h-12z"/>
        </g>
        <g class="highcharts-legend-item highcharts-column-series highcharts-color-undefined highcharts-series-4">
            <text x="21" y="15" color="#333" font-weight="400" cursor="pointer" fill="#333" transform="translate(8 18)">
                Oberes
            </text>
            <path fill="#948a54" class="highcharts-point" d="M10 22h12v12H10z"/>
        </g>
    </g>
    <g class="highcharts-axis-labels highcharts-xaxis-labels" text-anchor="middle" color="#000" cursor="default" font-size="11">
        <text x="114.1" style="width:70px" y="367">
            <tspan>2003</tspan>
        </text>
        <text x="194.3" style="width:70px" y="367">
            <tspan>2005</tspan>
        </text>
        <text x="274.5" style="width:70px" y="367">
            <tspan>2007</tspan>
        </text>
        <text x="354.7" style="width:70px" y="367">
            <tspan>2011</tspan>
        </text>
        <text x="434.9" style="width:70px" y="367">
            <tspan>2015</tspan>
        </text>
    </g>
    <g class="highcharts-axis-labels highcharts-yaxis-labels" text-anchor="end" color="#000" cursor="default" font-size="11">
        <text x="59" style="width:150px" y="352">
            <tspan>0%</tspan>
        </text>
        <text x="59" style="width:150px" y="297">
            <tspan>2 500%</tspan>
        </text>
        <text x="59" style="width:150px" y="242">
            <tspan>5 000%</tspan>
        </text>
        <text x="59" style="width:150px" y="187">
            <tspan>7 500%</tspan>
        </text>
        <text x="59" style="width:150px" y="132">
            <tspan>10 000%</tspan>
        </text>
    </g>
    <text x="10" class="highcharts-credits" y="400" cursor="default" color="#000" font-size="10">
        <tspan>Quelle: Statistisches Amt Basel-Stadt, kantonale Bevölkerungsbefragung: F2b</tspan>
    </text>
</svg>
