<svg class="highcharts-root" xmlns="http://www.w3.org/2000/svg" viewBox="0 0 485 415" font-family="Arial" font-size="12">
    <defs>
        <clipPath id="a">
            <path fill="none" d="M0 0h426v250H0z"/>
        </clipPath>
    </defs>
    <rect fill="#fbfbfb" class="highcharts-background" width="485" height="415" rx="0" ry="0"/>
    <path fill="none" class="highcharts-plot-background" d="M49 113h426v250H49z"/>
    <g class="highcharts-grid highcharts-xaxis-grid">
        <path fill="none" class="highcharts-grid-line" d="M133.5 113v250m85-250v250m86-250v250m85-250v250m85-250v250m-426-250v250"/>
    </g>
    <g class="highcharts-grid highcharts-yaxis-grid">
        <path fill="none" stroke="#e6e6e6" class="highcharts-grid-line" d="M49 363.5h426m-426-50h426m-426-50h426m-426-50h426m-426-50h426m-426-51h426"/>
    </g>
    <path fill="none" class="highcharts-plot-border" d="M49 113h426v250H49z"/>
    <g class="highcharts-axis highcharts-xaxis">
        <path fill="none" class="highcharts-tick" stroke="#FFF" d="M133.5 363v10m85-10v10m86-10v10m85-10v10m85-10v10m-426-10v10"/>
        <path fill="none" class="highcharts-axis-line" stroke="#ccd6eb" d="M49 363.5h426"/>
    </g>
    <g class="highcharts-axis highcharts-yaxis">
        <path fill="none" class="highcharts-axis-line" d="M49 113v250"/>
    </g>
    <g class="highcharts-series-group">
        <g class="highcharts-series highcharts-series-0 highcharts-column-series highcharts-color-undefined highcharts-tracker" transform="translate(49 113)" clip-path="url(#a)">
            <path fill="#cd9c00" class="highcharts-point" stroke="#fff" d="M17.5 42.5h9v208h-9zm85-15h9v223h-9zm85 36h9v187h-9zm86 9h9v178h-9zm85 1h9v177h-9z"/>
        </g>
        <g class="highcharts-series highcharts-series-1 highcharts-column-series highcharts-color-undefined highcharts-tracker" transform="translate(49 113)" clip-path="url(#a)">
            <path fill="#9f7c5a" class="highcharts-point" stroke="#fff" d="M27.5 123.5h9v127h-9zm85 25h9v102h-9zm86 1h9v101h-9zm85-34h9v135h-9zm85 40h9v95h-9z"/>
        </g>
        <g class="highcharts-series highcharts-series-2 highcharts-column-series highcharts-color-undefined highcharts-tracker" transform="translate(49 113)" clip-path="url(#a)">
            <path fill="#661200" class="highcharts-point" stroke="#fff" d="M38.5 106.5h9v144h-9zm85-9h9v153h-9zm85 13h9v140h-9zm85-58h9v198h-9zm85 72h9v126h-9z"/>
        </g>
        <g class="highcharts-series highcharts-series-3 highcharts-column-series highcharts-color-undefined highcharts-tracker" transform="translate(49 113)" clip-path="url(#a)">
            <path fill="#008AC3" class="highcharts-point" stroke="#fff" d="M48.5 43.5h9v207h-9zm85 19h9v188h-9zm85 34h9v154h-9zm85 26h9v128h-9zm86-8h9v136h-9z"/>
        </g>
        <g class="highcharts-series highcharts-series-4 highcharts-column-series highcharts-color-undefined highcharts-tracker" transform="translate(49 113)" clip-path="url(#a)">
            <path fill="#69929b" class="highcharts-point" stroke="#fff" d="M58.5 66.5h9v184h-9zm85-39h9v223h-9zm85 31h9v192h-9zm86-8h9v200h-9zm85 42h9v158h-9z"/>
        </g>
    </g>
    <text x="10" class="highcharts-title" style="width:421px" y="21" color="#000" font-size="14" font-weight="700">
        <tspan>I.01.1.0042 Prozentuale Beteiligung der Bevölkerung</tspan><tspan dy="17" x="10">an Freiwilligenarbeit nach Geschlecht, Alter und</tspan><tspan dy="17" x="10">Heimat</tspan><title>I.01.1.0042 Prozentuale Beteiligung der Bevölkerung an Freiwilligenarbeit nach Geschlecht, Alter und Heimat</title>
    </text>
    <g class="highcharts-legend" transform="translate(10 75)">
        <rect fill="none" class="highcharts-legend-box" rx="0" ry="0" width="440" height="26"/>
        <g class="highcharts-legend-item highcharts-column-series highcharts-color-undefined highcharts-series-0">
            <text x="21" y="15" color="#333" font-weight="400" cursor="pointer" fill="#333" transform="translate(8 3)">
                Schweiz
            </text>
            <path fill="#cd9c00" class="highcharts-point" d="M10 7h12v12H10z"/>
        </g>
        <g class="highcharts-legend-item highcharts-column-series highcharts-color-undefined highcharts-series-1">
            <text x="21" y="15" color="#333" font-weight="400" cursor="pointer" fill="#333" transform="translate(99.156 3)">
                Ausland
            </text>
            <path fill="#9f7c5a" class="highcharts-point" d="M101.156 7h12v12h-12z"/>
        </g>
        <g class="highcharts-legend-item highcharts-column-series highcharts-color-undefined highcharts-series-2">
            <text x="21" y="15" color="#333" font-weight="400" cursor="pointer" fill="#333" transform="translate(189.047 3)">
                <tspan>15-24 J.</tspan>
            </text>
            <path fill="#661200" class="highcharts-point" d="M191.047 7h12v12h-12z"/>
        </g>
        <g class="highcharts-legend-item highcharts-column-series highcharts-color-undefined highcharts-series-3">
            <text x="21" y="15" color="#333" font-weight="400" cursor="pointer" fill="#333" transform="translate(277.016 3)">
                <tspan>25-39 J.</tspan>
            </text>
            <path fill="#008AC3" class="highcharts-point" d="M279.016 7h12v12h-12z"/>
        </g>
        <g class="highcharts-legend-item highcharts-column-series highcharts-color-undefined highcharts-series-4">
            <text x="21" y="15" color="#333" font-weight="400" cursor="pointer" fill="#333" transform="translate(364.984 3)">
                <tspan>40-54 J.</tspan>
            </text>
            <path fill="#69929b" class="highcharts-point" d="M366.984 7h12v12h-12z"/>
        </g>
    </g>
    <g class="highcharts-axis-labels highcharts-xaxis-labels" text-anchor="middle" color="#000" cursor="default" font-size="11">
        <text x="91.6" style="width:83px" y="382">
            <tspan>2000</tspan>
        </text>
        <text x="176.8" style="width:83px" y="382">
            <tspan>2004</tspan>
        </text>
        <text x="262" style="width:83px" y="382">
            <tspan>2007</tspan>
        </text>
        <text x="347.2" style="width:83px" y="382">
            <tspan>2010</tspan>
        </text>
        <text x="432.4" style="width:83px" y="382">
            <tspan>2013</tspan>
        </text>
    </g>
    <g class="highcharts-axis-labels highcharts-yaxis-labels" text-anchor="end" color="#000" cursor="default" font-size="11">
        <text x="34" style="width:150px" y="367">
            <tspan>0%</tspan>
        </text>
        <text x="34" style="width:150px" y="317">
            <tspan>10%</tspan>
        </text>
        <text x="34" style="width:150px" y="267">
            <tspan>20%</tspan>
        </text>
        <text x="34" style="width:150px" y="217">
            <tspan>30%</tspan>
        </text>
        <text x="34" style="width:150px" y="167">
            <tspan>40%</tspan>
        </text>
        <text x="34" style="width:150px" y="117">
            <tspan>50%</tspan>
        </text>
    </g>
    <text x="10" class="highcharts-credits" y="400" cursor="default" color="#000" font-size="10">
        <tspan>Quelle: Bundesamt für Statistik, Schweizerische Arbeitskräfteerhebung, Modul &apos;Unbezahlte Arbeit&apos;</tspan>
    </text>
</svg>
