<svg class="highcharts-root" xmlns="http://www.w3.org/2000/svg" viewBox="0 0 485 415" font-family="Arial" font-size="12">
    <rect fill="#fbfbfb" class="highcharts-background" width="485" height="415" rx="0" ry="0"/>
    <path fill="none" class="highcharts-plot-background" d="M53 43h155v305H53z"/>
    <g class="highcharts-grid highcharts-xaxis-grid">
        <path fill="none" class="highcharts-grid-line" d="M53 77.5h155m-155 34h155m-155 34h155m-155 34h155m-155 33h155m-155 34h155m-155 34h155m-155 34h155m-155 34h155"/>
    </g>
    <g class="highcharts-grid highcharts-yaxis-grid">
        <path fill="none" stroke="#e6e6e6" class="highcharts-grid-line" d="M52.5 43v305m78-305v305m78-305v305"/>
    </g>
    <path fill="none" class="highcharts-plot-border" d="M53 43h155v305H53z"/>
    <g class="highcharts-axis highcharts-xaxis">
        <path fill="none" class="highcharts-tick" stroke="#FFF" d="M53 77.5H43m10 34H43m10 34H43m10 34H43m10 33H43m10 34H43m10 34H43m10 34H43m10 34H43"/>
        <path fill="none" class="highcharts-axis-line" stroke="#ccd6eb" d="M52.5 43v305"/>
    </g>
    <g class="highcharts-axis highcharts-yaxis">
        <path fill="none" class="highcharts-axis-line" d="M53 348h155"/>
    </g>
    <g class="highcharts-series-group">
        <g class="highcharts-markers highcharts-series-0 highcharts-scatter-series highcharts-color-undefined highcharts-tracker">
            <path fill="#672773" d="M57 332c0-5.328-8-5.328-8 0s8 5.328 8 0zm0-34c0-5.328-8-5.328-8 0s8 5.328 8 0zm25-34c0-5.328-8-5.328-8 0s8 5.328 8 0z" class="highcharts-point"/>
            <path fill="#672773" d="M84 264c0-5.328-8-5.328-8 0s8 5.328 8 0zm10-34c0-5.328-8-5.328-8 0s8 5.328 8 0z" class="highcharts-point"/>
            <path fill="#672773" d="M96 230c0-5.328-8-5.328-8 0s8 5.328 8 0zm-1-34c0-5.328-8-5.328-8 0s8 5.328 8 0zm6-34c0-5.328-8-5.328-8 0s8 5.328 8 0zm-10-34c0-5.328-8-5.328-8 0s8 5.328 8 0zm5-34c0-5.328-8-5.328-8 0s8 5.328 8 0zm16-34c0-5.328-8-5.328-8 0s8 5.328 8 0z" class="highcharts-point"/>
        </g>
        <g class="highcharts-markers highcharts-series-1 highcharts-scatter-series highcharts-color-undefined highcharts-tracker">
            <path fill="#dc440e" d="M57 332l-4-4-4 4 4 4zm0-34l-4-4-4 4 4 4zm49-34l-4-4-4 4 4 4z" class="highcharts-point"/>
            <path fill="#dc440e" d="M106 264l-4-4-4 4 4 4zm23-34l-4-4-4 4 4 4z" class="highcharts-point"/>
            <path fill="#dc440e" d="M129 230l-4-4-4 4 4 4zm-2-34l-4-4-4 4 4 4zm11-34l-4-4-4 4 4 4zm-19-34l-4-4-4 4 4 4zm9-34l-4-4-4 4 4 4zm29-34l-4-4-4 4 4 4z" class="highcharts-point"/>
        </g>
    </g>
    <text x="10" class="highcharts-title" style="width:421px" y="21" color="#000" font-size="14" font-weight="700">
        <tspan>I.02.4.0001 Wasserqualität (AOX-Fracht)</tspan>
    </text>
    <g class="highcharts-legend" transform="translate(220 215)">
        <rect fill="none" class="highcharts-legend-box" rx="0" ry="0" width="265" height="51"/>
        <g class="highcharts-legend-item highcharts-scatter-series highcharts-color-undefined highcharts-series-1">
            <path fill="none" d="M8 14h16" class="highcharts-graph"/>
            <path fill="#dc440e" d="M16 10l4 4-4 4-4-4z" class="highcharts-point"/>
            <text x="21" y="15" color="#333" font-weight="400" cursor="pointer" fill="#333" transform="translate(8 3)">
                <tspan>AOX pro Einwohner</tspan>
            </text>
        </g>
        <g class="highcharts-legend-item highcharts-scatter-series highcharts-color-undefined highcharts-series-0">
            <path fill="none" d="M8 34h16" class="highcharts-graph"/>
            <path fill="#672773" d="M16 30c5.328 0 5.328 8 0 8s-5.328-8 0-8z" class="highcharts-point"/>
            <text x="21" y="15" color="#333" font-weight="400" cursor="pointer" fill="#333" transform="translate(8 23)">
                <tspan>AOX pro Einwohner und Beschäftigte</tspan>
            </text>
        </g>
    </g>
    <g class="highcharts-axis-labels highcharts-xaxis-labels" text-anchor="end" color="#000" cursor="default" font-size="11">
        <text x="38" style="width:150px" y="64">
            <tspan>2006</tspan>
        </text>
        <text x="38" style="width:150px" y="98">
            <tspan>2007</tspan>
        </text>
        <text x="38" style="width:150px" y="132">
            <tspan>2008</tspan>
        </text>
        <text x="38" style="width:150px" y="166">
            <tspan>2009</tspan>
        </text>
        <text x="38" style="width:150px" y="200">
            <tspan>2010</tspan>
        </text>
        <text x="38" style="width:150px" y="233">
            <tspan>2011</tspan>
        </text>
        <text x="38" style="width:150px" y="267">
            <tspan>2012</tspan>
        </text>
        <text x="38" style="width:150px" y="301">
            <tspan>2013</tspan>
        </text>
        <text x="38" style="width:150px" y="335">
            <tspan>2014</tspan>
        </text>
    </g>
    <g class="highcharts-axis-labels highcharts-yaxis-labels" text-anchor="middle" color="#000" cursor="default" font-size="11">
        <text x="53" style="width:77.5" y="367" text-overflow="ellipsis">
            <tspan>0%</tspan>
        </text>
        <text x="130.5" style="width:77.5" y="367" text-overflow="ellipsis">
            <tspan>1 000%</tspan>
        </text>
        <text x="208" style="width:77.5" y="367" text-overflow="ellipsis">
            <tspan>2 000%</tspan>
        </text>
    </g>
    <text x="10" class="highcharts-credits" y="390" cursor="default" color="#000" font-size="10">
        <tspan>Quelle: Amt für Umwelt und Energie Basel-Stadt;</tspan><tspan x="10" dy="13">ProRheno AG</tspan>
    </text>
</svg>
