<svg class="highcharts-root" xmlns="http://www.w3.org/2000/svg" viewBox="0 0 485 415" font-family="Arial" font-size="12">
    <defs>
        <clipPath id="a">
            <path fill="none" d="M0 0h380v288H0z"/>
        </clipPath>
    </defs>
    <rect fill="#fbfbfb" class="highcharts-background" width="485" height="415" rx="0" ry="0"/>
    <path fill="none" class="highcharts-plot-background" d="M95 60h380v288H95z"/>
    <g class="highcharts-grid highcharts-xaxis-grid">
        <path fill="none" class="highcharts-grid-line" d="M98.5 60v288m46-288v288m47-288v288m46-288v288m47-288v288m47-288v288m46-288v288m47-288v288m46-288v288"/>
    </g>
    <g class="highcharts-grid highcharts-yaxis-grid">
        <path fill="none" stroke="#e6e6e6" class="highcharts-grid-line" d="M95 348.5h380m-380-72h380m-380-72h380m-380-72h380m-380-73h380"/>
    </g>
    <path fill="none" class="highcharts-plot-border" d="M95 60h380v288H95z"/>
    <g class="highcharts-axis highcharts-xaxis">
        <path fill="none" class="highcharts-axis-line" stroke="#ccd6eb" d="M95 348.5h380"/>
    </g>
    <g class="highcharts-axis highcharts-yaxis">
        <path fill="none" class="highcharts-axis-line" d="M95 60v288"/>
    </g>
    <g class="highcharts-series-group">
        <g class="highcharts-series highcharts-series-0 highcharts-line-series highcharts-color-undefined" transform="translate(95 60)" clip-path="url(#a)">
            <path fill="none" d="M3.725 248.426l46.57-26.33 46.568 80.31 46.568-91.31L190 241.079l46.569-64.48 46.568 60.42L329.706 73.88l46.569-3.235" class="highcharts-graph" stroke="#256370" stroke-width="2" stroke-linejoin="round" stroke-linecap="round"/>
            <path fill="none" d="M-6.275 248.426h10l46.57-26.33 46.568 80.31 46.568-91.31L190 241.079l46.569-64.48 46.568 60.42L329.706 73.88l46.569-3.235h10" stroke-linejoin="round" stroke="rgba(192,192,192,0.0001)" stroke-width="22" class="highcharts-tracker"/>
        </g>
        <g class="highcharts-markers highcharts-series-0 highcharts-line-series highcharts-color-undefined highcharts-tracker">
            <path fill="#256370" d="M471 127c5.328 0 5.328 8 0 8s-5.328-8 0-8zm-47 3c5.328 0 5.328 8 0 8s-5.328-8 0-8zm-46 163c5.328 0 5.328 8 0 8s-5.328-8 0-8zm-47-60c5.328 0 5.328 8 0 8s-5.328-8 0-8zm-46 64c5.328 0 5.328 8 0 8s-5.328-8 0-8zm-47-30c5.328 0 5.328 8 0 8s-5.328-8 0-8zm-93 11c5.328 0 5.328 8 0 8s-5.328-8 0-8zm-47 26c5.328 0 5.328 8 0 8s-5.328-8 0-8z" class="highcharts-point"/>
        </g>
    </g>
    <text x="10" class="highcharts-title" style="width:421px" y="21" color="#000" font-size="14" font-weight="700">
        <tspan>I.04.0.0005 Steuereinnahmen juristischer Personen</tspan><tspan dy="17" x="10">(in Mio. Franken)</tspan><title>I.04.0.0005 Steuereinnahmen juristischer Personen (in Mio. Franken)</title>
    </text>
    <g class="highcharts-data-labels highcharts-series-0 highcharts-line-series highcharts-color-undefined">
        <text x="5" style="text-outline:1px contrast" y="16" font-size="11" font-weight="700" color="#000" transform="translate(90 274)" class="highcharts-label highcharts-data-label highcharts-data-label-color-undefined">
            <tspan x="5" y="16" class="highcharts-text-outline" fill="#FFF" stroke="#FFF" stroke-width="2" stroke-linejoin="round">54963895.79</tspan><tspan x="5" y="16">54963895.79</tspan>
        </text>
        <text x="5" style="text-outline:1px contrast" y="16" font-size="11" font-weight="700" color="#000" transform="translate(352 97)" class="highcharts-label highcharts-data-label highcharts-data-label-color-undefined">
            <tspan x="5" y="16" class="highcharts-text-outline" fill="#FFF" stroke="#FFF" stroke-width="2" stroke-linejoin="round">301882192.418164</tspan><tspan x="5" y="16">301882192.418164</tspan>
        </text>
    </g>
    <g class="highcharts-axis-labels highcharts-xaxis-labels" text-anchor="middle" color="#000" cursor="default" font-size="11">
        <text x="98.725" y="367">
            2006
        </text>
        <text x="145.294" y="367">
            2007
        </text>
        <text x="191.863" y="367">
            2008
        </text>
        <text x="238.431" y="367">
            2009
        </text>
        <text x="285" y="367">
            2010
        </text>
        <text x="331.569" y="367">
            2011
        </text>
        <text x="378.137" y="367">
            2012
        </text>
        <text x="424.706" y="367">
            2013
        </text>
        <text x="461.262" style="width:27.4754901960751" y="367" text-overflow="ellipsis">
            <tspan>20…</tspan><title>2014</title>
        </text>
    </g>
    <g class="highcharts-axis-labels highcharts-yaxis-labels" text-anchor="end" color="#000" cursor="default" font-size="11">
        <text x="80" style="width:150px" y="352">
            <tspan>0</tspan>
        </text>
        <text x="80" style="width:150px" y="280">
            <tspan>100 000 000</tspan>
        </text>
        <text x="80" style="width:150px" y="208">
            <tspan>200 000 000</tspan>
        </text>
        <text x="80" style="width:150px" y="136">
            <tspan>300 000 000</tspan>
        </text>
        <text x="80" style="width:150px" y="64">
            <tspan>400 000 000</tspan>
        </text>
    </g>
    <text x="10" class="highcharts-credits" y="400" cursor="default" color="#000" font-size="10">
        <tspan>Quelle: Jahresbericht des Kantons Basel-Stadt</tspan>
    </text>
</svg>
