<svg class="highcharts-root" xmlns="http://www.w3.org/2000/svg" viewBox="0 0 485 415" font-family="Arial" font-size="12">
    <defs>
        <clipPath id="a">
            <path fill="none" d="M0 0h405v200H0z"/>
        </clipPath>
    </defs>
    <rect fill="#fbfbfb" class="highcharts-background" width="485" height="415" rx="0" ry="0"/>
    <path fill="none" class="highcharts-plot-background" d="M70 148h405v200H70z"/>
    <g class="highcharts-grid highcharts-xaxis-grid">
        <path fill="none" class="highcharts-grid-line" d="M73.5 148v200m44-200v200m44-200v200m44-200v200m44-200v200m45-200v200m44-200v200m44-200v200m44-200v200m44-200v200"/>
    </g>
    <g class="highcharts-grid highcharts-yaxis-grid">
        <path fill="none" stroke="#e6e6e6" class="highcharts-grid-line" d="M70 348.5h405m-405-67h405m-405-66h405m-405-68h405"/>
    </g>
    <path fill="none" class="highcharts-plot-border" d="M70 148h405v200H70z"/>
    <g class="highcharts-axis highcharts-xaxis">
        <path fill="none" class="highcharts-axis-line" stroke="#ccd6eb" d="M70 348.5h405"/>
    </g>
    <g class="highcharts-axis highcharts-yaxis">
        <path fill="none" class="highcharts-axis-line" d="M70 148v200"/>
    </g>
    <g class="highcharts-series-group">
        <g class="highcharts-series highcharts-series-0 highcharts-line-series highcharts-color-undefined" transform="translate(70 148)" clip-path="url(#a)">
            <path fill="none" d="M3.97 109.405l44.118-13.241 44.118 24.176 44.118-7.21 44.117-15.836 44.118-11.122 44.117 15.507 44.118 9.119 44.118-4.006 44.117-35.246" class="highcharts-graph" stroke="#44ab2b" stroke-width="2" stroke-linejoin="round" stroke-linecap="round"/>
            <path fill="none" d="M-6.03 109.405h10l44.118-13.241 44.118 24.176 44.118-7.21 44.117-15.836 44.118-11.122 44.117 15.507 44.118 9.119 44.118-4.006 44.117-35.246h10" stroke-linejoin="round" stroke="rgba(192,192,192,0.0001)" stroke-width="22" class="highcharts-tracker"/>
        </g>
        <g class="highcharts-series highcharts-series-1 highcharts-line-series highcharts-color-undefined" transform="translate(70 148)" clip-path="url(#a)">
            <path fill="none" d="M3.97 148.01l44.118 5.537 44.118 7.119 44.118 1.226 44.117-3.206 44.118-.293 44.117-.244 44.118-.434 44.118 2.683 44.117-.026" class="highcharts-graph" stroke="#71a3b5" stroke-width="2" stroke-linejoin="round" stroke-linecap="round"/>
            <path fill="none" d="M-6.03 148.01h10l44.118 5.537 44.118 7.119 44.118 1.226 44.117-3.206 44.118-.293 44.117-.244 44.118-.434 44.118 2.683 44.117-.026h10" stroke-linejoin="round" stroke="rgba(192,192,192,0.0001)" stroke-width="22" class="highcharts-tracker"/>
        </g>
        <g class="highcharts-series highcharts-series-2 highcharts-line-series highcharts-color-undefined" transform="translate(70 148)" clip-path="url(#a)">
            <path fill="none" d="M3.97 129.777l44.118 9.421 44.118 2.979 44.118-119.572L180.44 141.88l44.118 2.898 44.117-9.822 44.118-4.34 44.118 16.79 44.117 19.626" class="highcharts-graph" stroke="#b00000" stroke-width="2" stroke-linejoin="round" stroke-linecap="round"/>
            <path fill="none" d="M-6.03 129.777h10l44.118 9.421 44.118 2.979 44.118-119.572L180.44 141.88l44.118 2.898 44.117-9.822 44.118-4.34 44.118 16.79 44.117 19.626h10" stroke-linejoin="round" stroke="rgba(192,192,192,0.0001)" stroke-width="22" class="highcharts-tracker"/>
        </g>
        <g class="highcharts-series highcharts-series-3 highcharts-line-series highcharts-color-undefined" transform="translate(70 148)" clip-path="url(#a)">
            <path fill="none" d="M3.97 186.253l44.118-2.475 44.118 2.298 44.118 7.184 44.117.735 44.118-3.773 44.117-4.2 44.118-.72 44.118-2.06 44.117-3.813" class="highcharts-graph" stroke="#000" stroke-width="2" stroke-linejoin="round" stroke-linecap="round"/>
            <path fill="none" d="M-6.03 186.253h10l44.118-2.475 44.118 2.298 44.118 7.184 44.117.735 44.118-3.773 44.117-4.2 44.118-.72 44.118-2.06 44.117-3.813h10" stroke-linejoin="round" stroke="rgba(192,192,192,0.0001)" stroke-width="22" class="highcharts-tracker"/>
        </g>
        <g class="highcharts-series highcharts-series-4 highcharts-line-series highcharts-color-undefined" transform="translate(70 148)" clip-path="url(#a)">
            <path fill="none" d="M3.97 161.552l44.118 5.465 44.118 1.372 44.118.316 44.117-1.003 44.118 2.365 44.117 1.668 44.118-2.69 44.118.796 44.117 1.842" class="highcharts-graph" stroke="#8a8a8a" stroke-width="2" stroke-linejoin="round" stroke-linecap="round"/>
            <path fill="none" d="M-6.03 161.552h10l44.118 5.465 44.118 1.372 44.118.316 44.117-1.003 44.118 2.365 44.117 1.668 44.118-2.69 44.118.796 44.117 1.842h10" stroke-linejoin="round" stroke="rgba(192,192,192,0.0001)" stroke-width="22" class="highcharts-tracker"/>
        </g>
        <g class="highcharts-series highcharts-series-5 highcharts-line-series highcharts-color-undefined" transform="translate(70 148)" clip-path="url(#a)">
            <path fill="none" d="M3.97 181.585l44.118-11.997 44.118-8.153 44.118 14.558 44.117-1.877 44.118 3.418L268.676 175l44.118.112 44.118 3.308 44.117-4.127" class="highcharts-graph" stroke="#933f8d" stroke-width="2" stroke-linejoin="round" stroke-linecap="round"/>
            <path fill="none" d="M-6.03 181.585h10l44.118-11.997 44.118-8.153 44.118 14.558 44.117-1.877 44.118 3.418L268.676 175l44.118.112 44.118 3.308 44.117-4.127h10" stroke-linejoin="round" stroke="rgba(192,192,192,0.0001)" stroke-width="22" class="highcharts-tracker"/>
        </g>
        <g class="highcharts-series highcharts-series-6 highcharts-line-series highcharts-color-undefined" transform="translate(70 148)" clip-path="url(#a)">
            <path fill="none" d="M3.97 184.77l44.118-1.94 44.118-.085 44.118.438 44.117-.875 44.118 1.635 44.117-1.748 44.118-4.142 44.118.873 44.117 1.207" class="highcharts-graph" stroke="#ff8028" stroke-width="2" stroke-linejoin="round" stroke-linecap="round"/>
            <path fill="none" d="M-6.03 184.77h10l44.118-1.94 44.118-.085 44.118.438 44.117-.875 44.118 1.635 44.117-1.748 44.118-4.142 44.118.873 44.117 1.207h10" stroke-linejoin="round" stroke="rgba(192,192,192,0.0001)" stroke-width="22" class="highcharts-tracker"/>
        </g>
    </g>
    <text x="10" class="highcharts-title" style="width:421px" y="21" color="#000" font-size="14" font-weight="700">
        <tspan>I.16.1.0006 Anzahl Museumsbesuche</tspan>
    </text>
    <g class="highcharts-legend" transform="translate(55 45)">
        <rect fill="none" class="highcharts-legend-box" rx="0" ry="0" width="396" height="91"/>
        <g class="highcharts-legend-item highcharts-line-series highcharts-color-undefined highcharts-series-0">
            <path fill="none" d="M8 14h16" class="highcharts-graph" stroke="#44ab2b" stroke-width="2"/>
            <text x="21" y="15" color="#333" font-weight="400" cursor="pointer" fill="#333" transform="translate(8 3)">
                <tspan>Fondation Beyeler</tspan>
            </text>
        </g>
        <g class="highcharts-legend-item highcharts-line-series highcharts-color-undefined highcharts-series-1">
            <path fill="none" d="M208 14h16" class="highcharts-graph" stroke="#71a3b5" stroke-width="2"/>
            <text x="21" y="15" color="#333" font-weight="400" cursor="pointer" fill="#333" transform="translate(208 3)">
                <tspan>Historisches Museum</tspan>
            </text>
        </g>
        <g class="highcharts-legend-item highcharts-line-series highcharts-color-undefined highcharts-series-2">
            <path fill="none" d="M8 34h16" class="highcharts-graph" stroke="#b00000" stroke-width="2"/>
            <text x="21" y="15" color="#333" font-weight="400" cursor="pointer" fill="#333" transform="translate(8 23)">
                <tspan>Kunstmuseum Basel</tspan>
            </text>
        </g>
        <g class="highcharts-legend-item highcharts-line-series highcharts-color-undefined highcharts-series-3">
            <path fill="none" d="M208 34h16" class="highcharts-graph" stroke="#000" stroke-width="2"/>
            <text x="21" y="15" color="#333" font-weight="400" cursor="pointer" fill="#333" transform="translate(208 23)">
                <tspan>Museum der Kulturen</tspan>
            </text>
        </g>
        <g class="highcharts-legend-item highcharts-line-series highcharts-color-undefined highcharts-series-4">
            <path fill="none" d="M8 54h16" class="highcharts-graph" stroke="#8a8a8a" stroke-width="2"/>
            <text x="21" y="15" color="#333" font-weight="400" cursor="pointer" fill="#333" transform="translate(8 43)">
                <tspan>Museum Tinguely</tspan>
            </text>
        </g>
        <g class="highcharts-legend-item highcharts-line-series highcharts-color-undefined highcharts-series-5">
            <path fill="none" d="M208 54h16" class="highcharts-graph" stroke="#933f8d" stroke-width="2"/>
            <text x="21" y="15" color="#333" font-weight="400" cursor="pointer" fill="#333" transform="translate(208 43)">
                <tspan>Naturhistorisches Museum</tspan>
            </text>
        </g>
        <g class="highcharts-legend-item highcharts-line-series highcharts-color-undefined highcharts-series-6">
            <path fill="none" d="M8 74h16" class="highcharts-graph" stroke="#ff8028" stroke-width="2"/>
            <text x="21" y="15" color="#333" font-weight="400" cursor="pointer" fill="#333" transform="translate(8 63)">
                <tspan>Spielzeug Welten Museum</tspan>
            </text>
        </g>
    </g>
    <g class="highcharts-axis-labels highcharts-xaxis-labels" text-anchor="middle" color="#000" cursor="default" font-size="11">
        <text x="73.971" y="367">
            2006
        </text>
        <text x="118.088" y="367">
            2007
        </text>
        <text x="162.206" y="367">
            2008
        </text>
        <text x="206.324" y="367">
            2009
        </text>
        <text x="250.441" y="367">
            2010
        </text>
        <text x="294.559" y="367">
            2011
        </text>
        <text x="338.676" y="367">
            2012
        </text>
        <text x="382.794" y="367">
            2013
        </text>
        <text x="426.912" y="367">
            2014
        </text>
        <text x="461.765" style="width:26.470588235290563" y="367" text-overflow="ellipsis">
            <tspan>20…</tspan><title>2015</title>
        </text>
    </g>
    <g class="highcharts-axis-labels highcharts-yaxis-labels" text-anchor="end" color="#000" cursor="default" font-size="11">
        <text x="55" style="width:150px" y="352">
            <tspan>0</tspan>
        </text>
        <text x="55" style="width:150px" y="285">
            <tspan>250 000</tspan>
        </text>
        <text x="55" style="width:150px" y="219">
            <tspan>500 000</tspan>
        </text>
        <text x="55" style="width:150px" y="152">
            <tspan>750 000</tspan>
        </text>
    </g>
    <text x="10" class="highcharts-credits" y="400" cursor="default" color="#000" font-size="10">
        <tspan>Quelle: Präsidialdepartement des Kantons Basel-Stadt, Abteilung Kultur</tspan>
    </text>
</svg>
