<?xml version="1.0" standalone="no"?><!DOCTYPE svg PUBLIC "-//W3C//DTD SVG 1.1//EN" "http://www.w3.org/Graphics/SVG/1.1/DTD/svg11.dtd"><svg xmlns:xlink="http://www.w3.org/1999/xlink" version="1.1" class="highcharts-root" style="font-family:Arial;font-size:12px;" xmlns="http://www.w3.org/2000/svg" width="485" height="415"><desc>Created with Highcharts 5.0.7</desc><defs><clipPath id="highcharts-o2xzx9f-1"><rect x="0" y="0" width="423" height="291" fill="none"></rect></clipPath></defs><rect fill="#fbfbfb" class="highcharts-background" x="0" y="0" width="485" height="415" rx="0" ry="0"></rect><rect fill="none" class="highcharts-plot-background" x="52" y="58" width="423" height="291"></rect><g class="highcharts-grid highcharts-xaxis-grid "><path fill="none" class="highcharts-grid-line" d="M 86.5 58 L 86.5 349" opacity="1"></path><path fill="none" class="highcharts-grid-line" d="M 122.5 58 L 122.5 349" opacity="1"></path><path fill="none" class="highcharts-grid-line" d="M 157.5 58 L 157.5 349" opacity="1"></path><path fill="none" class="highcharts-grid-line" d="M 192.5 58 L 192.5 349" opacity="1"></path><path fill="none" class="highcharts-grid-line" d="M 227.5 58 L 227.5 349" opacity="1"></path><path fill="none" class="highcharts-grid-line" d="M 263.5 58 L 263.5 349" opacity="1"></path><path fill="none" class="highcharts-grid-line" d="M 298.5 58 L 298.5 349" opacity="1"></path><path fill="none" class="highcharts-grid-line" d="M 333.5 58 L 333.5 349" opacity="1"></path><path fill="none" class="highcharts-grid-line" d="M 368.5 58 L 368.5 349" opacity="1"></path><path fill="none" class="highcharts-grid-line" d="M 404.5 58 L 404.5 349" opacity="1"></path><path fill="none" class="highcharts-grid-line" d="M 439.5 58 L 439.5 349" opacity="1"></path><path fill="none" class="highcharts-grid-line" d="M 474.5 58 L 474.5 349" opacity="1"></path><path fill="none" class="highcharts-grid-line" d="M 51.5 58 L 51.5 349" opacity="1"></path></g><g class="highcharts-grid highcharts-yaxis-grid "><path fill="none" stroke="#e6e6e6" stroke-width="1" class="highcharts-grid-line" d="M 52 349.5 L 475 349.5" opacity="1"></path><path fill="none" stroke="#e6e6e6" stroke-width="1" class="highcharts-grid-line" d="M 52 276.5 L 475 276.5" opacity="1"></path><path fill="none" stroke="#e6e6e6" stroke-width="1" class="highcharts-grid-line" d="M 52 204.5 L 475 204.5" opacity="1"></path><path fill="none" stroke="#e6e6e6" stroke-width="1" class="highcharts-grid-line" d="M 52 131.5 L 475 131.5" opacity="1"></path><path fill="none" stroke="#e6e6e6" stroke-width="1" class="highcharts-grid-line" d="M 52 57.5 L 475 57.5" opacity="1"></path></g><rect fill="none" class="highcharts-plot-border" x="52" y="58" width="423" height="291"></rect><g class="highcharts-axis highcharts-xaxis "><path fill="none" class="highcharts-axis-line" stroke="#ccd6eb" stroke-width="1" d="M 52 349.5 L 475 349.5"></path></g><g class="highcharts-axis highcharts-yaxis "><path fill="none" class="highcharts-axis-line" d="M 52 58 L 52 349"></path></g><g class="highcharts-series-group"><g class="highcharts-series highcharts-series-0 highcharts-line-series highcharts-color-undefined " transform="translate(52,58) scale(1 1)" clip-path="url(#highcharts-o2xzx9f-1)"><path fill="none" d="M 17.625 120.32850000000002 L 52.875 124.9845 L 88.125 121.4925 L 123.375 115.16325 L 158.625 94.28400000000002 L 193.875 124.18425000000002 L 229.125 114.79950000000002 L 264.375 95.22975000000002 L 299.625 90.86475000000002 M 370.125 67.43925000000002 L 405.375 19.133250000000032" class="highcharts-graph" stroke="#008AC3" stroke-width="2" stroke-linejoin="round" stroke-linecap="round"></path><path fill="none" d="M 7.625 120.32850000000002 L 17.625 120.32850000000002 L 52.875 124.9845 L 88.125 121.4925 L 123.375 115.16325 L 158.625 94.28400000000002 L 193.875 124.18425000000002 L 229.125 114.79950000000002 L 264.375 95.22975000000002 L 299.625 90.86475000000002 L 309.625 90.86475000000002 M 360.125 67.43925000000002 L 370.125 67.43925000000002 L 405.375 19.133250000000032 L 415.375 19.133250000000032" stroke-linejoin="round" visibility="visible" stroke="rgba(192,192,192,0.0001)" stroke-width="22" class="highcharts-tracker"></path></g><g class="highcharts-markers highcharts-series-0 highcharts-line-series highcharts-color-undefined highcharts-tracker" transform="translate(52,58) scale(1 1)" clip-path="none"><path fill="#008AC3" d="M 21 120 A 4 4 0 1 1 20.99999800000017 119.99600000066667 Z" class="highcharts-point"></path><path fill="#008AC3" d="M 56 125 A 4 4 0 1 1 55.99999800000017 124.99600000066667 Z" class="highcharts-point"></path><path fill="#008AC3" d="M 92 121 A 4 4 0 1 1 91.99999800000016 120.99600000066667 Z" class="highcharts-point"></path><path fill="#008AC3" d="M 127 115 A 4 4 0 1 1 126.99999800000016 114.99600000066667 Z" class="highcharts-point"></path><path fill="#008AC3" d="M 162 94 A 4 4 0 1 1 161.99999800000018 93.99600000066667 Z" class="highcharts-point"></path><path fill="#008AC3" d="M 197 124 A 4 4 0 1 1 196.99999800000018 123.99600000066667 Z" class="highcharts-point"></path><path fill="#008AC3" d="M 233 115 A 4 4 0 1 1 232.99999800000018 114.99600000066667 Z" class="highcharts-point"></path><path fill="#008AC3" d="M 268 95 A 4 4 0 1 1 267.9999980000002 94.99600000066667 Z" class="highcharts-point"></path><path fill="#008AC3" d="M 303 91 A 4 4 0 1 1 302.9999980000002 90.99600000066667 Z" class="highcharts-point"></path><path fill="#008AC3" d="M 374 67 A 4 4 0 1 1 373.9999980000002 66.99600000066667 Z" class="highcharts-point"></path><path fill="#008AC3" d="M 409 19 A 4 4 0 1 1 408.9999980000002 18.996000000666665 Z" class="highcharts-point"></path></g><g class="highcharts-series highcharts-series-1 highcharts-line-series highcharts-color-undefined " transform="translate(52,58) scale(1 1)" clip-path="url(#highcharts-o2xzx9f-1)"><path fill="none" d="M 17.625 158.52225 L 52.875 143.09925 L 88.125 153.42975 L 123.375 157.35825 L 158.625 148.77375 L 193.875 140.33475 L 229.125 142.66275000000002 L 264.375 134.733 L 299.625 132.8415 L 334.875 123.52950000000001 L 370.125 124.839 L 405.375 115.09050000000002" class="highcharts-graph" stroke="#689199" stroke-width="2" stroke-linejoin="round" stroke-linecap="round"></path><path fill="none" d="M 7.625 158.52225 L 17.625 158.52225 L 52.875 143.09925 L 88.125 153.42975 L 123.375 157.35825 L 158.625 148.77375 L 193.875 140.33475 L 229.125 142.66275000000002 L 264.375 134.733 L 299.625 132.8415 L 334.875 123.52950000000001 L 370.125 124.839 L 405.375 115.09050000000002 L 415.375 115.09050000000002" stroke-linejoin="round" visibility="visible" stroke="rgba(192,192,192,0.0001)" stroke-width="22" class="highcharts-tracker"></path></g><g class="highcharts-markers highcharts-series-1 highcharts-line-series highcharts-color-undefined highcharts-tracker" transform="translate(52,58) scale(1 1)" clip-path="none"><path fill="#689199" d="M 21 159 A 4 4 0 1 1 20.99999800000017 158.99600000066667 Z" class="highcharts-point"></path><path fill="#689199" d="M 56 143 A 4 4 0 1 1 55.99999800000017 142.99600000066667 Z" class="highcharts-point"></path><path fill="#689199" d="M 92 153 A 4 4 0 1 1 91.99999800000016 152.99600000066667 Z" class="highcharts-point"></path><path fill="#689199" d="M 127 157 A 4 4 0 1 1 126.99999800000016 156.99600000066667 Z" class="highcharts-point"></path><path fill="#689199" d="M 162 149 A 4 4 0 1 1 161.99999800000018 148.99600000066667 Z" class="highcharts-point"></path><path fill="#689199" d="M 197 140 A 4 4 0 1 1 196.99999800000018 139.99600000066667 Z" class="highcharts-point"></path><path fill="#689199" d="M 233 143 A 4 4 0 1 1 232.99999800000018 142.99600000066667 Z" class="highcharts-point"></path><path fill="#689199" d="M 268 135 A 4 4 0 1 1 267.9999980000002 134.99600000066667 Z" class="highcharts-point"></path><path fill="#689199" d="M 303 133 A 4 4 0 1 1 302.9999980000002 132.99600000066667 Z" class="highcharts-point"></path><path fill="#689199" d="M 338 124 A 4 4 0 1 1 337.9999980000002 123.99600000066667 Z" class="highcharts-point"></path><path fill="#689199" d="M 374 125 A 4 4 0 1 1 373.9999980000002 124.99600000066667 Z" class="highcharts-point"></path><path fill="#689199" d="M 409 115 A 4 4 0 1 1 408.9999980000002 114.99600000066667 Z" class="highcharts-point"></path></g><g class="highcharts-series highcharts-series-2 highcharts-line-series highcharts-color-undefined " transform="translate(52,58) scale(1 1)" clip-path="url(#highcharts-o2xzx9f-1)"><path fill="none" d="M 17.625 195.33375 L 52.875 188.78625 L 88.125 190.02300000000002 L 123.375 191.55075 L 158.625 185.14875 L 193.875 181.51125000000002 L 229.125 177.51 L 264.375 169.72575 L 299.625 177.801 L 334.875 162.37800000000001 L 370.125 158.886 L 405.375 163.83300000000003" class="highcharts-graph" stroke="#68AB2B" stroke-width="2" stroke-linejoin="round" stroke-linecap="round"></path><path fill="none" d="M 7.625 195.33375 L 17.625 195.33375 L 52.875 188.78625 L 88.125 190.02300000000002 L 123.375 191.55075 L 158.625 185.14875 L 193.875 181.51125000000002 L 229.125 177.51 L 264.375 169.72575 L 299.625 177.801 L 334.875 162.37800000000001 L 370.125 158.886 L 405.375 163.83300000000003 L 415.375 163.83300000000003" stroke-linejoin="round" visibility="visible" stroke="rgba(192,192,192,0.0001)" stroke-width="22" class="highcharts-tracker"></path></g><g class="highcharts-markers highcharts-series-2 highcharts-line-series highcharts-color-undefined highcharts-tracker" transform="translate(52,58) scale(1 1)" clip-path="none"><path fill="#68AB2B" d="M 21 195 A 4 4 0 1 1 20.99999800000017 194.99600000066667 Z" class="highcharts-point"></path><path fill="#68AB2B" d="M 56 189 A 4 4 0 1 1 55.99999800000017 188.99600000066667 Z" class="highcharts-point"></path><path fill="#68AB2B" d="M 92 190 A 4 4 0 1 1 91.99999800000016 189.99600000066667 Z" class="highcharts-point"></path><path fill="#68AB2B" d="M 127 192 A 4 4 0 1 1 126.99999800000016 191.99600000066667 Z" class="highcharts-point"></path><path fill="#68AB2B" d="M 162 185 A 4 4 0 1 1 161.99999800000018 184.99600000066667 Z" class="highcharts-point"></path><path fill="#68AB2B" d="M 197 182 A 4 4 0 1 1 196.99999800000018 181.99600000066667 Z" class="highcharts-point"></path><path fill="#68AB2B" d="M 233 178 A 4 4 0 1 1 232.99999800000018 177.99600000066667 Z" class="highcharts-point"></path><path fill="#68AB2B" d="M 268 170 A 4 4 0 1 1 267.9999980000002 169.99600000066667 Z" class="highcharts-point"></path><path fill="#68AB2B" d="M 303 178 A 4 4 0 1 1 302.9999980000002 177.99600000066667 Z" class="highcharts-point"></path><path fill="#68AB2B" d="M 338 162 A 4 4 0 1 1 337.9999980000002 161.99600000066667 Z" class="highcharts-point"></path><path fill="#68AB2B" d="M 374 159 A 4 4 0 1 1 373.9999980000002 158.99600000066667 Z" class="highcharts-point"></path><path fill="#68AB2B" d="M 409 164 A 4 4 0 1 1 408.9999980000002 163.99600000066667 Z" class="highcharts-point"></path></g><g class="highcharts-series highcharts-series-3 highcharts-line-series highcharts-color-undefined " transform="translate(52,58) scale(1 1)" clip-path="url(#highcharts-o2xzx9f-1)"><path fill="none" d="M 17.625 221.74200000000002 L 52.875 218.68650000000002 L 88.125 220.79625 L 123.375 214.39425 L 158.625 215.7765 L 193.875 206.02800000000002 L 229.125 208.28325 L 264.375 207.3375 L 299.625 202.3905 L 334.875 203.118 L 370.125 192.42375 L 405.375 185.8035" class="highcharts-graph" stroke="#933F8D" stroke-width="2" stroke-linejoin="round" stroke-linecap="round"></path><path fill="none" d="M 7.625 221.74200000000002 L 17.625 221.74200000000002 L 52.875 218.68650000000002 L 88.125 220.79625 L 123.375 214.39425 L 158.625 215.7765 L 193.875 206.02800000000002 L 229.125 208.28325 L 264.375 207.3375 L 299.625 202.3905 L 334.875 203.118 L 370.125 192.42375 L 405.375 185.8035 L 415.375 185.8035" stroke-linejoin="round" visibility="visible" stroke="rgba(192,192,192,0.0001)" stroke-width="22" class="highcharts-tracker"></path></g><g class="highcharts-markers highcharts-series-3 highcharts-line-series highcharts-color-undefined highcharts-tracker" transform="translate(52,58) scale(1 1)" clip-path="none"><path fill="#933F8D" d="M 21 222 A 4 4 0 1 1 20.99999800000017 221.99600000066667 Z" class="highcharts-point"></path><path fill="#933F8D" d="M 56 219 A 4 4 0 1 1 55.99999800000017 218.99600000066667 Z" class="highcharts-point"></path><path fill="#933F8D" d="M 92 221 A 4 4 0 1 1 91.99999800000016 220.99600000066667 Z" class="highcharts-point"></path><path fill="#933F8D" d="M 127 214 A 4 4 0 1 1 126.99999800000016 213.99600000066667 Z" class="highcharts-point"></path><path fill="#933F8D" d="M 162 216 A 4 4 0 1 1 161.99999800000018 215.99600000066667 Z" class="highcharts-point"></path><path fill="#933F8D" d="M 197 206 A 4 4 0 1 1 196.99999800000018 205.99600000066667 Z" class="highcharts-point"></path><path fill="#933F8D" d="M 233 208 A 4 4 0 1 1 232.99999800000018 207.99600000066667 Z" class="highcharts-point"></path><path fill="#933F8D" d="M 268 207 A 4 4 0 1 1 267.9999980000002 206.99600000066667 Z" class="highcharts-point"></path><path fill="#933F8D" d="M 303 202 A 4 4 0 1 1 302.9999980000002 201.99600000066667 Z" class="highcharts-point"></path><path fill="#933F8D" d="M 338 203 A 4 4 0 1 1 337.9999980000002 202.99600000066667 Z" class="highcharts-point"></path><path fill="#933F8D" d="M 374 192 A 4 4 0 1 1 373.9999980000002 191.99600000066667 Z" class="highcharts-point"></path><path fill="#933F8D" d="M 409 186 A 4 4 0 1 1 408.9999980000002 185.99600000066667 Z" class="highcharts-point"></path></g><g class="highcharts-series highcharts-series-4 highcharts-line-series highcharts-color-undefined " transform="translate(52,58) scale(1 1)" clip-path="url(#highcharts-o2xzx9f-1)"><path fill="none" d="M 17.625 246.98625 L 52.875 247.059 L 88.125 247.93200000000002 L 123.375 245.313 L 158.625 241.16625 L 193.875 227.78025 L 229.125 231.85425 L 264.375 225.0885 L 299.625 233.01825 L 334.875 235.49175 L 370.125 217.15875 L 405.375 222.615" class="highcharts-graph" stroke="#DC440E" stroke-width="2" stroke-linejoin="round" stroke-linecap="round"></path><path fill="none" d="M 7.625 246.98625 L 17.625 246.98625 L 52.875 247.059 L 88.125 247.93200000000002 L 123.375 245.313 L 158.625 241.16625 L 193.875 227.78025 L 229.125 231.85425 L 264.375 225.0885 L 299.625 233.01825 L 334.875 235.49175 L 370.125 217.15875 L 405.375 222.615 L 415.375 222.615" stroke-linejoin="round" visibility="visible" stroke="rgba(192,192,192,0.0001)" stroke-width="22" class="highcharts-tracker"></path></g><g class="highcharts-markers highcharts-series-4 highcharts-line-series highcharts-color-undefined highcharts-tracker" transform="translate(52,58) scale(1 1)" clip-path="none"><path fill="#DC440E" d="M 21 247 A 4 4 0 1 1 20.99999800000017 246.99600000066667 Z" class="highcharts-point"></path><path fill="#DC440E" d="M 56 247 A 4 4 0 1 1 55.99999800000017 246.99600000066667 Z" class="highcharts-point"></path><path fill="#DC440E" d="M 92 248 A 4 4 0 1 1 91.99999800000016 247.99600000066667 Z" class="highcharts-point"></path><path fill="#DC440E" d="M 127 245 A 4 4 0 1 1 126.99999800000016 244.99600000066667 Z" class="highcharts-point"></path><path fill="#DC440E" d="M 162 241 A 4 4 0 1 1 161.99999800000018 240.99600000066667 Z" class="highcharts-point"></path><path fill="#DC440E" d="M 197 228 A 4 4 0 1 1 196.99999800000018 227.99600000066667 Z" class="highcharts-point"></path><path fill="#DC440E" d="M 233 232 A 4 4 0 1 1 232.99999800000018 231.99600000066667 Z" class="highcharts-point"></path><path fill="#DC440E" d="M 268 225 A 4 4 0 1 1 267.9999980000002 224.99600000066667 Z" class="highcharts-point"></path><path fill="#DC440E" d="M 303 233 A 4 4 0 1 1 302.9999980000002 232.99600000066667 Z" class="highcharts-point"></path><path fill="#DC440E" d="M 338 235 A 4 4 0 1 1 337.9999980000002 234.99600000066667 Z" class="highcharts-point"></path><path fill="#DC440E" d="M 374 217 A 4 4 0 1 1 373.9999980000002 216.99600000066667 Z" class="highcharts-point"></path><path fill="#DC440E" d="M 409 223 A 4 4 0 1 1 408.9999980000002 222.99600000066667 Z" class="highcharts-point"></path></g></g><text x="10" text-anchor="start" class="highcharts-title" style="color:#000000;font-size:14px;font-weight:bold;fill:#000000;" y="21"><tspan>I.09.4.0003 Mietpreisentwicklung der Leerwohnungen nach</tspan><tspan dy="17" x="10">Zimmerzahl</tspan><title>I.09.4.0003 Mietpreisentwicklung der Leerwohnungen nach Zimmerzahl</title></text><g class="highcharts-data-labels highcharts-series-0 highcharts-line-series highcharts-color-undefined " transform="translate(52,58) scale(1 1)" opacity="1"><g class="highcharts-label highcharts-data-label highcharts-data-label-color-undefined " transform="translate(13,110)"><text x="5" style="font-size:11px;font-weight:bold;color:#000000;text-outline:1px contrast;fill:#000000;" y="16"></text></g><g class="highcharts-label highcharts-data-label highcharts-data-label-color-undefined " transform="translate(48,115)"><text x="5" style="font-size:11px;font-weight:bold;color:#000000;text-outline:1px contrast;fill:#000000;" y="16"></text></g><g class="highcharts-label highcharts-data-label highcharts-data-label-color-undefined " transform="translate(83,111)"><text x="5" style="font-size:11px;font-weight:bold;color:#000000;text-outline:1px contrast;fill:#000000;" y="16"></text></g><g class="highcharts-label highcharts-data-label highcharts-data-label-color-undefined " transform="translate(118,105)"><text x="5" style="font-size:11px;font-weight:bold;color:#000000;text-outline:1px contrast;fill:#000000;" y="16"></text></g><g class="highcharts-label highcharts-data-label highcharts-data-label-color-undefined " transform="translate(154,84)"><text x="5" style="font-size:11px;font-weight:bold;color:#000000;text-outline:1px contrast;fill:#000000;" y="16"></text></g><g class="highcharts-label highcharts-data-label highcharts-data-label-color-undefined " transform="translate(189,114)"><text x="5" style="font-size:11px;font-weight:bold;color:#000000;text-outline:1px contrast;fill:#000000;" y="16"></text></g><g class="highcharts-label highcharts-data-label highcharts-data-label-color-undefined " transform="translate(224,105)"><text x="5" style="font-size:11px;font-weight:bold;color:#000000;text-outline:1px contrast;fill:#000000;" y="16"></text></g><g class="highcharts-label highcharts-data-label highcharts-data-label-color-undefined " transform="translate(259,85)"><text x="5" style="font-size:11px;font-weight:bold;color:#000000;text-outline:1px contrast;fill:#000000;" y="16"></text></g><g class="highcharts-label highcharts-data-label highcharts-data-label-color-undefined " transform="translate(295,81)"><text x="5" style="font-size:11px;font-weight:bold;color:#000000;text-outline:1px contrast;fill:#000000;" y="16"></text></g><g class="highcharts-label highcharts-data-label highcharts-data-label-color-undefined " transform="translate(365,57)"><text x="5" style="font-size:11px;font-weight:bold;color:#000000;text-outline:1px contrast;fill:#000000;" y="16"></text></g><g class="highcharts-label highcharts-data-label highcharts-data-label-color-undefined " transform="translate(368,-4)"><text x="5" style="font-size:11px;font-weight:bold;color:#000000;text-outline:1px contrast;fill:#000000;" y="16"><tspan x="5" y="16" class="highcharts-text-outline" fill="#FFFFFF" stroke="#FFFFFF" stroke-width="2px" stroke-linejoin="round" style="">5-Zimmer</tspan><tspan x="5" y="16">5-Zimmer</tspan></text></g></g><g class="highcharts-data-labels highcharts-series-1 highcharts-line-series highcharts-color-undefined " transform="translate(52,58) scale(1 1)" opacity="1"><g class="highcharts-label highcharts-data-label highcharts-data-label-color-undefined " transform="translate(13,149)"><text x="5" style="font-size:11px;font-weight:bold;color:#000000;text-outline:1px contrast;fill:#000000;" y="16"></text></g><g class="highcharts-label highcharts-data-label highcharts-data-label-color-undefined " transform="translate(48,133)"><text x="5" style="font-size:11px;font-weight:bold;color:#000000;text-outline:1px contrast;fill:#000000;" y="16"></text></g><g class="highcharts-label highcharts-data-label highcharts-data-label-color-undefined " transform="translate(83,143)"><text x="5" style="font-size:11px;font-weight:bold;color:#000000;text-outline:1px contrast;fill:#000000;" y="16"></text></g><g class="highcharts-label highcharts-data-label highcharts-data-label-color-undefined " transform="translate(118,147)"><text x="5" style="font-size:11px;font-weight:bold;color:#000000;text-outline:1px contrast;fill:#000000;" y="16"></text></g><g class="highcharts-label highcharts-data-label highcharts-data-label-color-undefined " transform="translate(154,139)"><text x="5" style="font-size:11px;font-weight:bold;color:#000000;text-outline:1px contrast;fill:#000000;" y="16"></text></g><g class="highcharts-label highcharts-data-label highcharts-data-label-color-undefined " transform="translate(189,130)"><text x="5" style="font-size:11px;font-weight:bold;color:#000000;text-outline:1px contrast;fill:#000000;" y="16"></text></g><g class="highcharts-label highcharts-data-label highcharts-data-label-color-undefined " transform="translate(224,133)"><text x="5" style="font-size:11px;font-weight:bold;color:#000000;text-outline:1px contrast;fill:#000000;" y="16"></text></g><g class="highcharts-label highcharts-data-label highcharts-data-label-color-undefined " transform="translate(259,125)"><text x="5" style="font-size:11px;font-weight:bold;color:#000000;text-outline:1px contrast;fill:#000000;" y="16"></text></g><g class="highcharts-label highcharts-data-label highcharts-data-label-color-undefined " transform="translate(295,123)"><text x="5" style="font-size:11px;font-weight:bold;color:#000000;text-outline:1px contrast;fill:#000000;" y="16"></text></g><g class="highcharts-label highcharts-data-label highcharts-data-label-color-undefined " transform="translate(330,114)"><text x="5" style="font-size:11px;font-weight:bold;color:#000000;text-outline:1px contrast;fill:#000000;" y="16"></text></g><g class="highcharts-label highcharts-data-label highcharts-data-label-color-undefined " transform="translate(365,115)"><text x="5" style="font-size:11px;font-weight:bold;color:#000000;text-outline:1px contrast;fill:#000000;" y="16"></text></g><g class="highcharts-label highcharts-data-label highcharts-data-label-color-undefined " transform="translate(368,92)"><text x="5" style="font-size:11px;font-weight:bold;color:#000000;text-outline:1px contrast;fill:#000000;" y="16"><tspan x="5" y="16" class="highcharts-text-outline" fill="#FFFFFF" stroke="#FFFFFF" stroke-width="2px" stroke-linejoin="round">4-Zimmer</tspan><tspan x="5" y="16">4-Zimmer</tspan></text></g></g><g class="highcharts-data-labels highcharts-series-2 highcharts-line-series highcharts-color-undefined " transform="translate(52,58) scale(1 1)" opacity="1"><g class="highcharts-label highcharts-data-label highcharts-data-label-color-undefined " transform="translate(13,185)"><text x="5" style="font-size:11px;font-weight:bold;color:#000000;text-outline:1px contrast;fill:#000000;" y="16"></text></g><g class="highcharts-label highcharts-data-label highcharts-data-label-color-undefined " transform="translate(48,179)"><text x="5" style="font-size:11px;font-weight:bold;color:#000000;text-outline:1px contrast;fill:#000000;" y="16"></text></g><g class="highcharts-label highcharts-data-label highcharts-data-label-color-undefined " transform="translate(83,180)"><text x="5" style="font-size:11px;font-weight:bold;color:#000000;text-outline:1px contrast;fill:#000000;" y="16"></text></g><g class="highcharts-label highcharts-data-label highcharts-data-label-color-undefined " transform="translate(118,182)"><text x="5" style="font-size:11px;font-weight:bold;color:#000000;text-outline:1px contrast;fill:#000000;" y="16"></text></g><g class="highcharts-label highcharts-data-label highcharts-data-label-color-undefined " transform="translate(154,175)"><text x="5" style="font-size:11px;font-weight:bold;color:#000000;text-outline:1px contrast;fill:#000000;" y="16"></text></g><g class="highcharts-label highcharts-data-label highcharts-data-label-color-undefined " transform="translate(189,172)"><text x="5" style="font-size:11px;font-weight:bold;color:#000000;text-outline:1px contrast;fill:#000000;" y="16"></text></g><g class="highcharts-label highcharts-data-label highcharts-data-label-color-undefined " transform="translate(224,168)"><text x="5" style="font-size:11px;font-weight:bold;color:#000000;text-outline:1px contrast;fill:#000000;" y="16"></text></g><g class="highcharts-label highcharts-data-label highcharts-data-label-color-undefined " transform="translate(259,160)"><text x="5" style="font-size:11px;font-weight:bold;color:#000000;text-outline:1px contrast;fill:#000000;" y="16"></text></g><g class="highcharts-label highcharts-data-label highcharts-data-label-color-undefined " transform="translate(295,168)"><text x="5" style="font-size:11px;font-weight:bold;color:#000000;text-outline:1px contrast;fill:#000000;" y="16"></text></g><g class="highcharts-label highcharts-data-label highcharts-data-label-color-undefined " transform="translate(330,152)"><text x="5" style="font-size:11px;font-weight:bold;color:#000000;text-outline:1px contrast;fill:#000000;" y="16"></text></g><g class="highcharts-label highcharts-data-label highcharts-data-label-color-undefined " transform="translate(365,149)"><text x="5" style="font-size:11px;font-weight:bold;color:#000000;text-outline:1px contrast;fill:#000000;" y="16"></text></g><g class="highcharts-label highcharts-data-label highcharts-data-label-color-undefined " transform="translate(368,141)"><text x="5" style="font-size:11px;font-weight:bold;color:#000000;text-outline:1px contrast;fill:#000000;" y="16"><tspan x="5" y="16" class="highcharts-text-outline" fill="#FFFFFF" stroke="#FFFFFF" stroke-width="2px" stroke-linejoin="round">3-Zimmer</tspan><tspan x="5" y="16">3-Zimmer</tspan></text></g></g><g class="highcharts-data-labels highcharts-series-3 highcharts-line-series highcharts-color-undefined " transform="translate(52,58) scale(1 1)" opacity="1"><g class="highcharts-label highcharts-data-label highcharts-data-label-color-undefined " transform="translate(13,212)"><text x="5" style="font-size:11px;font-weight:bold;color:#000000;text-outline:1px contrast;fill:#000000;" y="16"></text></g><g class="highcharts-label highcharts-data-label highcharts-data-label-color-undefined " transform="translate(48,209)"><text x="5" style="font-size:11px;font-weight:bold;color:#000000;text-outline:1px contrast;fill:#000000;" y="16"></text></g><g class="highcharts-label highcharts-data-label highcharts-data-label-color-undefined " transform="translate(83,211)"><text x="5" style="font-size:11px;font-weight:bold;color:#000000;text-outline:1px contrast;fill:#000000;" y="16"></text></g><g class="highcharts-label highcharts-data-label highcharts-data-label-color-undefined " transform="translate(118,204)"><text x="5" style="font-size:11px;font-weight:bold;color:#000000;text-outline:1px contrast;fill:#000000;" y="16"></text></g><g class="highcharts-label highcharts-data-label highcharts-data-label-color-undefined " transform="translate(154,206)"><text x="5" style="font-size:11px;font-weight:bold;color:#000000;text-outline:1px contrast;fill:#000000;" y="16"></text></g><g class="highcharts-label highcharts-data-label highcharts-data-label-color-undefined " transform="translate(189,196)"><text x="5" style="font-size:11px;font-weight:bold;color:#000000;text-outline:1px contrast;fill:#000000;" y="16"></text></g><g class="highcharts-label highcharts-data-label highcharts-data-label-color-undefined " transform="translate(224,198)"><text x="5" style="font-size:11px;font-weight:bold;color:#000000;text-outline:1px contrast;fill:#000000;" y="16"></text></g><g class="highcharts-label highcharts-data-label highcharts-data-label-color-undefined " transform="translate(259,197)"><text x="5" style="font-size:11px;font-weight:bold;color:#000000;text-outline:1px contrast;fill:#000000;" y="16"></text></g><g class="highcharts-label highcharts-data-label highcharts-data-label-color-undefined " transform="translate(295,192)"><text x="5" style="font-size:11px;font-weight:bold;color:#000000;text-outline:1px contrast;fill:#000000;" y="16"></text></g><g class="highcharts-label highcharts-data-label highcharts-data-label-color-undefined " transform="translate(330,193)"><text x="5" style="font-size:11px;font-weight:bold;color:#000000;text-outline:1px contrast;fill:#000000;" y="16"></text></g><g class="highcharts-label highcharts-data-label highcharts-data-label-color-undefined " transform="translate(365,182)"><text x="5" style="font-size:11px;font-weight:bold;color:#000000;text-outline:1px contrast;fill:#000000;" y="16"></text></g><g class="highcharts-label highcharts-data-label highcharts-data-label-color-undefined " transform="translate(368,163)"><text x="5" style="font-size:11px;font-weight:bold;color:#000000;text-outline:1px contrast;fill:#000000;" y="16"><tspan x="5" y="16" class="highcharts-text-outline" fill="#FFFFFF" stroke="#FFFFFF" stroke-width="2px" stroke-linejoin="round">2-Zimmer</tspan><tspan x="5" y="16">2-Zimmer</tspan></text></g></g><g class="highcharts-data-labels highcharts-series-4 highcharts-line-series highcharts-color-undefined " transform="translate(52,58) scale(1 1)" opacity="1"><g class="highcharts-label highcharts-data-label highcharts-data-label-color-undefined " transform="translate(13,237)"><text x="5" style="font-size:11px;font-weight:bold;color:#000000;text-outline:1px contrast;fill:#000000;" y="16"></text></g><g class="highcharts-label highcharts-data-label highcharts-data-label-color-undefined " transform="translate(48,237)"><text x="5" style="font-size:11px;font-weight:bold;color:#000000;text-outline:1px contrast;fill:#000000;" y="16"></text></g><g class="highcharts-label highcharts-data-label highcharts-data-label-color-undefined " transform="translate(83,238)"><text x="5" style="font-size:11px;font-weight:bold;color:#000000;text-outline:1px contrast;fill:#000000;" y="16"></text></g><g class="highcharts-label highcharts-data-label highcharts-data-label-color-undefined " transform="translate(118,235)"><text x="5" style="font-size:11px;font-weight:bold;color:#000000;text-outline:1px contrast;fill:#000000;" y="16"></text></g><g class="highcharts-label highcharts-data-label highcharts-data-label-color-undefined " transform="translate(154,231)"><text x="5" style="font-size:11px;font-weight:bold;color:#000000;text-outline:1px contrast;fill:#000000;" y="16"></text></g><g class="highcharts-label highcharts-data-label highcharts-data-label-color-undefined " transform="translate(189,218)"><text x="5" style="font-size:11px;font-weight:bold;color:#000000;text-outline:1px contrast;fill:#000000;" y="16"></text></g><g class="highcharts-label highcharts-data-label highcharts-data-label-color-undefined " transform="translate(224,222)"><text x="5" style="font-size:11px;font-weight:bold;color:#000000;text-outline:1px contrast;fill:#000000;" y="16"></text></g><g class="highcharts-label highcharts-data-label highcharts-data-label-color-undefined " transform="translate(259,215)"><text x="5" style="font-size:11px;font-weight:bold;color:#000000;text-outline:1px contrast;fill:#000000;" y="16"></text></g><g class="highcharts-label highcharts-data-label highcharts-data-label-color-undefined " transform="translate(295,223)"><text x="5" style="font-size:11px;font-weight:bold;color:#000000;text-outline:1px contrast;fill:#000000;" y="16"></text></g><g class="highcharts-label highcharts-data-label highcharts-data-label-color-undefined " transform="translate(330,225)"><text x="5" style="font-size:11px;font-weight:bold;color:#000000;text-outline:1px contrast;fill:#000000;" y="16"></text></g><g class="highcharts-label highcharts-data-label highcharts-data-label-color-undefined " transform="translate(365,207)"><text x="5" style="font-size:11px;font-weight:bold;color:#000000;text-outline:1px contrast;fill:#000000;" y="16"></text></g><g class="highcharts-label highcharts-data-label highcharts-data-label-color-undefined " transform="translate(368,200)"><text x="5" style="font-size:11px;font-weight:bold;color:#000000;text-outline:1px contrast;fill:#000000;" y="16"><tspan x="5" y="16" class="highcharts-text-outline" fill="#FFFFFF" stroke="#FFFFFF" stroke-width="2px" stroke-linejoin="round">1-Zimmer</tspan><tspan x="5" y="16">1-Zimmer</tspan></text></g></g><g class="highcharts-axis-labels highcharts-xaxis-labels "><text x="69.625" style="color:#000000;cursor:default;font-size:11px;fill:#000000;" text-anchor="middle" transform="translate(0,0)" y="368" opacity="1">2005</text><text x="104.875" style="color:#000000;cursor:default;font-size:11px;fill:#000000;" text-anchor="middle" transform="translate(0,0)" y="368" opacity="1">2006</text><text x="140.125" style="color:#000000;cursor:default;font-size:11px;fill:#000000;" text-anchor="middle" transform="translate(0,0)" y="368" opacity="1">2007</text><text x="175.375" style="color:#000000;cursor:default;font-size:11px;fill:#000000;" text-anchor="middle" transform="translate(0,0)" y="368" opacity="1">2008</text><text x="210.625" style="color:#000000;cursor:default;font-size:11px;fill:#000000;" text-anchor="middle" transform="translate(0,0)" y="368" opacity="1">2009</text><text x="245.875" style="color:#000000;cursor:default;font-size:11px;fill:#000000;" text-anchor="middle" transform="translate(0,0)" y="368" opacity="1">2010</text><text x="281.125" style="color:#000000;cursor:default;font-size:11px;fill:#000000;" text-anchor="middle" transform="translate(0,0)" y="368" opacity="1">2011</text><text x="316.375" style="color:#000000;cursor:default;font-size:11px;fill:#000000;" text-anchor="middle" transform="translate(0,0)" y="368" opacity="1">2012</text><text x="351.625" style="color:#000000;cursor:default;font-size:11px;fill:#000000;" text-anchor="middle" transform="translate(0,0)" y="368" opacity="1">2013</text><text x="386.875" style="color:#000000;cursor:default;font-size:11px;fill:#000000;" text-anchor="middle" transform="translate(0,0)" y="368" opacity="1">2014</text><text x="422.125" style="color:#000000;cursor:default;font-size:11px;fill:#000000;" text-anchor="middle" transform="translate(0,0)" y="368" opacity="1">2015</text><text x="457.375" style="color:#000000;cursor:default;font-size:11px;fill:#000000;" text-anchor="middle" transform="translate(0,0)" y="368" opacity="1">2016</text></g><g class="highcharts-axis-labels highcharts-yaxis-labels "><text x="37" style="color:#000000;cursor:default;font-size:11px;fill:#000000;" text-anchor="end" transform="translate(0,0)" y="354" opacity="1"><tspan>0</tspan></text><text x="37" style="color:#000000;cursor:default;font-size:11px;fill:#000000;" text-anchor="end" transform="translate(0,0)" y="281" opacity="1"><tspan>1 000</tspan></text><text x="37" style="color:#000000;cursor:default;font-size:11px;fill:#000000;" text-anchor="end" transform="translate(0,0)" y="208" opacity="1"><tspan>2 000</tspan></text><text x="37" style="color:#000000;cursor:default;font-size:11px;fill:#000000;" text-anchor="end" transform="translate(0,0)" y="135" opacity="1"><tspan>3 000</tspan></text><text x="37" style="color:#000000;cursor:default;font-size:11px;fill:#000000;" text-anchor="end" transform="translate(0,0)" y="63" opacity="1"><tspan>4 000</tspan></text></g><text x="10" class="highcharts-credits" text-anchor="start" style="cursor:default;color:#000000;font-size:10px;fill:#000000;" y="400"><tspan>Quelle: Statistisches Amt Basel-Stadt, Leerstandserhebung</tspan></text></svg>