<svg class="highcharts-root" xmlns="http://www.w3.org/2000/svg" viewBox="0 0 485 415" font-family="Arial" font-size="12">
    <defs>
        <clipPath id="a">
            <path fill="none" d="M0 0h433v172H0z"/>
        </clipPath>
    </defs>
    <rect fill="#fbfbfb" class="highcharts-background" width="485" height="415" rx="0" ry="0"/>
    <path fill="none" class="highcharts-plot-background" d="M42 163h433v172H42z"/>
    <g class="highcharts-grid highcharts-xaxis-grid">
        <path fill="none" class="highcharts-grid-line" d="M128.5 163v172m86-172v172m87-172v172m86-172v172m87-172v172m-433-172v172"/>
    </g>
    <g class="highcharts-grid highcharts-yaxis-grid">
        <path fill="none" stroke="#e6e6e6" class="highcharts-grid-line" d="M42 335.5h433m-433-57h433m-433-58h433m-433-58h433"/>
    </g>
    <path fill="none" class="highcharts-plot-border" d="M42 163h433v172H42z"/>
    <g class="highcharts-axis highcharts-xaxis">
        <path fill="none" class="highcharts-tick" stroke="#FFF" d="M128.5 335v10m86-10v10m87-10v10m86-10v10m88-10v10m-434-10v10"/>
        <path fill="none" class="highcharts-axis-line" stroke="#ccd6eb" d="M42 335.5h433"/>
    </g>
    <g class="highcharts-axis highcharts-yaxis">
        <path fill="none" class="highcharts-axis-line" d="M42 163v172"/>
    </g>
    <g class="highcharts-series-group">
        <g class="highcharts-series highcharts-series-0 highcharts-column-series highcharts-color-undefined highcharts-tracker" transform="translate(42 163)" clip-path="url(#a)">
            <path fill="#b00000" class="highcharts-point" stroke="#fff" d="M17.5 120.5h9v52h-9zm87-77h9v129h-9zm87 87h9v42h-9zm86 26h9v16h-9zm87-237h9v253h-9z"/>
        </g>
        <g class="highcharts-series highcharts-series-1 highcharts-column-series highcharts-color-undefined highcharts-tracker" transform="translate(42 163)" clip-path="url(#a)">
            <path fill="#4f81bd" class="highcharts-point" stroke="#fff" d="M28.5 143.5h9v29h-9zm86-53h9v82h-9zm87 33h9v49h-9zm87 27h9v22h-9zm86-179h9v201h-9z"/>
        </g>
        <g class="highcharts-series highcharts-series-2 highcharts-column-series highcharts-color-undefined highcharts-tracker" transform="translate(42 163)" clip-path="url(#a)">
            <path fill="#9A86A6" class="highcharts-point" stroke="#fff" d="M38.5 154.5h9v18h-9zm87 6h9v12h-9zm86-87h9v99h-9zm87 84h9v15h-9zm87-165h9v180h-9z"/>
        </g>
        <g class="highcharts-series highcharts-series-3 highcharts-column-series highcharts-color-undefined highcharts-tracker" transform="translate(42 163)" clip-path="url(#a)">
            <path fill="#9bbb59" class="highcharts-point" stroke="#fff" d="M49.5-114.5h9v287h-9zm86-286h9v573h-9zm87-287h9v860h-9zm86-287h9v1147h-9zm87-196h9v1343h-9z"/>
        </g>
        <g class="highcharts-series highcharts-series-4 highcharts-column-series highcharts-color-undefined highcharts-tracker" transform="translate(42 163)" clip-path="url(#a)">
            <path fill="#FABD24" class="highcharts-point" stroke="#fff" d="M59.5-1170.5h9v1343h-9zm87 0h9v1343h-9zm86 0h9v1343h-9zm87 0h9v1343h-9zm86 0h9v1343h-9z"/>
        </g>
    </g>
    <text x="10" class="highcharts-title" style="width:421px" y="21" color="#000" font-size="14" font-weight="700">
        <tspan>I.04.1.0013 Transnationale Patentanmeldungen pro</tspan><tspan dy="17" x="10">1000 Einwohner 2005 bis 2009</tspan><title>I.04.1.0013 Transnationale Patentanmeldungen pro 1000 Einwohner 2005 bis 2009</title>
    </text>
    <text x="10" class="highcharts-subtitle" style="width:421px" y="59" color="#000" font-weight="400">
        <tspan>nach ausgewählten Wirtschaftsbranchen</tspan>
    </text>
    <g class="highcharts-legend" transform="translate(35 65)">
        <rect fill="none" class="highcharts-legend-box" rx="0" ry="0" width="296" height="86"/>
        <g class="highcharts-legend-item highcharts-column-series highcharts-color-undefined highcharts-series-0">
            <text x="21" y="15" color="#333" font-weight="400" cursor="pointer" fill="#333" transform="translate(8 3)">
                Basel-Stadt
            </text>
            <path fill="#b00000" class="highcharts-point" d="M10 7h12v12H10z"/>
        </g>
        <g class="highcharts-legend-item highcharts-column-series highcharts-color-undefined highcharts-series-1">
            <text x="21" y="15" color="#333" font-weight="400" cursor="pointer" fill="#333" transform="translate(8 18)">
                Basel-Landschaft
            </text>
            <path fill="#4f81bd" class="highcharts-point" d="M10 22h12v12H10z"/>
        </g>
        <g class="highcharts-legend-item highcharts-column-series highcharts-color-undefined highcharts-series-2">
            <text x="21" y="15" color="#333" font-weight="400" cursor="pointer" fill="#333" transform="translate(8 33)">
                Zürich
            </text>
            <path fill="#9A86A6" class="highcharts-point" d="M10 37h12v12H10z"/>
        </g>
        <g class="highcharts-legend-item highcharts-column-series highcharts-color-undefined highcharts-series-3">
            <text x="21" y="15" color="#333" font-weight="400" cursor="pointer" fill="#333" transform="translate(8 48)">
                sortierung
            </text>
            <path fill="#9bbb59" class="highcharts-point" d="M10 52h12v12H10z"/>
        </g>
        <g class="highcharts-legend-item highcharts-column-series highcharts-color-undefined highcharts-series-4">
            <text x="21" y="15" color="#333" font-weight="400" cursor="pointer" fill="#333" transform="translate(8 63)">
                MW_Einw_BS
            </text>
            <path fill="#FABD24" class="highcharts-point" d="M10 67h12v12H10z"/>
        </g>
    </g>
    <g class="highcharts-axis-labels highcharts-xaxis-labels" text-anchor="middle" color="#000" cursor="default" font-size="11">
        <text x="85.3" style="width:77px" y="354">
            <tspan>Chemische</tspan><tspan dy="14" x="85.3">Industrie</tspan><title>Chemische Industrie</title>
        </text>
        <text x="171.9" style="width:86.6" y="354" text-overflow="ellipsis">
            <tspan>Pharmazeuti…</tspan><title>Pharmazeutische Industrie</title>
        </text>
        <text x="258.5" style="width:77px" y="354">
            <tspan>Elektronik.</tspan><tspan dy="14" x="258.5">Optik und</tspan><tspan dy="14" x="258.5">Maschinenbau</tspan><title>Elektronik. Optik und Maschinenbau</title>
        </text>
        <text x="345.1" style="width:86.6" y="354" text-overflow="ellipsis">
            <tspan>Medizinaltec…</tspan><title>Medizinaltechnik</title>
        </text>
        <text x="431.7" style="width:77px" y="354">
            <tspan>Total</tspan>
        </text>
    </g>
    <g class="highcharts-axis-labels highcharts-yaxis-labels" text-anchor="end" color="#000" cursor="default" font-size="11">
        <text x="27" style="width:150px" y="339">
            <tspan>0</tspan>
        </text>
        <text x="27" style="width:150px" y="282">
            <tspan>0.2</tspan>
        </text>
        <text x="27" style="width:150px" y="224">
            <tspan>0.4</tspan>
        </text>
        <text x="27" style="width:150px" y="167">
            <tspan>0.6</tspan>
        </text>
    </g>
    <text x="10" class="highcharts-credits" y="400" cursor="default" color="#000" font-size="10">
        <tspan>Quelle: BAK Basel Economics</tspan>
    </text>
</svg>
