<svg class="highcharts-root" xmlns="http://www.w3.org/2000/svg" viewBox="0 0 485 415" font-family="Arial" font-size="12">
    <defs>
        <clipPath id="a">
            <path fill="none" d="M0 0h419v201H0z"/>
        </clipPath>
    </defs>
    <rect fill="#fbfbfb" class="highcharts-background" width="485" height="415" rx="0" ry="0"/>
    <path fill="none" class="highcharts-plot-background" d="M56 133h419v201H56z"/>
    <g class="highcharts-grid highcharts-xaxis-grid">
        <path fill="none" class="highcharts-grid-line" d="M139.5 133v201m84-201v201m83-201v201m84-201v201m84-201v201m-419-201v201"/>
    </g>
    <g class="highcharts-grid highcharts-yaxis-grid">
        <path fill="none" stroke="#e6e6e6" class="highcharts-grid-line" d="M56 334.5h419m-419-50h419m-419-50h419m-419-51h419m-419-50h419"/>
    </g>
    <path fill="none" class="highcharts-plot-border" d="M56 133h419v201H56z"/>
    <g class="highcharts-axis highcharts-xaxis">
        <path fill="none" class="highcharts-axis-line" stroke="#ccd6eb" d="M56 334.5h419"/>
    </g>
    <g class="highcharts-axis highcharts-yaxis">
        <path fill="none" class="highcharts-axis-line" d="M56 133v201"/>
    </g>
    <g class="highcharts-series-group">
        <g class="highcharts-series highcharts-series-0 highcharts-column-series highcharts-color-undefined highcharts-tracker" transform="translate(56 133)" clip-path="url(#a)">
            <path fill="#b475ab" class="highcharts-point" stroke="#fff" d="M17.5 101.5h14v100h-14zm84 85h14v15h-14zm84-31h14v46h-14zm84 9h14v37h-14zm84 35h14v2h-14z"/>
        </g>
        <g class="highcharts-series highcharts-series-1 highcharts-column-series highcharts-color-undefined highcharts-tracker" transform="translate(56 133)" clip-path="url(#a)">
            <path fill="#b2c4cb" class="highcharts-point" stroke="#fff" d="M34.5 117.5h14v84h-14zm84 70h14v14h-14zm84-47h14v61h-14zm84 23h14v38h-14zm83 34h14v4h-14z"/>
        </g>
        <g class="highcharts-series highcharts-series-2 highcharts-column-series highcharts-color-undefined highcharts-tracker" transform="translate(56 133)" clip-path="url(#a)">
            <path fill="#cd9c00" class="highcharts-point" stroke="#fff" d="M51.5 187.5h14v14h-14zm84 7h14v7h-14zm84-105h14v112h-14zm83 48h14v64h-14zm84 61h14v3h-14z"/>
        </g>
    </g>
    <text x="10" class="highcharts-title" style="width:421px" y="21" color="#000" font-size="14" font-weight="700">
        <tspan>I.11.6.0002 Anteile der Verkehrsmittel für die</tspan><tspan dy="17" x="10">Agglomeration Basel-Stadt 2010</tspan><title>I.11.6.0002 Anteile der Verkehrsmittel für die Agglomeration Basel-Stadt 2010</title>
    </text>
    <g class="highcharts-legend" transform="translate(45 65)">
        <rect fill="none" class="highcharts-legend-box" rx="0" ry="0" width="296" height="56"/>
        <g class="highcharts-legend-item highcharts-column-series highcharts-color-undefined highcharts-series-0">
            <text x="21" y="15" color="#333" font-weight="400" cursor="pointer" fill="#333" transform="translate(8 3)">
                <tspan>in % der Anzahl Etappen</tspan>
            </text>
            <path fill="#b475ab" class="highcharts-point" d="M10 7h12v12H10z"/>
        </g>
        <g class="highcharts-legend-item highcharts-column-series highcharts-color-undefined highcharts-series-1">
            <text x="21" y="15" color="#333" font-weight="400" cursor="pointer" fill="#333" transform="translate(8 18)">
                <tspan>in % der Unterwegszeit</tspan>
            </text>
            <path fill="#b2c4cb" class="highcharts-point" d="M10 22h12v12H10z"/>
        </g>
        <g class="highcharts-legend-item highcharts-column-series highcharts-color-undefined highcharts-series-2">
            <text x="21" y="15" color="#333" font-weight="400" cursor="pointer" fill="#333" transform="translate(8 33)">
                <tspan>in % der Tagesdistanz</tspan>
            </text>
            <path fill="#cd9c00" class="highcharts-point" d="M10 37h12v12H10z"/>
        </g>
    </g>
    <g class="highcharts-axis-labels highcharts-xaxis-labels" text-anchor="middle" color="#000" cursor="default" font-size="11">
        <text x="97.9" style="width:74px" y="353">
            <tspan>zu Fuss</tspan>
        </text>
        <text x="181.7" style="width:74px" y="353">
            <tspan>Velo</tspan>
        </text>
        <text x="265.5" style="width:74px" y="353">
            <tspan>MIV</tspan>
        </text>
        <text x="349.3" style="width:74px" y="353">
            <tspan>ÖV</tspan>
        </text>
        <text x="433.1" style="width:74px" y="353">
            <tspan>Übrige</tspan><tspan dy="14" x="433.1">Verkehrsmittel</tspan><title>Übrige Verkehrsmittel</title>
        </text>
    </g>
    <g class="highcharts-axis-labels highcharts-yaxis-labels" text-anchor="end" color="#000" cursor="default" font-size="11">
        <text x="41" style="width:150px" y="338">
            <tspan>0%</tspan>
        </text>
        <text x="41" style="width:150px" y="288">
            <tspan>25%</tspan>
        </text>
        <text x="41" style="width:150px" y="238">
            <tspan>50%</tspan>
        </text>
        <text x="41" style="width:150px" y="187">
            <tspan>75%</tspan>
        </text>
        <text x="41" style="width:150px" y="137">
            <tspan>100%</tspan>
        </text>
    </g>
    <text x="10" class="highcharts-credits" y="400" cursor="default" color="#000" font-size="10">
        <tspan>Quelle: Bundesamt für Raumentwicklung, Mikrozensus zum Verkehrsverhalten</tspan>
    </text>
</svg>
