<svg class="highcharts-root" xmlns="http://www.w3.org/2000/svg" viewBox="0 0 485 415" font-family="Arial" font-size="12">
    <defs>
        <clipPath id="a">
            <path fill="none" d="M0 0h419v225H0z"/>
        </clipPath>
    </defs>
    <rect fill="#fbfbfb" class="highcharts-background" width="485" height="415" rx="0" ry="0"/>
    <path fill="none" class="highcharts-plot-background" d="M56 123h419v225H56z"/>
    <g class="highcharts-grid highcharts-xaxis-grid">
        <path fill="none" class="highcharts-grid-line" d="M59.5 123v225m46-225v225m45-225v225m46-225v225m46-225v225m45-225v225m46-225v225m46-225v225m45-225v225m46-225v225"/>
    </g>
    <g class="highcharts-grid highcharts-yaxis-grid">
        <path fill="none" stroke="#e6e6e6" class="highcharts-grid-line" d="M56 348.5h419m-419-45h419m-419-45h419m-419-45h419m-419-45h419m-419-46h419"/>
    </g>
    <path fill="none" class="highcharts-plot-border" d="M56 123h419v225H56z"/>
    <g class="highcharts-axis highcharts-xaxis">
        <path fill="none" class="highcharts-axis-line" stroke="#ccd6eb" d="M56 348.5h419"/>
    </g>
    <g class="highcharts-axis highcharts-yaxis">
        <path fill="none" class="highcharts-axis-line" d="M56 123v225"/>
    </g>
    <g class="highcharts-series-group">
        <g class="highcharts-series highcharts-series-0 highcharts-line-series highcharts-color-undefined" transform="translate(56 123)" clip-path="url(#a)">
            <path fill="none" d="M4.108 135.103l45.643-4.652 45.642-6.206 45.643-3.45 45.643-27.555 45.642-12.78 45.643-11.025 45.643-4.635 45.642-13.455 45.643-5.76" class="highcharts-graph" stroke="#672773" stroke-width="2" stroke-linejoin="round" stroke-linecap="round"/>
            <path fill="none" d="M-5.892 135.103h10l45.643-4.652 45.642-6.206 45.643-3.45 45.643-27.555 45.642-12.78 45.643-11.025 45.643-4.635 45.642-13.455 45.643-5.76h10" stroke-linejoin="round" stroke="rgba(192,192,192,0.0001)" stroke-width="22" class="highcharts-tracker"/>
        </g>
        <g class="highcharts-series highcharts-series-1 highcharts-line-series highcharts-color-undefined" transform="translate(56 123)" clip-path="url(#a)">
            <path fill="none" d="M4.108 199.305l45.643-8.145 45.642-2.115 45.643-.9 45.643-4.095 45.642 4.86 45.643 2.655 45.643-4.86 45.642-3.042 45.643 6.147" class="highcharts-graph" stroke="#4a7ebb" stroke-width="2" stroke-linejoin="round" stroke-linecap="round"/>
            <path fill="none" d="M-5.892 199.305h10l45.643-8.145 45.642-2.115 45.643-.9 45.643-4.095 45.642 4.86 45.643 2.655 45.643-4.86 45.642-3.042 45.643 6.147h10" stroke-linejoin="round" stroke="rgba(192,192,192,0.0001)" stroke-width="22" class="highcharts-tracker"/>
        </g>
        <g class="highcharts-series highcharts-series-2 highcharts-line-series highcharts-color-undefined" transform="translate(56 123)" clip-path="url(#a)">
            <path fill="none" d="M4.108 207.27l45.643-4.23 45.642-5.94 45.643-8.73 45.643-16.155 45.642-15.165 45.643-31.455 45.643-34.065 45.642-33.3 45.643-17.55" class="highcharts-graph" stroke="#46aac5" stroke-width="2" stroke-linejoin="round" stroke-linecap="round"/>
            <path fill="none" d="M-5.892 207.27h10l45.643-4.23 45.642-5.94 45.643-8.73 45.643-16.155 45.642-15.165 45.643-31.455 45.643-34.065 45.642-33.3 45.643-17.55h10" stroke-linejoin="round" stroke="rgba(192,192,192,0.0001)" stroke-width="22" class="highcharts-tracker"/>
        </g>
        <g class="highcharts-series highcharts-series-3 highcharts-line-series highcharts-color-undefined" transform="translate(56 123)" clip-path="url(#a)">
            <path fill="none" d="M4.108 225h91.285l45.643-6.873 45.643-1.145 45.642.082 45.643-.246 45.643-.49 45.642-.246 45.643.008" class="highcharts-graph" stroke="#c1d2a7" stroke-width="2" stroke-linejoin="round" stroke-linecap="round"/>
            <path fill="none" d="M-5.892 225H95.393l45.643-6.873 45.643-1.145 45.642.082 45.643-.246 45.643-.49 45.642-.246 45.643.008h10" stroke-linejoin="round" stroke="rgba(192,192,192,0.0001)" stroke-width="22" class="highcharts-tracker"/>
        </g>
    </g>
    <text x="10" class="highcharts-title" style="width:421px" y="21" color="#000" font-size="14" font-weight="700">
        <tspan>I.01.3.0006 Angebotene Plätze für Tagesbetreuung</tspan><tspan dy="17" x="10">und Tagesstrukturen seit 2006</tspan><title>I.01.3.0006 Angebotene Plätze für Tagesbetreuung und Tagesstrukturen seit 2006</title>
    </text>
    <g class="highcharts-legend" transform="translate(45 60)">
        <rect fill="none" class="highcharts-legend-box" rx="0" ry="0" width="416" height="51"/>
        <g class="highcharts-legend-item highcharts-line-series highcharts-color-undefined highcharts-series-0">
            <path fill="none" d="M8 14h16" class="highcharts-graph" stroke="#672773" stroke-width="2"/>
            <text x="21" y="15" color="#333" font-weight="400" cursor="pointer" fill="#333" transform="translate(8 3)">
                Tagesbetreuung
            </text>
        </g>
        <g class="highcharts-legend-item highcharts-line-series highcharts-color-undefined highcharts-series-1">
            <path fill="none" d="M218 14h16" class="highcharts-graph" stroke="#4a7ebb" stroke-width="2"/>
            <text x="21" y="15" color="#333" font-weight="400" cursor="pointer" fill="#333" transform="translate(218 3)">
                <tspan>Tagesstrukturen in den Quartieren</tspan>
            </text>
        </g>
        <g class="highcharts-legend-item highcharts-line-series highcharts-color-undefined highcharts-series-2">
            <path fill="none" d="M8 34h16" class="highcharts-graph" stroke="#46aac5" stroke-width="2"/>
            <text x="21" y="15" color="#333" font-weight="400" cursor="pointer" fill="#333" transform="translate(8 23)">
                <tspan>Tagesstrukturen in den Schulen</tspan>
            </text>
        </g>
        <g class="highcharts-legend-item highcharts-line-series highcharts-color-undefined highcharts-series-3">
            <path fill="none" d="M218 34h16" class="highcharts-graph" stroke="#c1d2a7" stroke-width="2"/>
            <text x="21" y="15" color="#333" font-weight="400" cursor="pointer" fill="#333" transform="translate(218 23)">
                Tagesferien
            </text>
        </g>
    </g>
    <g class="highcharts-axis-labels highcharts-xaxis-labels" text-anchor="middle" color="#000" cursor="default" font-size="11">
        <text x="60.108" y="367">
            2006
        </text>
        <text x="105.751" y="367">
            2007
        </text>
        <text x="151.393" y="367">
            2008
        </text>
        <text x="197.036" y="367">
            2009
        </text>
        <text x="242.679" y="367">
            2010
        </text>
        <text x="288.321" y="367">
            2011
        </text>
        <text x="333.964" y="367">
            2012
        </text>
        <text x="379.607" y="367">
            2013
        </text>
        <text x="425.249" y="367">
            2014
        </text>
        <text x="461.307" style="width:27.385620915029" y="367" text-overflow="ellipsis">
            <tspan>20…</tspan><title>2015</title>
        </text>
    </g>
    <g class="highcharts-axis-labels highcharts-yaxis-labels" text-anchor="end" color="#000" cursor="default" font-size="11">
        <text x="41" style="width:150px" y="352">
            <tspan>0</tspan>
        </text>
        <text x="41" style="width:150px" y="307">
            <tspan>1 000</tspan>
        </text>
        <text x="41" style="width:150px" y="262">
            <tspan>2 000</tspan>
        </text>
        <text x="41" style="width:150px" y="217">
            <tspan>3 000</tspan>
        </text>
        <text x="41" style="width:150px" y="172">
            <tspan>4 000</tspan>
        </text>
        <text x="41" style="width:150px" y="127">
            <tspan>5 000</tspan>
        </text>
    </g>
    <text x="10" class="highcharts-credits" y="400" cursor="default" color="#000" font-size="10">
        <tspan>Quelle: Erziehungsdepartement Basel-Stadt, Fachstelle Tagesbetreuung</tspan>
    </text>
</svg>
