<svg class="highcharts-root" xmlns="http://www.w3.org/2000/svg" viewBox="0 0 485 415" font-family="Arial" font-size="12">
    <defs>
        <clipPath id="a">
            <path fill="none" d="M0 0h426v271H0z"/>
        </clipPath>
    </defs>
    <rect fill="#fbfbfb" class="highcharts-background" width="485" height="415" rx="0" ry="0"/>
    <path fill="none" class="highcharts-plot-background" d="M49 77h426v271H49z"/>
    <g class="highcharts-grid highcharts-xaxis-grid">
        <path fill="none" class="highcharts-grid-line" d="M52.5 77v271m47-271v271m46-271v271m46-271v271m47-271v271m46-271v271m47-271v271m46-271v271m46-271v271m47-271v271"/>
    </g>
    <g class="highcharts-grid highcharts-yaxis-grid">
        <path fill="none" stroke="#e6e6e6" class="highcharts-grid-line" d="M49 348.5h426m-426-68h426m-426-67h426m-426-68h426m-426-69h426"/>
    </g>
    <path fill="none" class="highcharts-plot-border" d="M49 77h426v271H49z"/>
    <g class="highcharts-axis highcharts-xaxis">
        <path fill="none" class="highcharts-axis-line" stroke="#ccd6eb" d="M49 348.5h426"/>
    </g>
    <g class="highcharts-axis highcharts-yaxis">
        <path fill="none" class="highcharts-axis-line" d="M49 77v271"/>
    </g>
    <g class="highcharts-series-group">
        <g class="highcharts-series highcharts-series-0 highcharts-line-series highcharts-color-undefined" transform="translate(49 77)" clip-path="url(#a)">
            <path fill="none" d="M4.176 50.613l46.406.565 46.405.761 46.405-.475 46.405-3.63 46.406.448 46.405-.567 46.405-.645 46.405-.448 46.406.359" class="highcharts-graph" stroke="#b00000" stroke-width="2" stroke-linejoin="round" stroke-linecap="round"/>
            <path fill="none" d="M-5.824 50.613h10l46.406.565 46.405.761 46.405-.475 46.405-3.63 46.406.448 46.405-.567 46.405-.645 46.405-.448 46.406.359h10" stroke-linejoin="round" stroke="rgba(192,192,192,0.0001)" stroke-width="22" class="highcharts-tracker"/>
        </g>
        <g class="highcharts-series highcharts-series-1 highcharts-line-series highcharts-color-undefined" transform="translate(49 77)" clip-path="url(#a)">
            <path fill="none" d="M4.176 206.564l46.406-3.607 46.405 1.266 46.405 1.25 46.405 8.238 46.406 6.832 46.405-2.938 46.405-.842 46.405-2.877 46.406-1.753" class="highcharts-graph" stroke="#71a3b5" stroke-width="2" stroke-linejoin="round" stroke-linecap="round"/>
            <path fill="none" d="M-5.824 206.564h10l46.406-3.607 46.405 1.266 46.405 1.25 46.405 8.238 46.406 6.832 46.405-2.938 46.405-.842 46.405-2.877 46.406-1.753h10" stroke-linejoin="round" stroke="rgba(192,192,192,0.0001)" stroke-width="22" class="highcharts-tracker"/>
        </g>
        <g class="highcharts-series highcharts-series-2 highcharts-line-series highcharts-color-undefined" transform="translate(49 77)" clip-path="url(#a)">
            <path fill="none" d="M4.176 99.173l46.406-.546 46.405 1.623 46.405 1.196 46.405.537 46.406 3.782 46.405-.506 46.405.458 46.405-.54 46.406.08" class="highcharts-graph" stroke="#000" stroke-width="2" stroke-linejoin="round" stroke-linecap="round"/>
            <path fill="none" d="M-5.824 99.173h10l46.406-.546 46.405 1.623 46.405 1.196 46.405.537 46.406 3.782 46.405-.506 46.405.458 46.405-.54 46.406.08h10" stroke-linejoin="round" stroke="rgba(192,192,192,0.0001)" stroke-width="22" class="highcharts-tracker"/>
        </g>
        <g class="highcharts-markers highcharts-series-2 highcharts-line-series highcharts-color-undefined highcharts-tracker">
            <path d="M470 178c5.328 0 5.328 8 0 8s-5.328-8 0-8zm-46 0c5.328 0 5.328 8 0 8s-5.328-8 0-8zm-46 1c5.328 0 5.328 8 0 8s-5.328-8 0-8zm-47-1c5.328 0 5.328 8 0 8s-5.328-8 0-8zm-46 1c5.328 0 5.328 8 0 8s-5.328-8 0-8zm-47-4c5.328 0 5.328 8 0 8s-5.328-8 0-8zm-46-1c5.328 0 5.328 8 0 8s-5.328-8 0-8zm-47-1c5.328 0 5.328 8 0 8s-5.328-8 0-8zm-46-1c5.328 0 5.328 8 0 8s-5.328-8 0-8zm-46 0c5.328 0 5.328 8 0 8s-5.328-8 0-8z" class="highcharts-point"/>
        </g>
    </g>
    <text x="10" class="highcharts-title" style="width:421px" y="21" color="#000" font-size="14" font-weight="700">
        <tspan>LP.3.10.1 Anteil der Bevölkerung, der seit</tspan><tspan dy="17" x="10">mindestens 10 Jahren an der gleichen Adresse wohnt</tspan><tspan dy="17" x="10">nach Heimat</tspan><title>LP.3.10.1 Anteil der Bevölkerung, der seit mindestens 10 Jahren an der gleichen Adresse wohnt nach Heimat</title>
    </text>
    <g class="highcharts-data-labels highcharts-series-0 highcharts-line-series highcharts-color-undefined">
        <text x="5" style="text-outline:1px contrast" y="16" font-size="11" font-weight="700" color="#000" transform="translate(407 100)" class="highcharts-label highcharts-data-label highcharts-data-label-color-undefined">
            <tspan x="5" y="16" class="highcharts-text-outline" fill="#FFF" stroke="#FFF" stroke-width="2" stroke-linejoin="round">Schweizer</tspan><tspan x="5" y="16">Schweizer</tspan>
        </text>
    </g>
    <g class="highcharts-data-labels highcharts-series-1 highcharts-line-series highcharts-color-undefined">
        <text x="5" style="text-outline:1px contrast" y="16" font-size="11" font-weight="700" color="#000" transform="translate(407 265)" class="highcharts-label highcharts-data-label highcharts-data-label-color-undefined">
            <tspan x="5" y="16" class="highcharts-text-outline" fill="#FFF" stroke="#FFF" stroke-width="2" stroke-linejoin="round">Ausländer</tspan><tspan x="5" y="16">Ausländer</tspan>
        </text>
    </g>
    <g class="highcharts-data-labels highcharts-series-2 highcharts-line-series highcharts-color-undefined">
        <text x="5" style="text-outline:1px contrast" y="16" font-size="11" font-weight="700" color="#000" transform="translate(438 158)" class="highcharts-label highcharts-data-label highcharts-data-label-color-undefined">
            <tspan x="5" y="16" class="highcharts-text-outline" fill="#FFF" stroke="#FFF" stroke-width="2" stroke-linejoin="round">Total</tspan><tspan x="5" y="16">Total</tspan>
        </text>
    </g>
    <g class="highcharts-axis-labels highcharts-xaxis-labels" text-anchor="middle" color="#000" cursor="default" font-size="11">
        <text x="53.176" y="367">
            2006
        </text>
        <text x="99.582" y="367">
            2007
        </text>
        <text x="145.987" y="367">
            2008
        </text>
        <text x="192.392" y="367">
            2009
        </text>
        <text x="238.797" y="367">
            2010
        </text>
        <text x="285.203" y="367">
            2011
        </text>
        <text x="331.608" y="367">
            2012
        </text>
        <text x="378.013" y="367">
            2013
        </text>
        <text x="424.418" y="367">
            2014
        </text>
        <text x="461.078" style="width:27.84313725489822" y="367" text-overflow="ellipsis">
            <tspan>20…</tspan><title>2015</title>
        </text>
    </g>
    <g class="highcharts-axis-labels highcharts-yaxis-labels" text-anchor="end" color="#000" cursor="default" font-size="11">
        <text x="34" style="width:150px" y="352">
            <tspan>10%</tspan>
        </text>
        <text x="34" style="width:150px" y="284">
            <tspan>20%</tspan>
        </text>
        <text x="34" style="width:150px" y="217">
            <tspan>30%</tspan>
        </text>
        <text x="34" style="width:150px" y="149">
            <tspan>40%</tspan>
        </text>
        <text x="34" style="width:150px" y="81">
            <tspan>50%</tspan>
        </text>
    </g>
    <text x="10" class="highcharts-credits" y="400" cursor="default" color="#000" font-size="10">
        <tspan>Quelle: Statistisches Amt Basel-Stadt, kantonale Bevölkerungsstatistik</tspan>
    </text>
</svg>
