<svg class="highcharts-root" xmlns="http://www.w3.org/2000/svg" viewBox="0 0 485 415" font-family="Arial" font-size="12">
    <defs>
        <clipPath id="a">
            <path fill="none" d="M0 0h426v260H0z"/>
        </clipPath>
    </defs>
    <rect fill="#fbfbfb" class="highcharts-background" width="485" height="415" rx="0" ry="0"/>
    <path fill="none" class="highcharts-plot-background" d="M49 88h426v260H49z"/>
    <g class="highcharts-grid highcharts-xaxis-grid">
        <path fill="none" class="highcharts-grid-line" d="M52.5 88v260m47-260v260m46-260v260m46-260v260m47-260v260m46-260v260m47-260v260m46-260v260m46-260v260m47-260v260"/>
    </g>
    <g class="highcharts-grid highcharts-yaxis-grid">
        <path fill="none" stroke="#e6e6e6" class="highcharts-grid-line" d="M49 348.5h426m-426-87h426m-426-86h426m-426-88h426"/>
    </g>
    <path fill="none" class="highcharts-plot-border" d="M49 88h426v260H49z"/>
    <g class="highcharts-axis highcharts-xaxis">
        <path fill="none" class="highcharts-axis-line" stroke="#ccd6eb" d="M49 348.5h426"/>
    </g>
    <g class="highcharts-axis highcharts-yaxis">
        <path fill="none" class="highcharts-axis-line" d="M49 88v260"/>
    </g>
    <g class="highcharts-series-group">
        <g class="highcharts-series highcharts-series-0 highcharts-line-series highcharts-color-undefined" transform="translate(49 88)" clip-path="url(#a)">
            <path fill="none" d="M4.176 104l46.406-1.733 46.405 31.2 46.405 76.266 46.405-88.4 46.406 20.8 46.405 12.134 46.405-12.134 46.405-1.733 46.406 17.333" class="highcharts-graph" stroke="#b00000" stroke-width="2" stroke-linejoin="round" stroke-linecap="round"/>
            <path fill="none" d="M-5.824 104h10l46.406-1.733 46.405 31.2 46.405 76.266 46.405-88.4 46.406 20.8 46.405 12.134 46.405-12.134 46.405-1.733 46.406 17.333h10" stroke-linejoin="round" stroke="rgba(192,192,192,0.0001)" stroke-width="22" class="highcharts-tracker"/>
        </g>
        <g class="highcharts-markers highcharts-series-0 highcharts-line-series highcharts-color-undefined highcharts-tracker">
            <path fill="#b00000" d="M470 242c5.328 0 5.328 8 0 8s-5.328-8 0-8zm-46-18c5.328 0 5.328 8 0 8s-5.328-8 0-8zm-46 2c5.328 0 5.328 8 0 8s-5.328-8 0-8zm-47 12c5.328 0 5.328 8 0 8s-5.328-8 0-8zm-46-12c5.328 0 5.328 8 0 8s-5.328-8 0-8zm-47-21c5.328 0 5.328 8 0 8s-5.328-8 0-8z" class="highcharts-point"/>
            <path fill="#b00000" d="M192 294c5.328 0 5.328 8 0 8s-5.328-8 0-8z" class="highcharts-point highcharts-negative"/>
            <path fill="#b00000" d="M145 217c5.328 0 5.328 8 0 8s-5.328-8 0-8zm-46-31c5.328 0 5.328 8 0 8s-5.328-8 0-8zm-46 2c5.328 0 5.328 8 0 8s-5.328-8 0-8z" class="highcharts-point"/>
        </g>
        <g class="highcharts-series highcharts-series-1 highcharts-line-series highcharts-color-undefined" transform="translate(49 88)" clip-path="url(#a)">
            <path fill="none" d="M4.176 78l46.406 20.8 46.405 29.467 46.405 93.6 46.405-90.134 46.406-22.533 46.405 29.467 46.405 27.733 46.405-45.067 46.406 10.4" class="highcharts-graph" stroke="#ff8031" stroke-width="2" stroke-linejoin="round" stroke-linecap="round"/>
            <path fill="none" d="M-5.824 78h10l46.406 20.8 46.405 29.467 46.405 93.6 46.405-90.134 46.406-22.533 46.405 29.467 46.405 27.733 46.405-45.067 46.406 10.4h10" stroke-linejoin="round" stroke="rgba(192,192,192,0.0001)" stroke-width="22" class="highcharts-tracker"/>
        </g>
        <g class="highcharts-markers highcharts-series-1 highcharts-line-series highcharts-color-undefined highcharts-tracker">
            <path fill="#ff8031" d="M470 216c5.328 0 5.328 8 0 8s-5.328-8 0-8zm-46-11c5.328 0 5.328 8 0 8s-5.328-8 0-8zm-46 45c5.328 0 5.328 8 0 8s-5.328-8 0-8zm-47-27c5.328 0 5.328 8 0 8s-5.328-8 0-8zm-46-30c5.328 0 5.328 8 0 8s-5.328-8 0-8zm-47 23c5.328 0 5.328 8 0 8s-5.328-8 0-8z" class="highcharts-point"/>
            <path fill="#ff8031" d="M192 306c5.328 0 5.328 8 0 8s-5.328-8 0-8z" class="highcharts-point highcharts-negative"/>
            <path fill="#ff8031" d="M145 212c5.328 0 5.328 8 0 8s-5.328-8 0-8zm-46-29c5.328 0 5.328 8 0 8s-5.328-8 0-8zm-46-21c5.328 0 5.328 8 0 8s-5.328-8 0-8z" class="highcharts-point"/>
        </g>
        <g class="highcharts-series highcharts-series-2 highcharts-line-series highcharts-color-undefined" transform="translate(49 88)" clip-path="url(#a)">
            <path fill="none" d="M4.176 86.667l46.406-15.6 46.405 65.866 46.405 93.6L189.797 124.8l46.406 52 46.405-32.933 46.405 10.4 46.405-19.067 46.406 8.667" class="highcharts-graph" stroke="#675d73" stroke-width="2" stroke-linejoin="round" stroke-linecap="round"/>
            <path fill="none" d="M-5.824 86.667h10l46.406-15.6 46.405 65.866 46.405 93.6L189.797 124.8l46.406 52 46.405-32.933 46.405 10.4 46.405-19.067 46.406 8.667h10" stroke-linejoin="round" stroke="rgba(192,192,192,0.0001)" stroke-width="22" class="highcharts-tracker"/>
        </g>
        <g class="highcharts-series highcharts-series-3 highcharts-line-series highcharts-color-undefined" transform="translate(49 88)" clip-path="url(#a)">
            <path fill="none" d="M4.176 93.6l46.406-3.467L96.987 156l46.405 60.667 46.405-58.934 46.406-5.2L282.608 156l46.405-32.933 46.405 15.6L421.824 156" class="highcharts-graph" stroke="#a0bec8" stroke-width="2" stroke-linejoin="round" stroke-linecap="round"/>
            <path fill="none" d="M-5.824 93.6h10l46.406-3.467L96.987 156l46.405 60.667 46.405-58.934 46.406-5.2L282.608 156l46.405-32.933 46.405 15.6L421.824 156h10" stroke-linejoin="round" stroke="rgba(192,192,192,0.0001)" stroke-width="22" class="highcharts-tracker"/>
        </g>
    </g>
    <text x="10" class="highcharts-title" style="width:421px" y="21" color="#000" font-size="14" font-weight="700">
        <tspan>LP.1.01.1 Wachstum des realen BIP BS in %</tspan><tspan dy="17" x="10">gegenüber Vorjahr im Vergleich mit ZH, GE, CH</tspan><title>LP.1.01.1 Wachstum des realen BIP BS in % gegenüber Vorjahr im Vergleich mit ZH, GE, CH</title>
    </text>
    <g class="highcharts-legend" transform="translate(45 45)">
        <rect fill="none" class="highcharts-legend-box" rx="0" ry="0" width="348" height="31"/>
        <g class="highcharts-legend-item highcharts-line-series highcharts-color-undefined highcharts-series-0">
            <path fill="none" d="M8 14h16" class="highcharts-graph" stroke="#b00000" stroke-width="2"/>
            <path fill="#b00000" d="M16 10c5.328 0 5.328 8 0 8s-5.328-8 0-8z" class="highcharts-point"/>
            <text x="21" y="15" color="#333" font-weight="400" cursor="pointer" fill="#333" transform="translate(8 3)">
                Schweiz
            </text>
        </g>
        <g class="highcharts-legend-item highcharts-line-series highcharts-color-undefined highcharts-series-1">
            <path fill="none" d="M99.156 14h16" class="highcharts-graph" stroke="#ff8031" stroke-width="2"/>
            <path fill="#ff8031" d="M107.156 10c5.328 0 5.328 8 0 8s-5.328-8 0-8z" class="highcharts-point"/>
            <text x="21" y="15" color="#333" font-weight="400" cursor="pointer" fill="#333" transform="translate(99.156 3)">
                Basel-Stadt
            </text>
        </g>
        <g class="highcharts-legend-item highcharts-line-series highcharts-color-undefined highcharts-series-2">
            <path fill="none" d="M209.89 14h16" class="highcharts-graph" stroke="#675d73" stroke-width="2"/>
            <text x="21" y="15" color="#333" font-weight="400" cursor="pointer" fill="#333" transform="translate(209.89 3)">
                Genf
            </text>
        </g>
        <g class="highcharts-legend-item highcharts-line-series highcharts-color-undefined highcharts-series-3">
            <path fill="none" d="M279.719 14h16" class="highcharts-graph" stroke="#a0bec8" stroke-width="2"/>
            <text x="21" y="15" color="#333" font-weight="400" cursor="pointer" fill="#333" transform="translate(279.719 3)">
                Zürich
            </text>
        </g>
    </g>
    <g class="highcharts-axis-labels highcharts-xaxis-labels" text-anchor="middle" color="#000" cursor="default" font-size="11">
        <text x="53.176" y="367">
            2006
        </text>
        <text x="99.582" y="367">
            2007
        </text>
        <text x="145.987" y="367">
            2008
        </text>
        <text x="192.392" y="367">
            2009
        </text>
        <text x="238.797" y="367">
            2010
        </text>
        <text x="285.203" y="367">
            2011
        </text>
        <text x="331.608" y="367">
            2012
        </text>
        <text x="378.013" y="367">
            2013
        </text>
        <text x="424.418" y="367">
            2014
        </text>
        <text x="461.078" style="width:27.84313725489822" y="367" text-overflow="ellipsis">
            <tspan>20…</tspan><title>2015</title>
        </text>
    </g>
    <g class="highcharts-axis-labels highcharts-yaxis-labels" text-anchor="end" color="#000" cursor="default" font-size="11">
        <text x="34" style="width:150px" y="352">
            <tspan>-5%</tspan>
        </text>
        <text x="34" style="width:150px" y="265">
            <tspan>0%</tspan>
        </text>
        <text x="34" style="width:150px" y="179">
            <tspan>5%</tspan>
        </text>
        <text x="34" style="width:150px" y="92">
            <tspan>10%</tspan>
        </text>
    </g>
    <text x="10" class="highcharts-credits" y="400" cursor="default" color="#000" font-size="10">
        <tspan>Quelle: BAK Basel Economics</tspan>
    </text>
</svg>
