<svg class="highcharts-root" xmlns="http://www.w3.org/2000/svg" viewBox="0 0 485 415" font-family="Arial" font-size="12">
    <defs>
        <clipPath id="a">
            <path fill="none" d="M0 0h394v265H0z"/>
        </clipPath>
    </defs>
    <rect fill="#fbfbfb" class="highcharts-background" width="485" height="415" rx="0" ry="0"/>
    <path fill="none" class="highcharts-plot-background" d="M81 75h394v265H81z"/>
    <g class="highcharts-grid highcharts-xaxis-grid">
        <path fill="none" class="highcharts-grid-line" d="M119.5 75v265m40-265v265m39-265v265m40-265v265m39-265v265m39-265v265m40-265v265m39-265v265m40-265v265m39-265v265M80.5 75v265"/>
    </g>
    <g class="highcharts-grid highcharts-yaxis-grid">
        <path fill="none" stroke="#e6e6e6" class="highcharts-grid-line" d="M81 340.5h394m-394-44h394m-394-44h394m-394-44h394m-394-45h394m-394-44h394m-394-45h394"/>
    </g>
    <path fill="none" class="highcharts-plot-border" d="M81 75h394v265H81z"/>
    <g class="highcharts-axis highcharts-xaxis">
        <path fill="none" class="highcharts-tick" stroke="#FFF" d="M119.5 340v10m40-10v10m39-10v10m40-10v10m39-10v10m39-10v10m40-10v10m39-10v10m40-10v10m40-10v10m-395-10v10"/>
        <path fill="none" class="highcharts-axis-line" stroke="#ccd6eb" d="M81 340.5h394"/>
    </g>
    <g class="highcharts-axis highcharts-yaxis">
        <path fill="none" class="highcharts-axis-line" d="M81 75v265"/>
    </g>
    <g class="highcharts-series-group">
        <g class="highcharts-series highcharts-series-0 highcharts-column-series highcharts-color-undefined highcharts-tracker" transform="translate(81 75)" clip-path="url(#a)">
            <path fill="#71A3B5" class="highcharts-point" stroke="#fff" d="M9.5 108.5h20v117h-20zm39-10h20v121h-20zm40-11h20v125h-20zm39-4h20v127h-20zm39-7h20v135h-20zm40-2h20v137h-20zm39 0h20v136h-20zm40-4h20v138h-20zm39-10h20v141h-20zm39-7h20v142h-20z"/>
        </g>
        <g class="highcharts-series highcharts-series-1 highcharts-column-series highcharts-color-undefined highcharts-tracker" transform="translate(81 75)" clip-path="url(#a)">
            <path fill="#990300" class="highcharts-point" stroke="#fff" d="M9.5 225.5h20v40h-20zm39-6h20v46h-20zm40-7h20v53h-20zm39-2h20v55h-20zm39 1h20v54h-20zm40 0h20v54h-20zm39-1h20v55h-20zm40-2h20v57h-20zm39-7h20v64h-20zm39-6h20v70h-20z"/>
        </g>
    </g>
    <text x="10" class="highcharts-title" style="width:421px" y="21" color="#000" font-size="14" font-weight="700">
        <tspan>LP.1.02.1 Entwicklung der Logiernächte</tspan><tspan dy="17" x="10">Schweiz/Ausland und Top 5 Nationen</tspan><title>LP.1.02.1 Entwicklung der Logiernächte Schweiz/Ausland und Top 5 Nationen</title>
    </text>
    <g class="highcharts-legend" transform="translate(65 45)">
        <rect fill="none" class="highcharts-legend-box" rx="0" ry="0" width="177" height="31"/>
        <g class="highcharts-legend-item highcharts-column-series highcharts-color-undefined highcharts-series-0">
            <text x="21" y="15" color="#333" font-weight="400" cursor="pointer" fill="#333" transform="translate(8 3)">
                Ausland
            </text>
            <path fill="#71A3B5" class="highcharts-point" d="M10 7h12v12H10z"/>
        </g>
        <g class="highcharts-legend-item highcharts-column-series highcharts-color-undefined highcharts-series-1">
            <text x="21" y="15" color="#333" font-weight="400" cursor="pointer" fill="#333" transform="translate(97.89 3)">
                Schweiz
            </text>
            <path fill="#990300" class="highcharts-point" d="M99.89 7h12v12h-12z"/>
        </g>
    </g>
    <g class="highcharts-axis-labels highcharts-xaxis-labels" text-anchor="middle" color="#000" cursor="default" font-size="11">
        <text x="100.7" y="359">
            2006
        </text>
        <text x="140.1" y="359">
            2007
        </text>
        <text x="179.5" y="359">
            2008
        </text>
        <text x="218.9" y="359">
            2009
        </text>
        <text x="258.3" y="359">
            2010
        </text>
        <text x="297.7" y="359">
            2011
        </text>
        <text x="337.1" y="359">
            2012
        </text>
        <text x="376.5" y="359">
            2013
        </text>
        <text x="415.9" y="359">
            2014
        </text>
        <text x="455.3" y="359">
            2015
        </text>
    </g>
    <g class="highcharts-axis-labels highcharts-yaxis-labels" text-anchor="end" color="#000" cursor="default" font-size="11">
        <text x="66" style="width:150px" y="344">
            <tspan>0</tspan>
        </text>
        <text x="66" style="width:150px" y="300">
            <tspan>250 000</tspan>
        </text>
        <text x="66" style="width:150px" y="256">
            <tspan>500 000</tspan>
        </text>
        <text x="66" style="width:150px" y="212">
            <tspan>750 000</tspan>
        </text>
        <text x="66" style="width:150px" y="167">
            <tspan>1 000 000</tspan>
        </text>
        <text x="66" style="width:150px" y="123">
            <tspan>1 250 000</tspan>
        </text>
        <text x="66" style="width:150px" y="79">
            <tspan>1 500 000</tspan>
        </text>
    </g>
    <text x="10" class="highcharts-credits" y="400" cursor="default" color="#000" font-size="10">
        <tspan>Quelle: Statistisches Amt Basel-Stadt, Tourismusstatistik</tspan>
    </text>
</svg>
