<svg class="highcharts-root" xmlns="http://www.w3.org/2000/svg" viewBox="0 0 485 415" font-family="Arial" font-size="12">
    <defs>
        <clipPath id="a">
            <path fill="none" d="M0 0h412v140H0z"/>
        </clipPath>
    </defs>
    <rect fill="#fbfbfb" class="highcharts-background" width="485" height="415" rx="0" ry="0"/>
    <path fill="none" class="highcharts-plot-background" d="M63 208h412v140H63z"/>
    <g class="highcharts-grid highcharts-xaxis-grid">
        <path fill="none" class="highcharts-grid-line" d="M66.5 208v140m45-140v140m45-140v140m45-140v140m45-140v140m44-140v140m45-140v140m45-140v140m45-140v140m45-140v140"/>
    </g>
    <g class="highcharts-grid highcharts-yaxis-grid">
        <path fill="none" stroke="#e6e6e6" class="highcharts-grid-line" d="M63 348.5h412m-412-47h412m-412-46h412m-412-48h412"/>
    </g>
    <path fill="none" class="highcharts-plot-border" d="M63 208h412v140H63z"/>
    <g class="highcharts-axis highcharts-xaxis">
        <path fill="none" class="highcharts-axis-line" stroke="#ccd6eb" d="M63 348.5h412"/>
    </g>
    <g class="highcharts-axis highcharts-yaxis">
        <path fill="none" class="highcharts-axis-line" d="M63 208v140"/>
    </g>
    <g class="highcharts-series-group">
        <g class="highcharts-series highcharts-series-0 highcharts-line-series highcharts-color-undefined" transform="translate(63 208)" clip-path="url(#a)">
            <path fill="none" d="M4.04 43.895L48.92 35.4l44.88-5.87 44.88-2.548 44.88-2.502 44.88-2.24 44.88-3.528 44.88-2.594 44.88.233 44.88-1.699" class="highcharts-graph" stroke="#6F6F6F" stroke-width="2" stroke-linejoin="round" stroke-linecap="round"/>
            <path fill="none" d="M-5.96 43.895h10L48.92 35.4l44.88-5.87 44.88-2.548 44.88-2.502 44.88-2.24 44.88-3.528 44.88-2.594 44.88.233 44.88-1.699h10" stroke-linejoin="round" stroke="rgba(192,192,192,0.0001)" stroke-width="22" class="highcharts-tracker"/>
        </g>
        <g class="highcharts-markers highcharts-series-0 highcharts-line-series highcharts-color-undefined highcharts-tracker">
            <path fill="#6F6F6F" d="M470 219c5.328 0 5.328 8 0 8s-5.328-8 0-8zm-44 1c5.328 0 5.328 8 0 8s-5.328-8 0-8zm-45 0c5.328 0 5.328 8 0 8s-5.328-8 0-8zm-45 3c5.328 0 5.328 8 0 8s-5.328-8 0-8zm-45 3c5.328 0 5.328 8 0 8s-5.328-8 0-8zm-45 2c5.328 0 5.328 8 0 8s-5.328-8 0-8zm-45 3c5.328 0 5.328 8 0 8s-5.328-8 0-8zm-45 3c5.328 0 5.328 8 0 8s-5.328-8 0-8zm-45 5c5.328 0 5.328 8 0 8s-5.328-8 0-8zm-44 9c5.328 0 5.328 8 0 8s-5.328-8 0-8z" class="highcharts-point"/>
        </g>
        <g class="highcharts-series highcharts-series-1 highcharts-line-series highcharts-color-undefined" transform="translate(63 208)" clip-path="url(#a)">
            <path fill="none" d="M4.04 82.488l44.88-3.341 44.88-8.54 44.88-6.879 44.88-4.555 44.88-2.184 44.88-5.058 44.88-5.292 44.88-4.956 44.88-6.795" class="highcharts-graph" stroke="#C8C8C8" stroke-width="2" stroke-linejoin="round" stroke-linecap="round"/>
            <path fill="none" d="M-5.96 82.488h10l44.88-3.341 44.88-8.54 44.88-6.879 44.88-4.555 44.88-2.184 44.88-5.058 44.88-5.292 44.88-4.956 44.88-6.795h10" stroke-linejoin="round" stroke="rgba(192,192,192,0.0001)" stroke-width="22" class="highcharts-tracker"/>
        </g>
        <g class="highcharts-markers highcharts-series-1 highcharts-line-series highcharts-color-undefined highcharts-tracker">
            <path fill="#C8C8C8" d="M470 239c5.328 0 5.328 8 0 8s-5.328-8 0-8zm-44 7c5.328 0 5.328 8 0 8s-5.328-8 0-8zm-45 5c5.328 0 5.328 8 0 8s-5.328-8 0-8zm-45 5c5.328 0 5.328 8 0 8s-5.328-8 0-8zm-45 5c5.328 0 5.328 8 0 8s-5.328-8 0-8zm-45 2c5.328 0 5.328 8 0 8s-5.328-8 0-8zm-45 5c5.328 0 5.328 8 0 8s-5.328-8 0-8zm-45 7c5.328 0 5.328 8 0 8s-5.328-8 0-8zm-45 8c5.328 0 5.328 8 0 8s-5.328-8 0-8zm-44 3c5.328 0 5.328 8 0 8s-5.328-8 0-8z" class="highcharts-point"/>
        </g>
        <g class="highcharts-series highcharts-series-2 highcharts-line-series highcharts-color-undefined" visibility="hidden" transform="translate(63 208)" clip-path="url(#a)">
            <path fill="none" d="M4.04 87.313l44.88-5.581 44.88-3.08 44.88-1.307 44.88-1.4 44.88-1.316 44.88-1.437 44.88-1.176 44.88.065 44.88-1.932" class="highcharts-graph" stroke="#0F7399" stroke-width="2" stroke-linejoin="round" stroke-linecap="round"/>
            <path fill="none" d="M-5.96 87.313h10l44.88-5.581 44.88-3.08 44.88-1.307 44.88-1.4 44.88-1.316 44.88-1.437 44.88-1.176 44.88.065 44.88-1.932h10" stroke-linejoin="round" stroke="rgba(192,192,192,0.0001)" stroke-width="22" class="highcharts-tracker"/>
        </g>
        <g class="highcharts-series highcharts-series-3 highcharts-line-series highcharts-color-undefined" visibility="hidden" transform="translate(63 208)" clip-path="url(#a)">
            <path fill="none" d="M4.04 110.17l44.88-1.138 44.88-3.77 44.88-3.734 44.88-1.792 44.88-1.204 44.88-2.007 44.88-1.857 44.88-2.277 44.88-3.659" class="highcharts-graph" stroke="#A8C3CA" stroke-width="2" stroke-linejoin="round" stroke-linecap="round"/>
            <path fill="none" d="M-5.96 110.17h10l44.88-1.138 44.88-3.77 44.88-3.734 44.88-1.792 44.88-1.204 44.88-2.007 44.88-1.857 44.88-2.277 44.88-3.659h10" stroke-linejoin="round" stroke="rgba(192,192,192,0.0001)" stroke-width="22" class="highcharts-tracker"/>
        </g>
        <g class="highcharts-series highcharts-series-4 highcharts-line-series highcharts-color-undefined" visibility="hidden" transform="translate(63 208)" clip-path="url(#a)">
            <path fill="none" d="M4.04 96.581l44.88-2.912 44.88-2.79 44.88-1.242 44.88-1.101 44.88-.924 44.88-2.09 44.88-1.42 44.88.169 44.88.233" class="highcharts-graph" stroke="#923F8D" stroke-width="2" stroke-linejoin="round" stroke-linecap="round"/>
            <path fill="none" d="M-5.96 96.581h10l44.88-2.912 44.88-2.79 44.88-1.242 44.88-1.101 44.88-.924 44.88-2.09 44.88-1.42 44.88.169 44.88.233h10" stroke-linejoin="round" stroke="rgba(192,192,192,0.0001)" stroke-width="22" class="highcharts-tracker"/>
        </g>
        <g class="highcharts-series highcharts-series-5 highcharts-line-series highcharts-color-undefined" visibility="hidden" transform="translate(63 208)" clip-path="url(#a)">
            <path fill="none" d="M4.04 112.317l44.88-2.202 44.88-4.77 44.88-3.145 44.88-2.763 44.88-.98 44.88-3.052 44.88-3.434 44.88-2.679 44.88-3.136" class="highcharts-graph" stroke="#E7CEE2" stroke-width="2" stroke-linejoin="round" stroke-linecap="round"/>
            <path fill="none" d="M-5.96 112.317h10l44.88-2.202 44.88-4.77 44.88-3.145 44.88-2.763 44.88-.98 44.88-3.052 44.88-3.434 44.88-2.679 44.88-3.136h10" stroke-linejoin="round" stroke="rgba(192,192,192,0.0001)" stroke-width="22" class="highcharts-tracker"/>
        </g>
    </g>
    <text x="10" class="highcharts-title" style="width:421px" y="21" color="#000" font-size="14" font-weight="700">
        <tspan>LP.2.08.1 Entwicklung der Studierenden an Basler</tspan><tspan dy="17" x="10">Hochschulen nach Geschlecht</tspan><title>LP.2.08.1 Entwicklung der Studierenden an Basler Hochschulen nach Geschlecht</title>
    </text>
    <g class="highcharts-legend" transform="translate(45 65)">
        <rect fill="none" class="highcharts-legend-box" rx="0" ry="0" width="226" height="131"/>
        <g class="highcharts-legend-item highcharts-line-series highcharts-color-undefined highcharts-series-0">
            <path fill="none" d="M8 14h16" class="highcharts-graph" stroke="#6F6F6F" stroke-width="2"/>
            <path fill="#6F6F6F" d="M16 10c5.328 0 5.328 8 0 8s-5.328-8 0-8z" class="highcharts-point"/>
            <text x="21" y="15" color="#333" font-weight="400" cursor="pointer" fill="#333" transform="translate(8 3)">
                <tspan>Total Studierende Universität Basell</tspan>
            </text>
        </g>
        <g class="highcharts-legend-item highcharts-line-series highcharts-color-undefined highcharts-series-1">
            <path fill="none" d="M8 34h16" class="highcharts-graph" stroke="#C8C8C8" stroke-width="2"/>
            <path fill="#C8C8C8" d="M16 30c5.328 0 5.328 8 0 8s-5.328-8 0-8z" class="highcharts-point"/>
            <text x="21" y="15" color="#333" font-weight="400" cursor="pointer" fill="#333" transform="translate(8 23)">
                <tspan>Total Studierende FHNW</tspan>
            </text>
        </g>
        <g class="highcharts-legend-item highcharts-line-series highcharts-color-undefined highcharts-series-2 highcharts-legend-item-hidden">
            <path fill="none" d="M8 54h16" class="highcharts-graph" stroke="#ccc" stroke-width="2"/>
            <text x="21" y="15" color="#ccc" font-weight="400" cursor="pointer" fill="#ccc" transform="translate(8 43)">
                <tspan>Frauen Universität Basel</tspan>
            </text>
        </g>
        <g class="highcharts-legend-item highcharts-line-series highcharts-color-undefined highcharts-series-3 highcharts-legend-item-hidden">
            <path fill="none" d="M8 74h16" class="highcharts-graph" stroke="#ccc" stroke-width="2"/>
            <text x="21" y="15" color="#ccc" font-weight="400" cursor="pointer" fill="#ccc" transform="translate(8 63)">
                <tspan>Männer FHNW</tspan>
            </text>
        </g>
        <g class="highcharts-legend-item highcharts-line-series highcharts-color-undefined highcharts-series-4 highcharts-legend-item-hidden">
            <path fill="none" d="M8 94h16" class="highcharts-graph" stroke="#ccc" stroke-width="2"/>
            <text x="21" y="15" color="#ccc" font-weight="400" cursor="pointer" fill="#ccc" transform="translate(8 83)">
                <tspan>Männer Universität Basel</tspan>
            </text>
        </g>
        <g class="highcharts-legend-item highcharts-line-series highcharts-color-undefined highcharts-series-5 highcharts-legend-item-hidden">
            <path fill="none" d="M8 114h16" class="highcharts-graph" stroke="#ccc" stroke-width="2"/>
            <text x="21" y="15" color="#ccc" font-weight="400" cursor="pointer" fill="#ccc" transform="translate(8 103)">
                <tspan>Frauen FHNW</tspan>
            </text>
        </g>
    </g>
    <g class="highcharts-axis-labels highcharts-xaxis-labels" text-anchor="middle" color="#000" cursor="default" font-size="11">
        <text x="67.039" y="367">
            2006
        </text>
        <text x="111.919" y="367">
            2007
        </text>
        <text x="156.8" y="367">
            2008
        </text>
        <text x="201.68" y="367">
            2009
        </text>
        <text x="246.56" y="367">
            2010
        </text>
        <text x="291.44" y="367">
            2011
        </text>
        <text x="336.32" y="367">
            2012
        </text>
        <text x="381.2" y="367">
            2013
        </text>
        <text x="426.081" y="367">
            2014
        </text>
        <text x="461.536" style="width:26.92810457515984" y="367" text-overflow="ellipsis">
            <tspan>20…</tspan><title>2015</title>
        </text>
    </g>
    <g class="highcharts-axis-labels highcharts-yaxis-labels" text-anchor="end" color="#000" cursor="default" font-size="11">
        <text x="48" style="width:150px" y="352">
            <tspan>0</tspan>
        </text>
        <text x="48" style="width:150px" y="305">
            <tspan>5 000</tspan>
        </text>
        <text x="48" style="width:150px" y="259">
            <tspan>10 000</tspan>
        </text>
        <text x="48" style="width:150px" y="212">
            <tspan>15 000</tspan>
        </text>
    </g>
    <text x="10" class="highcharts-credits" y="390" cursor="default" color="#000" font-size="10">
        <tspan>Quelle: Universität Basel;</tspan><tspan x="10" dy="13">Fachhochschule Nordwestschweiz</tspan>
    </text>
</svg>
