<svg class="highcharts-root" xmlns="http://www.w3.org/2000/svg" viewBox="0 0 485 415" font-family="Arial" font-size="12">
    <defs>
        <clipPath id="a">
            <path fill="none" d="M0 0h401v220H0z"/>
        </clipPath>
    </defs>
    <rect fill="#fbfbfb" class="highcharts-background" width="485" height="415" rx="0" ry="0"/>
    <path fill="none" class="highcharts-plot-background" d="M74 128h401v220H74z"/>
    <g class="highcharts-grid highcharts-xaxis-grid">
        <path fill="none" class="highcharts-grid-line" d="M153.5 128v220m80-220v220m81-220v220m80-220v220m80-220v220m-401-220v220"/>
    </g>
    <g class="highcharts-grid highcharts-yaxis-grid">
        <path fill="none" stroke="#e6e6e6" class="highcharts-grid-line" d="M74 348.5h401m-401-55h401m-401-55h401m-401-55h401m-401-55h401"/>
    </g>
    <path fill="none" class="highcharts-plot-border" d="M74 128h401v220H74z"/>
    <g class="highcharts-axis highcharts-xaxis">
        <path fill="none" class="highcharts-tick" stroke="#FFF" d="M153.5 348v10m80-10v10m81-10v10m80-10v10m80-10v10m-401-10v10"/>
        <path fill="none" class="highcharts-axis-line" stroke="#ccd6eb" d="M74 348.5h401"/>
    </g>
    <g class="highcharts-axis highcharts-yaxis">
        <path fill="none" class="highcharts-axis-line" d="M74 128v220"/>
    </g>
    <g class="highcharts-series-group">
        <g class="highcharts-series highcharts-series-0 highcharts-column-series highcharts-color-undefined highcharts-tracker" transform="translate(74 128)" clip-path="url(#a)">
            <path fill="#ffda80" class="highcharts-point" stroke="#fff" d="M16.5 85.5h8v135h-8zm80-17h8v152h-8zm80-5h8v157h-8zm81 41h8v116h-8zm80 2h8v114h-8z"/>
        </g>
        <g class="highcharts-series highcharts-series-1 highcharts-column-series highcharts-color-undefined highcharts-tracker" transform="translate(74 128)" clip-path="url(#a)">
            <path fill="#fabd24" class="highcharts-point" stroke="#fff" d="M26.5 68.5h8v152h-8zm80 8h8v144h-8zm80-26h8v170h-8zm80 2h8v168h-8zm80 27h8v141h-8z"/>
        </g>
        <g class="highcharts-series highcharts-series-2 highcharts-column-series highcharts-color-undefined highcharts-tracker" transform="translate(74 128)" clip-path="url(#a)">
            <path fill="#cd9c00" class="highcharts-point" stroke="#fff" d="M35.5 59.5h8v161h-8zm80 11h8v150h-8zm81-17h8v167h-8zm80 9h8v158h-8zm80 27h8v131h-8z"/>
        </g>
        <g class="highcharts-series highcharts-series-3 highcharts-column-series highcharts-color-undefined highcharts-tracker" transform="translate(74 128)" clip-path="url(#a)">
            <path fill="#7f5f1a" class="highcharts-point" stroke="#fff" d="M45.5 75.5h8v145h-8zm80 4h8v141h-8zm80-17h8v158h-8zm80-5h8v163h-8zm81 40h8v123h-8z"/>
        </g>
        <g class="highcharts-series highcharts-series-4 highcharts-column-series highcharts-color-undefined highcharts-tracker" transform="translate(74 128)" clip-path="url(#a)">
            <path fill="#948a54" class="highcharts-point" stroke="#fff" d="M54.5 63.5h8v157h-8zm81 2h8v155h-8zm80-3h8v158h-8zm80-1h8v159h-8zm80 33h8v126h-8z"/>
        </g>
    </g>
    <text x="10" class="highcharts-title" style="width:421px" y="21" color="#000" font-size="14" font-weight="700">
        <tspan>LP.5.18.2 Anteil Befragte, die mit dem</tspan><tspan dy="17" x="10">Wohnungsangebot sehr oder eher zufrieden sind</tspan><tspan dy="17" x="10">nach Wohngegend</tspan><title>LP.5.18.2 Anteil Befragte, die mit dem Wohnungsangebot sehr oder eher zufrieden sind nach Wohngegend</title>
    </text>
    <text x="10" class="highcharts-subtitle" style="width:421px" y="76" color="#000" font-weight="400">
        <tspan>«Wie zufrieden sind Sie mit dem Wohnungsangebot»</tspan>
    </text>
    <g class="highcharts-legend" transform="translate(10 75)">
        <rect fill="none" class="highcharts-legend-box" rx="0" ry="0" width="378" height="41"/>
        <g class="highcharts-legend-item highcharts-column-series highcharts-color-undefined highcharts-series-0">
            <text x="21" y="15" color="#333" font-weight="400" cursor="pointer" fill="#333" transform="translate(8 3)">
                Innenstadt
            </text>
            <path fill="#ffda80" class="highcharts-point" d="M10 7h12v12H10z"/>
        </g>
        <g class="highcharts-legend-item highcharts-column-series highcharts-color-undefined highcharts-series-1">
            <text x="21" y="15" color="#333" font-weight="400" cursor="pointer" fill="#333" transform="translate(114.578 3)">
                <tspan>Am Ring</tspan>
            </text>
            <path fill="#fabd24" class="highcharts-point" d="M116.578 7h12v12h-12z"/>
        </g>
        <g class="highcharts-legend-item highcharts-column-series highcharts-color-undefined highcharts-series-2">
            <text x="21" y="15" color="#333" font-weight="400" cursor="pointer" fill="#333" transform="translate(207.672 3)">
                <tspan>St Alban</tspan>
            </text>
            <path fill="#cd9c00" class="highcharts-point" d="M209.672 7h12v12h-12z"/>
        </g>
        <g class="highcharts-legend-item highcharts-column-series highcharts-color-undefined highcharts-series-3">
            <text x="21" y="15" color="#333" font-weight="400" cursor="pointer" fill="#333" transform="translate(300.531 3)">
                Unteres
            </text>
            <path fill="#7f5f1a" class="highcharts-point" d="M302.531 7h12v12h-12z"/>
        </g>
        <g class="highcharts-legend-item highcharts-column-series highcharts-color-undefined highcharts-series-4">
            <text x="21" y="15" color="#333" font-weight="400" cursor="pointer" fill="#333" transform="translate(8 18)">
                Oberes
            </text>
            <path fill="#948a54" class="highcharts-point" d="M10 22h12v12H10z"/>
        </g>
    </g>
    <g class="highcharts-axis-labels highcharts-xaxis-labels" text-anchor="middle" color="#000" cursor="default" font-size="11">
        <text x="114.1" style="width:70px" y="367">
            <tspan>2003</tspan>
        </text>
        <text x="194.3" style="width:70px" y="367">
            <tspan>2005</tspan>
        </text>
        <text x="274.5" style="width:70px" y="367">
            <tspan>2007</tspan>
        </text>
        <text x="354.7" style="width:70px" y="367">
            <tspan>2011</tspan>
        </text>
        <text x="434.9" style="width:70px" y="367">
            <tspan>2015</tspan>
        </text>
    </g>
    <g class="highcharts-axis-labels highcharts-yaxis-labels" text-anchor="end" color="#000" cursor="default" font-size="11">
        <text x="59" style="width:150px" y="352">
            <tspan>0%</tspan>
        </text>
        <text x="59" style="width:150px" y="297">
            <tspan>2 500%</tspan>
        </text>
        <text x="59" style="width:150px" y="242">
            <tspan>5 000%</tspan>
        </text>
        <text x="59" style="width:150px" y="187">
            <tspan>7 500%</tspan>
        </text>
        <text x="59" style="width:150px" y="132">
            <tspan>10 000%</tspan>
        </text>
    </g>
    <text x="10" class="highcharts-credits" y="400" cursor="default" color="#000" font-size="10">
        <tspan>Quelle: Statistisches Amt Basel-Stadt, kantonale Bevölkerungsbefragung: F6_9</tspan>
    </text>
</svg>
