<svg class="highcharts-root" xmlns="http://www.w3.org/2000/svg" viewBox="0 0 485 415" font-family="Arial" font-size="12">
    <defs>
        <clipPath id="a">
            <path fill="none" d="M0 0h401v235H0z"/>
        </clipPath>
    </defs>
    <rect fill="#fbfbfb" class="highcharts-background" width="485" height="415" rx="0" ry="0"/>
    <path fill="none" class="highcharts-plot-background" d="M74 113h401v235H74z"/>
    <g class="highcharts-grid highcharts-xaxis-grid">
        <path fill="none" class="highcharts-grid-line" d="M153.5 113v235m80-235v235m81-235v235m80-235v235m80-235v235m-401-235v235"/>
    </g>
    <g class="highcharts-grid highcharts-yaxis-grid">
        <path fill="none" stroke="#e6e6e6" class="highcharts-grid-line" d="M74 348.5h401m-401-59h401m-401-58h401m-401-59h401m-401-60h401"/>
    </g>
    <path fill="none" class="highcharts-plot-border" d="M74 113h401v235H74z"/>
    <g class="highcharts-axis highcharts-xaxis">
        <path fill="none" class="highcharts-tick" stroke="#FFF" d="M153.5 348v10m80-10v10m81-10v10m80-10v10m80-10v10m-401-10v10"/>
        <path fill="none" class="highcharts-axis-line" stroke="#ccd6eb" d="M74 348.5h401"/>
    </g>
    <g class="highcharts-axis highcharts-yaxis">
        <path fill="none" class="highcharts-axis-line" d="M74 113v235"/>
    </g>
    <g class="highcharts-series-group">
        <g class="highcharts-series highcharts-series-0 highcharts-column-series highcharts-color-undefined highcharts-tracker" transform="translate(74 113)" clip-path="url(#a)">
            <path fill="#cd9c00" class="highcharts-point" stroke="#fff" d="M16.5 13.5h8v222h-8zm80-1h8v223h-8zm80 1h8v222h-8zm81 5h8v217h-8zm80 2h8v215h-8z"/>
        </g>
        <g class="highcharts-series highcharts-series-1 highcharts-column-series highcharts-color-undefined highcharts-tracker" transform="translate(74 113)" clip-path="url(#a)">
            <path fill="#9f7c5a" class="highcharts-point" stroke="#fff" d="M26.5 17.5h8v218h-8zm80-5h8v223h-8zm80-4h8v227h-8zm80 3h8v224h-8zm80 8h8v216h-8z"/>
        </g>
        <g class="highcharts-series highcharts-series-2 highcharts-column-series highcharts-color-undefined highcharts-tracker" transform="translate(74 113)" clip-path="url(#a)">
            <path fill="#b00000" class="highcharts-point" stroke="#fff" d="M35.5 8.5h8v227h-8zm80 1h8v226h-8zm81-1h8v227h-8zm80 0h8v227h-8zm80 2h8v225h-8z"/>
        </g>
        <g class="highcharts-series highcharts-series-3 highcharts-column-series highcharts-color-undefined highcharts-tracker" transform="translate(74 113)" clip-path="url(#a)">
            <path fill="#ff5050" class="highcharts-point" stroke="#fff" d="M45.5 10.5h8v225h-8zm80 0h8v225h-8zm80-1h8v226h-8zm80 7h8v219h-8zm81 4h8v215h-8z"/>
        </g>
        <g class="highcharts-series highcharts-series-4 highcharts-column-series highcharts-color-undefined highcharts-tracker" transform="translate(74 113)" clip-path="url(#a)">
            <path fill="#45381d" class="highcharts-point" stroke="#fff" d="M54.5 11.5h8v224h-8zm81-5h8v229h-8zm80 4h8v225h-8zm80 1h8v224h-8zm80 7h8v217h-8z"/>
        </g>
    </g>
    <text x="10" class="highcharts-title" style="width:421px" y="21" color="#000" font-size="14" font-weight="700">
        <tspan>LP.9.36.1 Anteil Befragte, die sich im Alltag eher</tspan><tspan dy="17" x="10">oder sehr sicher fühlen nach Heimat, Alter und</tspan><tspan dy="17" x="10">Geschlecht</tspan><title>LP.9.36.1 Anteil Befragte, die sich im Alltag eher oder sehr sicher fühlen nach Heimat, Alter und Geschlecht</title>
    </text>
    <text x="10" class="highcharts-subtitle" style="width:421px" y="76" color="#000" font-weight="400">
        <tspan>Wie sicher fühlen Sie sich ganz allgemein im Alltag?</tspan>
    </text>
    <g class="highcharts-legend" transform="translate(10 75)">
        <rect fill="none" class="highcharts-legend-box" rx="0" ry="0" width="429" height="26"/>
        <g class="highcharts-legend-item highcharts-column-series highcharts-color-undefined highcharts-series-0">
            <text x="21" y="15" color="#333" font-weight="400" cursor="pointer" fill="#333" transform="translate(8 3)">
                Schweiz
            </text>
            <path fill="#cd9c00" class="highcharts-point" d="M10 7h12v12H10z"/>
        </g>
        <g class="highcharts-legend-item highcharts-column-series highcharts-color-undefined highcharts-series-1">
            <text x="21" y="15" color="#333" font-weight="400" cursor="pointer" fill="#333" transform="translate(99.156 3)">
                Ausland
            </text>
            <path fill="#9f7c5a" class="highcharts-point" d="M101.156 7h12v12h-12z"/>
        </g>
        <g class="highcharts-legend-item highcharts-column-series highcharts-color-undefined highcharts-series-2">
            <text x="21" y="15" color="#333" font-weight="400" cursor="pointer" fill="#333" transform="translate(189.047 3)">
                <tspan>18-29 J</tspan>
            </text>
            <path fill="#b00000" class="highcharts-point" d="M191.047 7h12v12h-12z"/>
        </g>
        <g class="highcharts-legend-item highcharts-column-series highcharts-color-undefined highcharts-series-3">
            <text x="21" y="15" color="#333" font-weight="400" cursor="pointer" fill="#333" transform="translate(273.203 3)">
                <tspan>30-39 J</tspan>
            </text>
            <path fill="#ff5050" class="highcharts-point" d="M275.203 7h12v12h-12z"/>
        </g>
        <g class="highcharts-legend-item highcharts-column-series highcharts-color-undefined highcharts-series-4">
            <text x="21" y="15" color="#333" font-weight="400" cursor="pointer" fill="#333" transform="translate(357.36 3)">
                <tspan>40-49 J</tspan>
            </text>
            <path fill="#45381d" class="highcharts-point" d="M359.36 7h12v12h-12z"/>
        </g>
    </g>
    <g class="highcharts-axis-labels highcharts-xaxis-labels" text-anchor="middle" color="#000" cursor="default" font-size="11">
        <text x="114.1" style="width:70px" y="367">
            <tspan>2003</tspan>
        </text>
        <text x="194.3" style="width:70px" y="367">
            <tspan>2005</tspan>
        </text>
        <text x="274.5" style="width:70px" y="367">
            <tspan>2007</tspan>
        </text>
        <text x="354.7" style="width:70px" y="367">
            <tspan>2011</tspan>
        </text>
        <text x="434.9" style="width:70px" y="367">
            <tspan>2015</tspan>
        </text>
    </g>
    <g class="highcharts-axis-labels highcharts-yaxis-labels" text-anchor="end" color="#000" cursor="default" font-size="11">
        <text x="59" style="width:150px" y="352">
            <tspan>0%</tspan>
        </text>
        <text x="59" style="width:150px" y="293">
            <tspan>2 500%</tspan>
        </text>
        <text x="59" style="width:150px" y="235">
            <tspan>5 000%</tspan>
        </text>
        <text x="59" style="width:150px" y="176">
            <tspan>7 500%</tspan>
        </text>
        <text x="59" style="width:150px" y="117">
            <tspan>10 000%</tspan>
        </text>
    </g>
    <text x="10" class="highcharts-credits" y="400" cursor="default" color="#000" font-size="10">
        <tspan>Quelle: Statistisches Amt Basel-Stadt, kantonale Bevölkerungsbefragung: F9a</tspan>
    </text>
</svg>
