<svg class="highcharts-root" xmlns="http://www.w3.org/2000/svg" viewBox="0 0 485 415" font-family="Arial" font-size="12">
    <rect fill="#fbfbfb" class="highcharts-background" width="485" height="415" rx="0" ry="0"/>
    <path fill="none" class="highcharts-plot-background" d="M53 183h422v112H53z"/>
    <g class="highcharts-grid highcharts-xaxis-grid">
        <path fill="none" class="highcharts-grid-line" d="M53 194.5h422m-422 11h422m-422 12h422m-422 11h422m-422 11h422m-422 11h422m-422 11h422m-422 12h422m-422 11h422m-422 11h422"/>
    </g>
    <g class="highcharts-grid highcharts-yaxis-grid">
        <path fill="none" stroke="#e6e6e6" class="highcharts-grid-line" d="M52.5 183v112m70-112v112m71-112v112m70-112v112m70-112v112m71-112v112m70-112v112"/>
    </g>
    <path fill="none" class="highcharts-plot-border" d="M53 183h422v112H53z"/>
    <g class="highcharts-axis highcharts-xaxis">
        <path fill="none" class="highcharts-tick" stroke="#FFF" d="M53 194.5H43m10 11H43m10 12H43m10 11H43m10 11H43m10 11H43m10 11H43m10 12H43m10 11H43m10 11H43"/>
        <path fill="none" class="highcharts-axis-line" stroke="#ccd6eb" d="M52.5 183v112"/>
    </g>
    <g class="highcharts-axis highcharts-yaxis">
        <path fill="none" class="highcharts-axis-line" d="M53 295h422"/>
    </g>
    <g class="highcharts-series-group">
        <g class="highcharts-markers highcharts-series-0 highcharts-scatter-series highcharts-color-undefined highcharts-tracker">
            <path fill="#b00000" d="M77 290c0-5.328-8-5.328-8 0s8 5.328 8 0zm-3-11c0-5.328-8-5.328-8 0s8 5.328 8 0zm-2-12c0-5.328-8-5.328-8 0s8 5.328 8 0zm11-11c0-5.328-8-5.328-8 0s8 5.328 8 0zm1-11c0-5.328-8-5.328-8 0s8 5.328 8 0zm-13-11c0-5.328-8-5.328-8 0s8 5.328 8 0zm42-11c0-5.328-8-5.328-8 0s8 5.328 8 0zm27-12c0-5.328-8-5.328-8 0s8 5.328 8 0zm-72-11c0-5.328-8-5.328-8 0s8 5.328 8 0zm7-11c0-5.328-8-5.328-8 0s8 5.328 8 0z" class="highcharts-point"/>
        </g>
        <g class="highcharts-markers highcharts-series-1 highcharts-scatter-series highcharts-color-undefined highcharts-tracker">
            <path fill="#71a3b5" d="M87 290l-4-4-4 4 4 4zm-1-11l-4-4-4 4 4 4zm-2-12l-4-4-4 4 4 4zm-1-11l-4-4-4 4 4 4zm-2-11l-4-4-4 4 4 4zm0-11l-4-4-4 4 4 4zm1-11l-4-4-4 4 4 4zm41-12l-4-4-4 4 4 4zm-2-11l-4-4-4 4 4 4zm-2-11l-4-4-4 4 4 4z" class="highcharts-point"/>
        </g>
        <g class="highcharts-markers highcharts-series-2 highcharts-scatter-series highcharts-color-undefined highcharts-tracker">
            <path fill="#474747" d="M160 294v-8h-8v8zm-6-11v-8h-8v8zm-4-12v-8h-8v8zm-7-11v-8h-8v8zm-3-11v-8h-8v8zm-2-11v-8h-8v8zm-3-11v-8h-8v8zm291-12v-8h-8v8zm-159-11v-8h-8v8zm11-11v-8h-8v8z" class="highcharts-point"/>
        </g>
        <g class="highcharts-markers highcharts-series-3 highcharts-scatter-series highcharts-color-undefined highcharts-tracker">
            <path fill="#672773" d="M77 290l-8-4v8zm-2-11l-8-4v8zm1-12l-8-4v8zm-2-11l-8-4v8zm-1-11l-8-4v8zm0-11l-8-4v8zm1-11l-8-4v8zm28-12l-8-4v8zm-3-11l-8-4v8zm-1-11l-8-4v8z" class="highcharts-point"/>
        </g>
        <g class="highcharts-markers highcharts-series-4 highcharts-scatter-series highcharts-color-undefined highcharts-tracker">
            <path fill="#8a8a8a" d="M100 294v-8l-8 4zm0-11v-8l-8 4zm19-12v-8l-8 4zm-16-11v-8l-8 4zm-1-11v-8l-8 4zm1-11v-8l-8 4zm-5-11v-8l-8 4zm176-12v-8l-8 4zm-5-11v-8l-8 4zm-4-11v-8l-8 4z" class="highcharts-point"/>
        </g>
        <g class="highcharts-markers highcharts-series-5 highcharts-scatter-series highcharts-color-undefined highcharts-tracker">
            <path fill="#44ab2b" d="M125 290c0-5.328-8-5.328-8 0s8 5.328 8 0zm-5-11c0-5.328-8-5.328-8 0s8 5.328 8 0zm-1-12c0-5.328-8-5.328-8 0s8 5.328 8 0zm-3-11c0-5.328-8-5.328-8 0s8 5.328 8 0zm-3-11c0-5.328-8-5.328-8 0s8 5.328 8 0zm-2-11c0-5.328-8-5.328-8 0s8 5.328 8 0zm-4-11c0-5.328-8-5.328-8 0s8 5.328 8 0zm113-12c0-5.328-8-5.328-8 0s8 5.328 8 0zm-2-11c0-5.328-8-5.328-8 0s8 5.328 8 0zm-6-11c0-5.328-8-5.328-8 0s8 5.328 8 0z" class="highcharts-point"/>
        </g>
        <g class="highcharts-markers highcharts-series-6 highcharts-scatter-series highcharts-color-undefined highcharts-tracker">
            <path fill="#9f7c5a" d="M75 290l-4-4-4 4 4 4zm4-11l-4-4-4 4 4 4zm-9-12l-4-4-4 4 4 4zm-4-11l-4-4-4 4 4 4zm0-11l-4-4-4 4 4 4zm0-11l-4-4-4 4 4 4zm2-11l-4-4-4 4 4 4zm33-12l-4-4-4 4 4 4zm14-11l-4-4-4 4 4 4zm-4-11l-4-4-4 4 4 4z" class="highcharts-point"/>
        </g>
        <g class="highcharts-markers highcharts-series-7 highcharts-scatter-series highcharts-color-undefined highcharts-tracker">
            <path fill="#dc440e" d="M63 294v-8h-8v8zm0-11v-8h-8v8zm0-12v-8h-8v8zm1-11v-8h-8v8zm0-11v-8h-8v8zm-1-11v-8h-8v8zm2-11v-8h-8v8zm5-12v-8h-8v8zm-2-11v-8h-8v8zm1-11v-8h-8v8z" class="highcharts-point"/>
        </g>
        <g class="highcharts-markers highcharts-series-8 highcharts-scatter-series highcharts-color-undefined highcharts-tracker">
            <path fill="#007a2f" d="M59 290l-8-4v8zm-1-11l-8-4v8zm0-12l-8-4v8zm1-11l-8-4v8zm8-11l-8-4v8zm-4-11l-8-4v8zm-3-11l-8-4v8zm1-12l-8-4v8zm0-11l-8-4v8zm-1-11l-8-4v8z" class="highcharts-point"/>
        </g>
        <g class="highcharts-markers highcharts-series-9 highcharts-scatter-series highcharts-color-undefined highcharts-tracker">
            <path fill="#b475ab" d="M80 294v-8l-8 4zm1-11v-8l-8 4zm-5-12v-8l-8 4zm0-11v-8l-8 4zm-1-11v-8l-8 4zm1-11v-8l-8 4zm0-11v-8l-8 4zm17-12v-8l-8 4zm-2-11v-8l-8 4zm-5-11v-8l-8 4z" class="highcharts-point"/>
        </g>
    </g>
    <text x="10" class="highcharts-title" style="width:421px" y="21" color="#000" font-size="14" font-weight="700">
        <tspan>LP.8.35.1 Entwicklung der Staatsausgaben nach</tspan><tspan dy="17" x="10">Funktion in 1000 Franken</tspan><title>LP.8.35.1 Entwicklung der Staatsausgaben nach Funktion in 1000 Franken</title>
    </text>
    <g class="highcharts-legend" transform="translate(65 60)">
        <rect fill="none" class="highcharts-legend-box" rx="0" ry="0" width="356" height="111"/>
        <g class="highcharts-legend-item highcharts-scatter-series highcharts-color-undefined highcharts-series-0">
            <path fill="none" d="M8 14h16" class="highcharts-graph"/>
            <path fill="#b00000" d="M16 10c5.328 0 5.328 8 0 8s-5.328-8 0-8z" class="highcharts-point"/>
            <text x="21" y="15" color="#333" font-weight="400" cursor="pointer" fill="#333" transform="translate(8 3)">
                <tspan>Allgemeine Verwaltung</tspan>
            </text>
        </g>
        <g class="highcharts-legend-item highcharts-scatter-series highcharts-color-undefined highcharts-series-1">
            <path fill="none" d="M188 14h16" class="highcharts-graph"/>
            <path fill="#71a3b5" d="M196 10l4 4-4 4-4-4z" class="highcharts-point"/>
            <text x="21" y="15" color="#333" font-weight="400" cursor="pointer" fill="#333" transform="translate(188 3)">
                <tspan>Öffentliche Ordnung und Sicherheit</tspan>
            </text>
        </g>
        <g class="highcharts-legend-item highcharts-scatter-series highcharts-color-undefined highcharts-series-2">
            <path fill="none" d="M8 34h16" class="highcharts-graph"/>
            <path fill="#474747" d="M12 30h8v8h-8z" class="highcharts-point"/>
            <text x="21" y="15" color="#333" font-weight="400" cursor="pointer" fill="#333" transform="translate(8 23)">
                Bildung
            </text>
        </g>
        <g class="highcharts-legend-item highcharts-scatter-series highcharts-color-undefined highcharts-series-3">
            <path fill="none" d="M188 34h16" class="highcharts-graph"/>
            <path fill="#672773" d="M196 30l4 8h-8z" class="highcharts-point"/>
            <text x="21" y="15" color="#333" font-weight="400" cursor="pointer" fill="#333" transform="translate(188 23)">
                <tspan>Kultur, Sport und Freizeit, Kirche</tspan>
            </text>
        </g>
        <g class="highcharts-legend-item highcharts-scatter-series highcharts-color-undefined highcharts-series-4">
            <path fill="none" d="M8 54h16" class="highcharts-graph"/>
            <path fill="#8a8a8a" d="M12 50h8l-4 8z" class="highcharts-point"/>
            <text x="21" y="15" color="#333" font-weight="400" cursor="pointer" fill="#333" transform="translate(8 43)">
                Gesundheit
            </text>
        </g>
        <g class="highcharts-legend-item highcharts-scatter-series highcharts-color-undefined highcharts-series-5">
            <path fill="none" d="M188 54h16" class="highcharts-graph"/>
            <path fill="#44ab2b" d="M196 50c5.328 0 5.328 8 0 8s-5.328-8 0-8z" class="highcharts-point"/>
            <text x="21" y="15" color="#333" font-weight="400" cursor="pointer" fill="#333" transform="translate(188 43)">
                <tspan>Soziale Sicherheit</tspan>
            </text>
        </g>
        <g class="highcharts-legend-item highcharts-scatter-series highcharts-color-undefined highcharts-series-6">
            <path fill="none" d="M8 74h16" class="highcharts-graph"/>
            <path fill="#9f7c5a" d="M16 70l4 4-4 4-4-4z" class="highcharts-point"/>
            <text x="21" y="15" color="#333" font-weight="400" cursor="pointer" fill="#333" transform="translate(8 63)">
                Verkehr
            </text>
        </g>
        <g class="highcharts-legend-item highcharts-scatter-series highcharts-color-undefined highcharts-series-7">
            <path fill="none" d="M188 74h16" class="highcharts-graph"/>
            <path fill="#dc440e" d="M192 70h8v8h-8z" class="highcharts-point"/>
            <text x="21" y="15" color="#333" font-weight="400" cursor="pointer" fill="#333" transform="translate(188 63)">
                <tspan>Umweltschutz und Raumordnung</tspan>
            </text>
        </g>
        <g class="highcharts-legend-item highcharts-scatter-series highcharts-color-undefined highcharts-series-8">
            <path fill="none" d="M8 94h16" class="highcharts-graph"/>
            <path fill="#007a2f" d="M16 90l4 8h-8z" class="highcharts-point"/>
            <text x="21" y="15" color="#333" font-weight="400" cursor="pointer" fill="#333" transform="translate(8 83)">
                Volkswirtschaft
            </text>
        </g>
        <g class="highcharts-legend-item highcharts-scatter-series highcharts-color-undefined highcharts-series-9">
            <path fill="none" d="M188 94h16" class="highcharts-graph"/>
            <path fill="#b475ab" d="M192 90h8l-4 8z" class="highcharts-point"/>
            <text x="21" y="15" color="#333" font-weight="400" cursor="pointer" fill="#333" transform="translate(188 83)">
                <tspan>Finanzen und Steuern</tspan>
            </text>
        </g>
    </g>
    <g class="highcharts-axis-labels highcharts-xaxis-labels" text-anchor="end" color="#000" cursor="default" font-size="11">
        <text x="38" style="width:150px" y="193" text-overflow="ellipsis">
            <tspan>2005</tspan>
        </text>
        <text x="38" style="width:150px" y="204" text-overflow="ellipsis">
            <tspan>2006</tspan>
        </text>
        <text x="38" style="width:150px" y="215" text-overflow="ellipsis">
            <tspan>2007</tspan>
        </text>
        <text x="38" style="width:150px" y="226" text-overflow="ellipsis">
            <tspan>2008</tspan>
        </text>
        <text x="38" style="width:150px" y="237" text-overflow="ellipsis">
            <tspan>2009</tspan>
        </text>
        <text x="38" style="width:150px" y="249" text-overflow="ellipsis">
            <tspan>2010</tspan>
        </text>
        <text x="38" style="width:150px" y="260" text-overflow="ellipsis">
            <tspan>2011</tspan>
        </text>
        <text x="38" style="width:150px" y="271" text-overflow="ellipsis">
            <tspan>2012</tspan>
        </text>
        <text x="38" style="width:150px" y="282" text-overflow="ellipsis">
            <tspan>2013</tspan>
        </text>
        <text x="38" style="width:150px" y="293" text-overflow="ellipsis">
            <tspan>2014</tspan>
        </text>
    </g>
    <g class="highcharts-axis-labels highcharts-yaxis-labels" text-anchor="end" color="#000" cursor="default" font-size="11">
        <text x="55.593" style="width:415px" transform="rotate(-45 55.593 311)" y="311" text-overflow="ellipsis">
            <tspan>0%</tspan>
        </text>
        <text x="125.926" style="width:415px" transform="rotate(-45 125.926 311)" y="311" text-overflow="ellipsis">
            <tspan>100 000 000%</tspan>
        </text>
        <text x="196.259" style="width:415px" transform="rotate(-45 196.26 311)" y="311" text-overflow="ellipsis">
            <tspan>200 000 000%</tspan>
        </text>
        <text x="266.593" style="width:415px" transform="rotate(-45 266.593 311)" y="311" text-overflow="ellipsis">
            <tspan>300 000 000%</tspan>
        </text>
        <text x="336.926" style="width:415px" transform="rotate(-45 336.926 311)" y="311" text-overflow="ellipsis">
            <tspan>400 000 000%</tspan>
        </text>
        <text x="407.259" style="width:415px" transform="rotate(-45 407.26 311)" y="311" text-overflow="ellipsis">
            <tspan>500 000 000%</tspan>
        </text>
        <text x="477.593" style="width:415px" transform="rotate(-45 477.593 311)" y="311" text-overflow="ellipsis">
            <tspan>600 000 000%</tspan>
        </text>
    </g>
    <text x="10" class="highcharts-credits" y="400" cursor="default" color="#000" font-size="10">
        <tspan>Quelle: Eidgenössische Finanzverwaltung</tspan>
    </text>
</svg>
