<svg class="highcharts-root" xmlns="http://www.w3.org/2000/svg" viewBox="0 0 485 415" font-family="Arial" font-size="12">
    <defs>
        <clipPath id="a">
            <path fill="none" d="M0 0h426v250H0z"/>
        </clipPath>
    </defs>
    <rect fill="#fbfbfb" class="highcharts-background" width="485" height="415" rx="0" ry="0"/>
    <path fill="none" class="highcharts-plot-background" d="M49 100h426v250H49z"/>
    <g class="highcharts-grid highcharts-xaxis-grid">
        <path fill="none" class="highcharts-grid-line" d="M73.5 100v250m42-250v250m41-250v250m42-250v250m42-250v250m42-250v250m42-250v250m42-250v250m41-250v250m42-250v250"/>
    </g>
    <g class="highcharts-grid highcharts-yaxis-grid">
        <path fill="none" stroke="#e6e6e6" class="highcharts-grid-line" d="M49 350.5h426m-426-83h426m-426-84h426m-426-83h426"/>
    </g>
    <path fill="none" class="highcharts-plot-border" d="M49 100h426v250H49z"/>
    <g class="highcharts-axis highcharts-xaxis">
        <path fill="none" class="highcharts-axis-line" stroke="#ccd6eb" d="M49 350.5h426"/>
    </g>
    <g class="highcharts-axis highcharts-yaxis">
        <path fill="none" class="highcharts-axis-line" d="M49 100v250"/>
    </g>
    <g class="highcharts-series-group">
        <g class="highcharts-series highcharts-series-0 highcharts-column-series highcharts-color-undefined highcharts-tracker" transform="translate(49 100)" clip-path="url(#a)">
            <path fill="#b00000" class="highcharts-point" stroke="#fff" d="M7.5 60.5h17v190h-17zm42 0h17v190h-17zm42-2h16v192h-16zm41-5h17v197h-17zm42-3h17v200h-17zm42-2h17v202h-17zm42 7h17v195h-17zm42 3h17v192h-17zm42-2h16v194h-16zm42-1h16v195h-16z"/>
        </g>
        <g class="highcharts-series highcharts-series-1 highcharts-column-series highcharts-color-undefined highcharts-tracker" transform="translate(49 100)" clip-path="url(#a)">
            <path fill="#71a3b5" class="highcharts-point" stroke="#fff" d="M24.5 186.5h16v64h-16zm42-12h16v76h-16zm41-10h17v86h-17zm42 1h17v85h-17zm42-17h17v102h-17zm42 7h17v95h-17zm42 9h17v86h-17zm42-3h16v89h-16zm41-13h17v102h-17zm42 6h17v96h-17z"/>
        </g>
        <g class="highcharts-series highcharts-series-2 highcharts-line-series highcharts-color-undefined" transform="translate(49 100)" clip-path="url(#a)">
            <path fill="none" d="M24.69 101.393l41.846-7.089 41.847-4.004 41.847-4.023 41.847-7.951 41.846 2.357 41.847 7.428 41.847 2.084 41.847-4.955 41.846 2.567" class="highcharts-graph" stroke="#ff8028" stroke-width="2" stroke-linejoin="round" stroke-linecap="round"/>
            <path fill="none" d="M14.69 101.393h10l41.846-7.089 41.847-4.004 41.847-4.023 41.847-7.951 41.846 2.357 41.847 7.428 41.847 2.084 41.847-4.955 41.846 2.567h10" stroke-linejoin="round" stroke="rgba(192,192,192,0.0001)" stroke-width="22" class="highcharts-tracker"/>
        </g>
        <g class="highcharts-markers highcharts-series-2 highcharts-line-series highcharts-color-undefined highcharts-tracker">
            <path fill="#ff8028" d="M450 184c5.328 0 5.328 8 0 8s-5.328-8 0-8zm-42-3c5.328 0 5.328 8 0 8s-5.328-8 0-8zm-42 5c5.328 0 5.328 8 0 8s-5.328-8 0-8zm-42-2c5.328 0 5.328 8 0 8s-5.328-8 0-8zm-42-7c5.328 0 5.328 8 0 8s-5.328-8 0-8zm-41-3c5.328 0 5.328 8 0 8s-5.328-8 0-8zm-42 8c5.328 0 5.328 8 0 8s-5.328-8 0-8zm-42 4c5.328 0 5.328 8 0 8s-5.328-8 0-8zm-42 4c5.328 0 5.328 8 0 8s-5.328-8 0-8zm-42 7c5.328 0 5.328 8 0 8s-5.328-8 0-8z" class="highcharts-point"/>
        </g>
    </g>
    <text x="10" class="highcharts-title" style="width:421px" y="21" color="#000" font-size="14" font-weight="700">
        <tspan>LP.7.26.1 Entwicklung der Gymnasialquote nach</tspan><tspan dy="17" x="10">Heimat</tspan><title>LP.7.26.1 Entwicklung der Gymnasialquote nach Heimat</title>
    </text>
    <g class="highcharts-legend" transform="translate(40 55)">
        <rect fill="none" class="highcharts-legend-box" rx="0" ry="0" width="335" height="26"/>
        <g class="highcharts-legend-item highcharts-column-series highcharts-color-undefined highcharts-series-0">
            <text x="21" y="15" color="#333" font-weight="400" cursor="pointer" fill="#333" transform="translate(8 3)">
                Schweiz
            </text>
            <path fill="#b00000" class="highcharts-point" d="M10 7h12v12H10z"/>
        </g>
        <g class="highcharts-legend-item highcharts-column-series highcharts-color-undefined highcharts-series-1">
            <text x="21" y="15" color="#333" font-weight="400" cursor="pointer" fill="#333" transform="translate(99.156 3)">
                Ausland
            </text>
            <path fill="#71a3b5" class="highcharts-point" d="M101.156 7h12v12h-12z"/>
        </g>
        <g class="highcharts-legend-item highcharts-line-series highcharts-color-undefined highcharts-series-2">
            <path fill="none" d="M189.047 14h16" class="highcharts-graph" stroke="#ff8028" stroke-width="2"/>
            <path fill="#ff8028" d="M197.047 10c5.328 0 5.328 8 0 8s-5.328-8 0-8z" class="highcharts-point"/>
            <text x="21" y="15" color="#333" font-weight="400" cursor="pointer" fill="#333" transform="translate(189.047 3)">
                <tspan>Kanton Basel-Stadt</tspan>
            </text>
        </g>
    </g>
    <g class="highcharts-axis-labels highcharts-xaxis-labels" text-anchor="middle" color="#000" cursor="default" font-size="11">
        <text x="73.69" y="369">
            2006
        </text>
        <text x="115.536" y="369">
            2007
        </text>
        <text x="157.383" y="369">
            2008
        </text>
        <text x="199.23" y="369">
            2009
        </text>
        <text x="241.077" y="369">
            2010
        </text>
        <text x="282.923" y="369">
            2011
        </text>
        <text x="324.77" y="369">
            2012
        </text>
        <text x="366.617" y="369">
            2013
        </text>
        <text x="408.464" y="369">
            2014
        </text>
        <text x="450.31" y="369">
            2015
        </text>
    </g>
    <g class="highcharts-axis-labels highcharts-yaxis-labels" text-anchor="end" color="#000" cursor="default" font-size="11">
        <text x="34" style="width:150px" y="354">
            <tspan>0%</tspan>
        </text>
        <text x="34" style="width:150px" y="271">
            <tspan>20%</tspan>
        </text>
        <text x="34" style="width:150px" y="187">
            <tspan>40%</tspan>
        </text>
        <text x="34" style="width:150px" y="104">
            <tspan>60%</tspan>
        </text>
    </g>
    <text x="10" class="highcharts-credits" y="400" cursor="default" color="#000" font-size="10">
        <tspan>Quelle: Statistisches Amt Basel-Stadt, Bildungsstatistik</tspan>
    </text>
</svg>
