<svg class="highcharts-root" xmlns="http://www.w3.org/2000/svg" viewBox="0 0 485 415" font-family="Arial" font-size="12">
    <rect fill="#fbfbfb" class="highcharts-background" width="485" height="415" rx="0" ry="0"/>
    <path fill="none" class="highcharts-plot-background" d="M53 60h422v288H53z"/>
    <g class="highcharts-grid highcharts-xaxis-grid">
        <path fill="none" class="highcharts-grid-line" d="M53 96.5h422m-422 36h422m-422 36h422m-422 36h422m-422 36h422m-422 36h422m-422 36h422m-422 36h422"/>
    </g>
    <g class="highcharts-grid highcharts-yaxis-grid">
        <path fill="none" stroke="#e6e6e6" class="highcharts-grid-line" d="M52.5 60v288m84-288v288m85-288v288m84-288v288m85-288v288m85-288v288"/>
    </g>
    <path fill="none" class="highcharts-plot-border" d="M53 60h422v288H53z"/>
    <g class="highcharts-axis highcharts-xaxis">
        <path fill="none" class="highcharts-tick" stroke="#FFF" d="M53 96.5H43m10 36H43m10 36H43m10 36H43m10 36H43m10 36H43m10 36H43m10 36H43"/>
        <path fill="none" class="highcharts-axis-line" stroke="#ccd6eb" d="M52.5 60v288"/>
    </g>
    <g class="highcharts-axis highcharts-yaxis">
        <path fill="none" class="highcharts-axis-line" d="M53 348h422"/>
    </g>
    <g class="highcharts-series-group">
        <g class="highcharts-markers highcharts-series-0 highcharts-scatter-series highcharts-color-undefined highcharts-tracker">
            <path fill="#73ba7c" d="M234 330c0-5.328-8-5.328-8 0s8 5.328 8 0zm17-36c0-5.328-8-5.328-8 0s8 5.328 8 0zm9-36c0-5.328-8-5.328-8 0s8 5.328 8 0zm42-36c0-5.328-8-5.328-8 0s8 5.328 8 0zm-93-36c0-5.328-8-5.328-8 0s8 5.328 8 0zm0-36c0-5.328-8-5.328-8 0s8 5.328 8 0zm59-36c0-5.328-8-5.328-8 0s8 5.328 8 0zm8-36c0-5.328-8-5.328-8 0s8 5.328 8 0z" class="highcharts-point"/>
        </g>
    </g>
    <text x="10" class="highcharts-title" style="width:421px" y="21" color="#000" font-size="14" font-weight="700">
        <tspan>LP.1.01.2 Anzahl durch BaselArea unterstützte</tspan><tspan dy="17" x="10">internationaler Ansiedlungen</tspan><title>LP.1.01.2 Anzahl durch BaselArea unterstützte internationaler Ansiedlungen</title>
    </text>
    <g class="highcharts-data-labels highcharts-series-0 highcharts-scatter-series highcharts-color-undefined highcharts-tracker">
        <text x="5" style="text-outline:1px contrast" y="15" font-size="10" font-weight="700" color="#000" transform="translate(277 57)" class="highcharts-label highcharts-data-label highcharts-data-label-color-undefined">
            <tspan x="5" y="15" class="highcharts-text-outline" fill="#FFF" stroke="#FFF" stroke-width="2" stroke-linejoin="round">26</tspan><tspan x="5" y="15">26</tspan>
        </text>
        <text x="5" style="text-outline:1px contrast" y="15" font-size="10" font-weight="700" color="#000" transform="translate(235 309)" class="highcharts-label highcharts-data-label highcharts-data-label-color-undefined">
            <tspan x="5" y="15" class="highcharts-text-outline" fill="#FFF" stroke="#FFF" stroke-width="2" stroke-linejoin="round">21</tspan><tspan x="5" y="15">21</tspan>
        </text>
    </g>
    <g class="highcharts-axis-labels highcharts-xaxis-labels" text-anchor="end" color="#000" cursor="default" font-size="11">
        <text x="38" style="width:150px" y="82">
            <tspan>2008</tspan>
        </text>
        <text x="38" style="width:150px" y="118">
            <tspan>2009</tspan>
        </text>
        <text x="38" style="width:150px" y="154">
            <tspan>2010</tspan>
        </text>
        <text x="38" style="width:150px" y="190">
            <tspan>2011</tspan>
        </text>
        <text x="38" style="width:150px" y="226">
            <tspan>2012</tspan>
        </text>
        <text x="38" style="width:150px" y="262">
            <tspan>2013</tspan>
        </text>
        <text x="38" style="width:150px" y="298">
            <tspan>2014</tspan>
        </text>
        <text x="38" style="width:150px" y="334">
            <tspan>2015</tspan>
        </text>
    </g>
    <g class="highcharts-axis-labels highcharts-yaxis-labels" text-anchor="middle" color="#000" cursor="default" font-size="11">
        <text x="53" style="width:74px" y="367">
            <tspan>0%</tspan>
        </text>
        <text x="137.4" style="width:74px" y="367">
            <tspan>1 000%</tspan>
        </text>
        <text x="221.8" style="width:74px" y="367">
            <tspan>2 000%</tspan>
        </text>
        <text x="306.2" style="width:74px" y="367">
            <tspan>3 000%</tspan>
        </text>
        <text x="390.6" style="width:74px" y="367">
            <tspan>4 000%</tspan>
        </text>
        <text x="454.063" style="width:74px" y="367">
            <tspan>5 000%</tspan>
        </text>
    </g>
    <text x="10" class="highcharts-credits" y="400" cursor="default" color="#000" font-size="10">
        <tspan>Quelle: BaselArea</tspan>
    </text>
</svg>
