<svg class="highcharts-root" xmlns="http://www.w3.org/2000/svg" viewBox="0 0 485 415" font-family="Arial" font-size="12">
    <defs>
        <clipPath id="a">
            <path fill="none" d="M0 0h436v288H0z"/>
        </clipPath>
    </defs>
    <rect fill="#fbfbfb" class="highcharts-background" width="485" height="415" rx="0" ry="0"/>
    <path fill="none" class="highcharts-plot-background" d="M39 60h436v288H39z"/>
    <g class="highcharts-grid highcharts-xaxis-grid">
        <path fill="none" class="highcharts-grid-line" d="M42.5 60v288m61-288v288m61-288v288m61-288v288m62-288v288m61-288v288m61-288v288m61-288v288"/>
    </g>
    <g class="highcharts-grid highcharts-yaxis-grid">
        <path fill="none" stroke="#e6e6e6" class="highcharts-grid-line" d="M39 348.5h436m-436-58h436m-436-57h436m-436-58h436m-436-57h436m-436-59h436"/>
    </g>
    <path fill="none" class="highcharts-plot-border" d="M39 60h436v288H39z"/>
    <g class="highcharts-axis highcharts-xaxis">
        <path fill="none" class="highcharts-axis-line" stroke="#ccd6eb" d="M39 348.5h436"/>
    </g>
    <g class="highcharts-axis highcharts-yaxis">
        <path fill="none" class="highcharts-axis-line" d="M39 60v288"/>
    </g>
    <g class="highcharts-series-group">
        <g class="highcharts-series highcharts-series-0 highcharts-line-series highcharts-color-undefined" transform="translate(39 60)" clip-path="url(#a)">
            <path fill="none" d="M4.275 138.24L65.339 144l61.064 40.32h61.065l61.064-63.36 61.065 28.8 61.064 5.76 61.064 11.52" class="highcharts-graph" stroke="#73ba7c" stroke-width="2" stroke-linejoin="round" stroke-linecap="round"/>
            <path fill="none" d="M-5.725 138.24h10L65.339 144l61.064 40.32h61.065l61.064-63.36 61.065 28.8 61.064 5.76 61.064 11.52h10" stroke-linejoin="round" stroke="rgba(192,192,192,0.0001)" stroke-width="22" class="highcharts-tracker"/>
        </g>
        <g class="highcharts-markers highcharts-series-0 highcharts-line-series highcharts-color-undefined highcharts-tracker">
            <path fill="#73ba7c" d="M470 223c5.328 0 5.328 8 0 8s-5.328-8 0-8zm-61-11c5.328 0 5.328 8 0 8s-5.328-8 0-8zm-61-6c5.328 0 5.328 8 0 8s-5.328-8 0-8zm-61-29c5.328 0 5.328 8 0 8s-5.328-8 0-8zm-61 63c5.328 0 5.328 8 0 8s-5.328-8 0-8zm-61 0c5.328 0 5.328 8 0 8s-5.328-8 0-8zm-61-40c5.328 0 5.328 8 0 8s-5.328-8 0-8zm-61-6c5.328 0 5.328 8 0 8s-5.328-8 0-8z" class="highcharts-point"/>
        </g>
    </g>
    <text x="10" class="highcharts-title" style="width:421px" y="21" color="#000" font-size="14" font-weight="700">
        <tspan>LP.1.01.2 Anzahl durch BaselArea unterstützte</tspan><tspan dy="17" x="10">internationaler Ansiedlungen</tspan><title>LP.1.01.2 Anzahl durch BaselArea unterstützte internationaler Ansiedlungen</title>
    </text>
    <g class="highcharts-data-labels highcharts-series-0 highcharts-line-series highcharts-color-undefined">
        <text x="5" style="text-outline:1px contrast" y="16" font-size="11" font-weight="700" color="#000" transform="translate(34 164)" class="highcharts-label highcharts-data-label highcharts-data-label-color-undefined">
            <tspan x="5" y="16" class="highcharts-text-outline" fill="#FFF" stroke="#FFF" stroke-width="2" stroke-linejoin="round">26</tspan><tspan x="5" y="16">26</tspan>
        </text>
        <text x="5" style="text-outline:1px contrast" y="16" font-size="11" font-weight="700" color="#000" transform="translate(456 193)" class="highcharts-label highcharts-data-label highcharts-data-label-color-undefined">
            <tspan x="5" y="16" class="highcharts-text-outline" fill="#FFF" stroke="#FFF" stroke-width="2" stroke-linejoin="round">21</tspan><tspan x="5" y="16">21</tspan>
        </text>
    </g>
    <g class="highcharts-axis-labels highcharts-xaxis-labels" text-anchor="middle" color="#000" cursor="default" font-size="11">
        <text x="43.275" y="367">
            2008
        </text>
        <text x="104.339" y="367">
            2009
        </text>
        <text x="165.403" y="367">
            2010
        </text>
        <text x="226.468" y="367">
            2011
        </text>
        <text x="287.532" y="367">
            2012
        </text>
        <text x="348.597" y="367">
            2013
        </text>
        <text x="409.661" y="367">
            2014
        </text>
        <text x="461.031" y="367">
            2015
        </text>
    </g>
    <g class="highcharts-axis-labels highcharts-yaxis-labels" text-anchor="end" color="#000" cursor="default" font-size="11">
        <text x="24" style="width:150px" y="352">
            <tspan>0</tspan>
        </text>
        <text x="24" style="width:150px" y="294">
            <tspan>10</tspan>
        </text>
        <text x="24" style="width:150px" y="237">
            <tspan>20</tspan>
        </text>
        <text x="24" style="width:150px" y="179">
            <tspan>30</tspan>
        </text>
        <text x="24" style="width:150px" y="122">
            <tspan>40</tspan>
        </text>
        <text x="24" style="width:150px" y="64">
            <tspan>50</tspan>
        </text>
    </g>
    <text x="10" class="highcharts-credits" y="400" cursor="default" color="#000" font-size="10">
        <tspan>Quelle: BaselArea</tspan>
    </text>
</svg>
