<svg class="highcharts-root" xmlns="http://www.w3.org/2000/svg" viewBox="0 0 485 415" font-family="Arial" font-size="12">
    <defs>
        <clipPath id="a">
            <path fill="none" d="M0 0h426v157H0z"/>
        </clipPath>
    </defs>
    <rect fill="#fbfbfb" class="highcharts-background" width="485" height="415" rx="0" ry="0"/>
    <path fill="none" class="highcharts-plot-background" d="M49 163h426v157H49z"/>
    <g class="highcharts-grid highcharts-xaxis-grid">
        <path fill="none" class="highcharts-grid-line" d="M133.5 163v157m85-157v157m86-157v157m85-157v157m85-157v157m-426-157v157"/>
    </g>
    <g class="highcharts-grid highcharts-yaxis-grid">
        <path fill="none" stroke="#e6e6e6" class="highcharts-grid-line" d="M49 320.5h426m-426-78h426m-426-80h426"/>
    </g>
    <path fill="none" class="highcharts-plot-border" d="M49 163h426v157H49z"/>
    <g class="highcharts-axis highcharts-xaxis">
        <path fill="none" class="highcharts-tick" stroke="#FFF" d="M133.5 320v10m85-10v10m86-10v10m85-10v10m85-10v10m-426-10v10"/>
        <path fill="none" class="highcharts-axis-line" stroke="#ccd6eb" d="M49 320.5h426"/>
    </g>
    <g class="highcharts-axis highcharts-yaxis">
        <path fill="none" class="highcharts-axis-line" d="M49 163v157"/>
    </g>
    <g class="highcharts-series-group">
        <g class="highcharts-series highcharts-series-0 highcharts-column-series highcharts-color-undefined highcharts-tracker" transform="translate(49 163)" clip-path="url(#a)">
            <path fill="#b00000" class="highcharts-point" stroke="#fff" d="M17.5 93.5h9v64h-9zm85-36h9v100h-9zm85 68h9v32h-9zm86 21h9v11h-9zm85-208h9v219h-9z"/>
        </g>
        <g class="highcharts-series highcharts-series-1 highcharts-column-series highcharts-color-undefined highcharts-tracker" transform="translate(49 163)" clip-path="url(#a)">
            <path fill="#4f81bd" class="highcharts-point" stroke="#fff" d="M27.5 119.5h9v38h-9zm85-41h9v79h-9zm86 28h9v51h-9zm85 35h9v16h-9zm85-188h9v204h-9z"/>
        </g>
        <g class="highcharts-series highcharts-series-2 highcharts-column-series highcharts-color-undefined highcharts-tracker" transform="translate(49 163)" clip-path="url(#a)">
            <path fill="#9A86A6" class="highcharts-point" stroke="#fff" d="M38.5 145.5h9v12h-9zm85 0h9v12h-9zm85-88h9v100h-9zm85 87h9v13h-9zm85-160h9v173h-9z"/>
        </g>
        <g class="highcharts-series highcharts-series-3 highcharts-column-series highcharts-color-undefined highcharts-tracker" transform="translate(49 163)" clip-path="url(#a)">
            <path fill="#9bbb59" class="highcharts-point" stroke="#fff" d="M48.5-156.5h9v314h-9zm85-314h9v628h-9zm85-314h9v942h-9zm85-314h9v1256h-9zm86-57h9v1313h-9z"/>
        </g>
        <g class="highcharts-series highcharts-series-4 highcharts-column-series highcharts-color-undefined highcharts-tracker" transform="translate(49 163)" clip-path="url(#a)">
            <path fill="#FABD24" class="highcharts-point" stroke="#fff" d="M58.5-1155.5h9v1313h-9zm85 0h9v1313h-9zm85 0h9v1313h-9zm86 0h9v1313h-9zm85 0h9v1313h-9z"/>
        </g>
    </g>
    <text x="10" class="highcharts-title" style="width:421px" y="21" color="#000" font-size="14" font-weight="700">
        <tspan>LP.2.07.1a Transnationale Patentanmeldungen pro</tspan><tspan dy="17" x="10">1000 Einwohner 2000 bis 2004</tspan><title>LP.2.07.1a Transnationale Patentanmeldungen pro 1000 Einwohner 2000 bis 2004</title>
    </text>
    <text x="10" class="highcharts-subtitle" style="width:421px" y="59" color="#000" font-weight="400">
        <tspan>nach ausgewählten Wirtschaftsbranchen</tspan>
    </text>
    <g class="highcharts-legend" transform="translate(35 65)">
        <rect fill="none" class="highcharts-legend-box" rx="0" ry="0" width="296" height="86"/>
        <g class="highcharts-legend-item highcharts-column-series highcharts-color-undefined highcharts-series-0">
            <text x="21" y="15" color="#333" font-weight="400" cursor="pointer" fill="#333" transform="translate(8 3)">
                Basel-Stadt
            </text>
            <path fill="#b00000" class="highcharts-point" d="M10 7h12v12H10z"/>
        </g>
        <g class="highcharts-legend-item highcharts-column-series highcharts-color-undefined highcharts-series-1">
            <text x="21" y="15" color="#333" font-weight="400" cursor="pointer" fill="#333" transform="translate(8 18)">
                Basel-Landschaft
            </text>
            <path fill="#4f81bd" class="highcharts-point" d="M10 22h12v12H10z"/>
        </g>
        <g class="highcharts-legend-item highcharts-column-series highcharts-color-undefined highcharts-series-2">
            <text x="21" y="15" color="#333" font-weight="400" cursor="pointer" fill="#333" transform="translate(8 33)">
                Zürich
            </text>
            <path fill="#9A86A6" class="highcharts-point" d="M10 37h12v12H10z"/>
        </g>
        <g class="highcharts-legend-item highcharts-column-series highcharts-color-undefined highcharts-series-3">
            <text x="21" y="15" color="#333" font-weight="400" cursor="pointer" fill="#333" transform="translate(8 48)">
                sortierung
            </text>
            <path fill="#9bbb59" class="highcharts-point" d="M10 52h12v12H10z"/>
        </g>
        <g class="highcharts-legend-item highcharts-column-series highcharts-color-undefined highcharts-series-4">
            <text x="21" y="15" color="#333" font-weight="400" cursor="pointer" fill="#333" transform="translate(8 63)">
                MW_Einw_BS
            </text>
            <path fill="#FABD24" class="highcharts-point" d="M10 67h12v12H10z"/>
        </g>
    </g>
    <g class="highcharts-axis-labels highcharts-xaxis-labels" text-anchor="middle" color="#000" cursor="default" font-size="11">
        <text x="91.6" style="width:75px" y="339">
            <tspan>Chemische</tspan><tspan dy="14" x="91.6">Industrie</tspan><title>Chemische Industrie</title>
        </text>
        <text x="176.8" style="width:85.2" y="339" text-overflow="ellipsis">
            <tspan>Pharmazeuti…</tspan><title>Pharmazeutische Industrie</title>
        </text>
        <text x="262" style="width:75px" y="339">
            <tspan>Elektronik.</tspan><tspan dy="14" x="262">Optik und</tspan><tspan dy="14" x="262">Maschinenbau</tspan><title>Elektronik. Optik und Maschinenbau</title>
        </text>
        <text x="347.2" style="width:85.2" y="339" text-overflow="ellipsis">
            <tspan>Medizinaltec…</tspan><title>Medizinaltechnik</title>
        </text>
        <text x="432.4" style="width:75px" y="339">
            <tspan>Total</tspan>
        </text>
    </g>
    <g class="highcharts-axis-labels highcharts-yaxis-labels" text-anchor="end" color="#000" cursor="default" font-size="11">
        <text x="34" style="width:150px" y="324">
            <tspan>0%</tspan>
        </text>
        <text x="34" style="width:150px" y="246">
            <tspan>25%</tspan>
        </text>
        <text x="34" style="width:150px" y="167">
            <tspan>50%</tspan>
        </text>
    </g>
    <text x="10" class="highcharts-credits" y="400" cursor="default" color="#000" font-size="10">
        <tspan>Quelle: BAK Basel Economics</tspan>
    </text>
</svg>
