<svg class="highcharts-root" xmlns="http://www.w3.org/2000/svg" viewBox="0 0 485 415" font-family="Arial" font-size="12">
    <defs>
        <clipPath id="a">
            <path fill="none" d="M0 0h443v215H0z"/>
        </clipPath>
    </defs>
    <rect fill="#fbfbfb" class="highcharts-background" width="485" height="415" rx="0" ry="0"/>
    <path fill="none" class="highcharts-plot-background" d="M32 148h443v215H32z"/>
    <g class="highcharts-grid highcharts-xaxis-grid">
        <path fill="none" class="highcharts-grid-line" d="M142.5 148v215m111-215v215m110-215v215m111-215v215m-443-215v215"/>
    </g>
    <g class="highcharts-grid highcharts-yaxis-grid">
        <path fill="none" stroke="#e6e6e6" class="highcharts-grid-line" d="M32 363.5h443m-443-43h443m-443-43h443m-443-43h443m-443-43h443m-443-44h443"/>
    </g>
    <path fill="none" class="highcharts-plot-border" d="M32 148h443v215H32z"/>
    <g class="highcharts-axis highcharts-xaxis">
        <path fill="none" class="highcharts-tick" stroke="#FFF" d="M142.5 363v10m111-10v10m110-10v10m112-10v10m-444-10v10"/>
        <path fill="none" class="highcharts-axis-line" stroke="#ccd6eb" d="M32 363.5h443"/>
    </g>
    <g class="highcharts-axis highcharts-yaxis">
        <path fill="none" class="highcharts-axis-line" d="M32 148v215"/>
    </g>
    <g class="highcharts-series-group">
        <g class="highcharts-series highcharts-series-0 highcharts-column-series highcharts-color-undefined highcharts-tracker" transform="translate(32 148)" clip-path="url(#a)">
            <path fill="#4f81bd" class="highcharts-point" stroke="#fff" d="M23.5 206.5h14v9h-14zm111 4h14v5h-14zm110 3h14v2h-14zm111-41h14v43h-14z"/>
        </g>
        <g class="highcharts-series highcharts-series-1 highcharts-column-series highcharts-color-undefined highcharts-tracker" transform="translate(32 148)" clip-path="url(#a)">
            <path fill="#9A86A6" class="highcharts-point" stroke="#fff" d="M39.5 201.5h14v14h-14zm111 3h14v11h-14zm111 9h14v2h-14zm111-84h14v86h-14z"/>
        </g>
        <g class="highcharts-series highcharts-series-2 highcharts-column-series highcharts-color-undefined highcharts-tracker" transform="translate(32 148)" clip-path="url(#a)">
            <path fill="#9bbb59" class="highcharts-point" stroke="#fff" d="M56.5 211.5h14v4h-14zm111-3h14v7h-14zm111-7h14v14h-14zm110-115h14v129h-14z"/>
        </g>
        <g class="highcharts-series highcharts-series-3 highcharts-column-series highcharts-color-undefined highcharts-tracker" transform="translate(32 148)" clip-path="url(#a)">
            <path fill="#FABD24" class="highcharts-point" stroke="#fff" d="M73.5 172.5h14v43h-14zm110-43h14v86h-14zm111-43h14v129h-14zm111-43h14v172h-14z"/>
        </g>
    </g>
    <text x="10" class="highcharts-title" style="width:421px" y="21" color="#000" font-size="14" font-weight="700">
        <tspan>LP.2.07.1a Transnationale Patentanmeldungen pro</tspan><tspan dy="17" x="10">1000 Einwohner 2000 bis 2004</tspan><title>LP.2.07.1a Transnationale Patentanmeldungen pro 1000 Einwohner 2000 bis 2004</title>
    </text>
    <text x="10" class="highcharts-subtitle" style="width:421px" y="59" color="#000" font-weight="400">
        <tspan>nach ausgewählten Wirtschaftsbranchen</tspan>
    </text>
    <g class="highcharts-legend" transform="translate(35 65)">
        <rect fill="none" class="highcharts-legend-box" rx="0" ry="0" width="296" height="71"/>
        <g class="highcharts-legend-item highcharts-column-series highcharts-color-undefined highcharts-series-0">
            <text x="21" y="15" color="#333" font-weight="400" cursor="pointer" fill="#333" transform="translate(8 3)">
                <tspan>Chemische Industrie</tspan>
            </text>
            <path fill="#4f81bd" class="highcharts-point" d="M10 7h12v12H10z"/>
        </g>
        <g class="highcharts-legend-item highcharts-column-series highcharts-color-undefined highcharts-series-1">
            <text x="21" y="15" color="#333" font-weight="400" cursor="pointer" fill="#333" transform="translate(8 18)">
                <tspan>Pharmazeutische Industrie</tspan>
            </text>
            <path fill="#9A86A6" class="highcharts-point" d="M10 22h12v12H10z"/>
        </g>
        <g class="highcharts-legend-item highcharts-column-series highcharts-color-undefined highcharts-series-2">
            <text x="21" y="15" color="#333" font-weight="400" cursor="pointer" fill="#333" transform="translate(8 33)">
                <tspan>Elektronik. Optik und Maschinenbau</tspan>
            </text>
            <path fill="#9bbb59" class="highcharts-point" d="M10 37h12v12H10z"/>
        </g>
        <g class="highcharts-legend-item highcharts-column-series highcharts-color-undefined highcharts-series-3">
            <text x="21" y="15" color="#333" font-weight="400" cursor="pointer" fill="#333" transform="translate(8 48)">
                Medizinaltechnik
            </text>
            <path fill="#FABD24" class="highcharts-point" d="M10 52h12v12H10z"/>
        </g>
    </g>
    <g class="highcharts-axis-labels highcharts-xaxis-labels" text-anchor="middle" color="#000" cursor="default" font-size="11">
        <text x="87.375" style="width:106px" y="382">
            <tspan>Basel-Stadt</tspan>
        </text>
        <text x="198.125" style="width:106px" y="382">
            <tspan>Basel-Landschaft</tspan>
        </text>
        <text x="308.875" style="width:106px" y="382">
            <tspan>Zürich</tspan>
        </text>
        <text x="419.625" style="width:106px" y="382">
            <tspan>sortierung</tspan>
        </text>
    </g>
    <g class="highcharts-axis-labels highcharts-yaxis-labels" text-anchor="end" color="#000" cursor="default" font-size="11">
        <text x="17" style="width:150px" y="367">
            <tspan>0</tspan>
        </text>
        <text x="17" style="width:150px" y="324">
            <tspan>1</tspan>
        </text>
        <text x="17" style="width:150px" y="281">
            <tspan>2</tspan>
        </text>
        <text x="17" style="width:150px" y="238">
            <tspan>3</tspan>
        </text>
        <text x="17" style="width:150px" y="195">
            <tspan>4</tspan>
        </text>
        <text x="17" style="width:150px" y="152">
            <tspan>5</tspan>
        </text>
    </g>
    <text x="10" class="highcharts-credits" y="400" cursor="default" color="#000" font-size="10">
        <tspan>Quelle: BAK Basel Economics</tspan>
    </text>
</svg>
