<svg class="highcharts-root" xmlns="http://www.w3.org/2000/svg" viewBox="0 0 485 415" font-family="Arial" font-size="12">
    <defs>
        <clipPath id="a">
            <path fill="none" d="M0 0h233v265H0z"/>
        </clipPath>
    </defs>
    <rect fill="#fbfbfb" class="highcharts-background" width="485" height="415" rx="0" ry="0"/>
    <path fill="none" class="highcharts-plot-background" d="M56 75h233v265H56z"/>
    <g class="highcharts-grid highcharts-xaxis-grid">
        <path fill="none" class="highcharts-grid-line" d="M172.5 75v265m116-265v265M55.5 75v265"/>
    </g>
    <g class="highcharts-grid highcharts-yaxis-grid">
        <path fill="none" stroke="#e6e6e6" class="highcharts-grid-line" d="M56 340.5h233m-233-66h233m-233-66h233m-233-67h233m-233-67h233"/>
    </g>
    <path fill="none" class="highcharts-plot-border" d="M56 75h233v265H56z"/>
    <g class="highcharts-axis highcharts-xaxis">
        <path fill="none" class="highcharts-tick" stroke="#FFF" d="M172.5 340v10m117-10v10m-234-10v10"/>
        <path fill="none" class="highcharts-axis-line" stroke="#ccd6eb" d="M56 340.5h233"/>
    </g>
    <g class="highcharts-axis highcharts-yaxis">
        <path fill="none" class="highcharts-axis-line" d="M56 75v265"/>
    </g>
    <g class="highcharts-series-group">
        <g class="highcharts-series highcharts-series-0 highcharts-column-series highcharts-color-undefined highcharts-tracker" transform="translate(56 75)" clip-path="url(#a)">
            <path fill="#73ba7c" class="highcharts-point" stroke="#fff" d="M22.5-.5h70v3h-70zm117 0h70v4h-70z"/>
        </g>
        <g class="highcharts-series highcharts-series-1 highcharts-column-series highcharts-color-undefined highcharts-tracker" transform="translate(56 75)" clip-path="url(#a)">
            <path fill="#cd9c00" class="highcharts-point" stroke="#fff" d="M22.5 2.5h70v41h-70zm117 1h70v49h-70z"/>
        </g>
        <g class="highcharts-series highcharts-series-2 highcharts-column-series highcharts-color-undefined highcharts-tracker" transform="translate(56 75)" clip-path="url(#a)">
            <path fill="#fabd24" class="highcharts-point" stroke="#fff" d="M22.5 43.5h70v70h-70zm117 9h70v61h-70z"/>
        </g>
        <g class="highcharts-series highcharts-series-3 highcharts-column-series highcharts-color-undefined highcharts-tracker" transform="translate(56 75)" clip-path="url(#a)">
            <path fill="#71a3b5" class="highcharts-point" stroke="#fff" d="M22.5 113.5h70v20h-70zm117 0h70v20h-70z"/>
        </g>
        <g class="highcharts-series highcharts-series-4 highcharts-column-series highcharts-color-undefined highcharts-tracker" transform="translate(56 75)" clip-path="url(#a)">
            <path fill="#256370" class="highcharts-point" stroke="#fff" d="M22.5 133.5h70v132h-70zm117 0h70v132h-70z"/>
        </g>
    </g>
    <text x="10" class="highcharts-title" style="width:421px" y="21" color="#000" font-size="14" font-weight="700">
        <tspan>LP.3.11.1a Anteile der Verkehrsmittel für die</tspan><tspan dy="17" x="10">Agglomeration Basel-Stadt 2005</tspan><title>LP.3.11.1a Anteile der Verkehrsmittel für die Agglomeration Basel-Stadt 2005</title>
    </text>
    <g class="highcharts-legend" transform="translate(301 142)">
        <rect fill="none" class="highcharts-legend-box" rx="0" ry="0" width="174" height="111"/>
        <g class="highcharts-legend-item highcharts-column-series highcharts-color-undefined highcharts-series-0">
            <text x="21" y="15" color="#333" font-weight="400" cursor="pointer" fill="#333" transform="translate(8 3)">
                <tspan>Übrige Verkehrsmittel</tspan>
            </text>
            <path fill="#73ba7c" class="highcharts-point" d="M10 7h12v12H10z"/>
        </g>
        <g class="highcharts-legend-item highcharts-column-series highcharts-color-undefined highcharts-series-1">
            <text x="21" y="15" color="#333" font-weight="400" cursor="pointer" fill="#333" transform="translate(8 23)">
                ÖV
            </text>
            <path fill="#cd9c00" class="highcharts-point" d="M10 27h12v12H10z"/>
        </g>
        <g class="highcharts-legend-item highcharts-column-series highcharts-color-undefined highcharts-series-2">
            <text x="21" y="15" color="#333" font-weight="400" cursor="pointer" fill="#333" transform="translate(8 43)">
                MIV
            </text>
            <path fill="#fabd24" class="highcharts-point" d="M10 47h12v12H10z"/>
        </g>
        <g class="highcharts-legend-item highcharts-column-series highcharts-color-undefined highcharts-series-3">
            <text x="21" y="15" color="#333" font-weight="400" cursor="pointer" fill="#333" transform="translate(8 63)">
                Velo
            </text>
            <path fill="#71a3b5" class="highcharts-point" d="M10 67h12v12H10z"/>
        </g>
        <g class="highcharts-legend-item highcharts-column-series highcharts-color-undefined highcharts-series-4">
            <text x="21" y="15" color="#333" font-weight="400" cursor="pointer" fill="#333" transform="translate(8 83)">
                <tspan>zu Fuss</tspan>
            </text>
            <path fill="#256370" class="highcharts-point" d="M10 87h12v12H10z"/>
        </g>
    </g>
    <g class="highcharts-axis-labels highcharts-xaxis-labels" text-anchor="middle" color="#000" cursor="default" font-size="11">
        <text x="114.25" style="width:107px" y="359">
            <tspan>2005</tspan>
        </text>
        <text x="230.75" style="width:107px" y="359">
            <tspan>2010</tspan>
        </text>
    </g>
    <g class="highcharts-axis-labels highcharts-yaxis-labels" text-anchor="end" color="#000" cursor="default" font-size="11">
        <text x="41" style="width:150px" y="344">
            <tspan>0%</tspan>
        </text>
        <text x="41" style="width:150px" y="278">
            <tspan>25%</tspan>
        </text>
        <text x="41" style="width:150px" y="212">
            <tspan>50%</tspan>
        </text>
        <text x="41" style="width:150px" y="145">
            <tspan>75%</tspan>
        </text>
        <text x="41" style="width:150px" y="79">
            <tspan>100%</tspan>
        </text>
    </g>
    <text x="10" class="highcharts-credits" y="400" cursor="default" color="#000" font-size="10">
        <tspan>Quelle: Bundesamt für Raumentwicklung, Mikrozensus zum Verkehrsverhalten</tspan>
    </text>
</svg>
