<svg class="highcharts-root" xmlns="http://www.w3.org/2000/svg" viewBox="0 0 485 415" font-family="Arial" font-size="12">
    <defs>
        <clipPath id="a">
            <path fill="none" d="M0 0h265v422H0z"/>
        </clipPath>
    </defs>
    <rect fill="#fbfbfb" class="highcharts-background" width="485" height="415" rx="0" ry="0"/>
    <path fill="none" class="highcharts-plot-background" d="M53 75h422v265H53z"/>
    <g class="highcharts-grid highcharts-xaxis-grid">
        <path fill="none" class="highcharts-grid-line" d="M53 208.5h422m-422 132h422M53 75.5h422"/>
    </g>
    <g class="highcharts-grid highcharts-yaxis-grid">
        <path fill="none" stroke="#e6e6e6" class="highcharts-grid-line" d="M52.5 75v265m84-265v265m85-265v265m84-265v265m85-265v265m85-265v265"/>
    </g>
    <path fill="none" class="highcharts-plot-border" d="M53 75h422v265H53z"/>
    <g class="highcharts-axis highcharts-xaxis">
        <path fill="none" class="highcharts-tick" stroke="#FFF" d="M53 208.5H43m10 132H43m10-266H43"/>
        <path fill="none" class="highcharts-axis-line" stroke="#ccd6eb" d="M52.5 75v265"/>
    </g>
    <g class="highcharts-axis highcharts-yaxis">
        <path fill="none" class="highcharts-axis-line" d="M53 340h422"/>
    </g>
    <g class="highcharts-series-group">
        <g class="highcharts-series highcharts-series-0 highcharts-column-series highcharts-color-undefined highcharts-tracker" transform="matrix(0 -1 -1 0 475 340)" clip-path="url(#a)">
            <path fill="#73ba7c" class="highcharts-point" stroke="#fff" d="M163.5-.5h70v5h-70zm-133 0h70v5h-70z"/>
        </g>
        <g class="highcharts-series highcharts-series-1 highcharts-column-series highcharts-color-undefined highcharts-tracker" transform="matrix(0 -1 -1 0 475 340)" clip-path="url(#a)">
            <path fill="#cd9c00" class="highcharts-point" stroke="#fff" d="M163.5 4.5h70v64h-70zm-133 0h70v79h-70z"/>
        </g>
        <g class="highcharts-series highcharts-series-2 highcharts-column-series highcharts-color-undefined highcharts-tracker" transform="matrix(0 -1 -1 0 475 340)" clip-path="url(#a)">
            <path fill="#fabd24" class="highcharts-point" stroke="#fff" d="M163.5 68.5h70v112h-70zm-133 15h70v97h-70z"/>
        </g>
        <g class="highcharts-series highcharts-series-3 highcharts-column-series highcharts-color-undefined highcharts-tracker" transform="matrix(0 -1 -1 0 475 340)" clip-path="url(#a)">
            <path fill="#71a3b5" class="highcharts-point" stroke="#fff" d="M163.5 180.5h70v32h-70zm-133 0h70v32h-70z"/>
        </g>
        <g class="highcharts-series highcharts-series-4 highcharts-column-series highcharts-color-undefined highcharts-tracker" transform="matrix(0 -1 -1 0 475 340)" clip-path="url(#a)">
            <path fill="#256370" class="highcharts-point" stroke="#fff" d="M163.5 212.5h70v210h-70zm-133 0h70v210h-70z"/>
        </g>
    </g>
    <text x="10" class="highcharts-title" style="width:421px" y="21" color="#000" font-size="14" font-weight="700">
        <tspan>LP.3.11.1a Anteile der Verkehrsmittel für die</tspan><tspan dy="17" x="10">Agglomeration Basel-Stadt 2005</tspan><title>LP.3.11.1a Anteile der Verkehrsmittel für die Agglomeration Basel-Stadt 2005</title>
    </text>
    <g class="highcharts-axis-labels highcharts-xaxis-labels" text-anchor="end" color="#000" cursor="default" font-size="11">
        <text x="38" style="width:150px" y="145">
            <tspan>2005</tspan>
        </text>
        <text x="38" style="width:150px" y="278">
            <tspan>2010</tspan>
        </text>
    </g>
    <g class="highcharts-axis-labels highcharts-yaxis-labels" text-anchor="middle" color="#000" cursor="default" font-size="11">
        <text x="53" style="width:74px" y="359">
            <tspan>0%</tspan>
        </text>
        <text x="137.4" style="width:74px" y="359">
            <tspan>2 000%</tspan>
        </text>
        <text x="221.8" style="width:74px" y="359">
            <tspan>4 000%</tspan>
        </text>
        <text x="306.2" style="width:74px" y="359">
            <tspan>6 000%</tspan>
        </text>
        <text x="390.6" style="width:74px" y="359">
            <tspan>8 000%</tspan>
        </text>
        <text x="453.9" style="width:42.2" y="359" text-overflow="ellipsis">
            <tspan>10 0…</tspan><title>10 000%</title>
        </text>
    </g>
    <text x="10" class="highcharts-credits" y="400" cursor="default" color="#000" font-size="10">
        <tspan>Quelle: Bundesamt für Raumentwicklung, Mikrozensus zum Verkehrsverhalten</tspan>
    </text>
</svg>
