<svg class="highcharts-root" xmlns="http://www.w3.org/2000/svg" viewBox="0 0 485 415" font-family="Arial" font-size="12">
    <defs>
        <clipPath id="a">
            <path fill="none" d="M0 0h429v200H0z"/>
        </clipPath>
    </defs>
    <rect fill="#fbfbfb" class="highcharts-background" width="485" height="415" rx="0" ry="0"/>
    <path fill="none" class="highcharts-plot-background" d="M46 148h429v200H46z"/>
    <g class="highcharts-grid highcharts-xaxis-grid">
        <path fill="none" class="highcharts-grid-line" d="M49.5 148v200m60-200v200m60-200v200m60-200v200m61-200v200m60-200v200m60-200v200m60-200v200"/>
    </g>
    <g class="highcharts-grid highcharts-yaxis-grid">
        <path fill="none" stroke="#e6e6e6" class="highcharts-grid-line" d="M46 348.5h429m-429-67h429m-429-66h429m-429-68h429"/>
    </g>
    <path fill="none" class="highcharts-plot-border" d="M46 148h429v200H46z"/>
    <g class="highcharts-axis highcharts-xaxis">
        <path fill="none" class="highcharts-axis-line" stroke="#ccd6eb" d="M46 348.5h429"/>
    </g>
    <g class="highcharts-axis highcharts-yaxis">
        <path fill="none" class="highcharts-axis-line" d="M46 148v200"/>
    </g>
    <g class="highcharts-series-group">
        <g class="highcharts-series highcharts-series-0 highcharts-line-series highcharts-color-undefined" transform="translate(46 148)" clip-path="url(#a)">
            <path fill="none" d="M4.206 98.863l60.084 9.894 30.042 26.474 30.042-22.542 60.084-1.048 60.084-8.056 60.084-8.328 60.084-9.605 60.084 8.02" class="highcharts-graph" stroke="#71A3B5" stroke-width="2" stroke-linejoin="round" stroke-linecap="round"/>
            <path fill="none" d="M-5.794 98.863h10l60.084 9.894 30.042 26.474 30.042-22.542 60.084-1.048 60.084-8.056 60.084-8.328 60.084-9.605 60.084 8.02h10" stroke-linejoin="round" stroke="rgba(192,192,192,0.0001)" stroke-width="22" class="highcharts-tracker"/>
        </g>
        <g class="highcharts-markers highcharts-series-0 highcharts-line-series highcharts-color-undefined highcharts-tracker">
            <path fill="#71A3B5" d="M470 238c5.328 0 5.328 8 0 8s-5.328-8 0-8zm-60-8c5.328 0 5.328 8 0 8s-5.328-8 0-8zm-60 9c5.328 0 5.328 8 0 8s-5.328-8 0-8zm-60 9c5.328 0 5.328 8 0 8s-5.328-8 0-8zm-60 8c5.328 0 5.328 8 0 8s-5.328-8 0-8zm-60 1c5.328 0 5.328 8 0 8s-5.328-8 0-8zm-30 22c5.328 0 5.328 8 0 8s-5.328-8 0-8zm-30-26c5.328 0 5.328 8 0 8s-5.328-8 0-8zm-60-10c5.328 0 5.328 8 0 8s-5.328-8 0-8z" class="highcharts-point"/>
        </g>
        <g class="highcharts-series highcharts-series-1 highcharts-line-series highcharts-color-undefined" visibility="hidden" transform="translate(46 148)" clip-path="url(#a)">
            <path fill="none" d="M4.206-154.816L64.29-132.02l30.042 93.453 30.042-14.978 60.084 24.73 60.084-241.926 60.084-8.85 60.084 9.73 60.084 7.348" class="highcharts-graph" stroke="#71A3B5" stroke-width="2" stroke-linejoin="round" stroke-linecap="round"/>
            <path fill="none" d="M-5.794-154.816h10L64.29-132.02l30.042 93.453 30.042-14.978 60.084 24.73 60.084-241.926 60.084-8.85 60.084 9.73 60.084 7.348h10" stroke-linejoin="round" stroke="rgba(192,192,192,0.0001)" stroke-width="22" class="highcharts-tracker"/>
        </g>
        <g class="highcharts-series highcharts-series-2 highcharts-line-series highcharts-color-undefined" transform="translate(46 148)" clip-path="url(#a)">
            <path fill="none" d="M4.206 130.91l60.084 16 30.042 27.547 30.042-24.429 60.084-8.339 60.084-15.241 60.084-10.76 60.084-8.559 60.084 10.358" class="highcharts-graph" stroke="#E7CEE2" stroke-width="2" stroke-linejoin="round" stroke-linecap="round"/>
            <path fill="none" d="M-5.794 130.91h10l60.084 16 30.042 27.547 30.042-24.429 60.084-8.339 60.084-15.241 60.084-10.76 60.084-8.559 60.084 10.358h10" stroke-linejoin="round" stroke="rgba(192,192,192,0.0001)" stroke-width="22" class="highcharts-tracker"/>
        </g>
        <g class="highcharts-markers highcharts-series-2 highcharts-line-series highcharts-color-undefined highcharts-tracker">
            <path fill="#E7CEE2" d="M470 261c5.328 0 5.328 8 0 8s-5.328-8 0-8zm-60-10c5.328 0 5.328 8 0 8s-5.328-8 0-8zm-60 9c5.328 0 5.328 8 0 8s-5.328-8 0-8zm-60 10c5.328 0 5.328 8 0 8s-5.328-8 0-8zm-60 16c5.328 0 5.328 8 0 8s-5.328-8 0-8zm-60 8c5.328 0 5.328 8 0 8s-5.328-8 0-8zm-30 24c5.328 0 5.328 8 0 8s-5.328-8 0-8zm-30-27c5.328 0 5.328 8 0 8s-5.328-8 0-8zm-60-16c5.328 0 5.328 8 0 8s-5.328-8 0-8z" class="highcharts-point"/>
        </g>
        <g class="highcharts-series highcharts-series-3 highcharts-line-series highcharts-color-undefined" visibility="hidden" transform="translate(46 148)" clip-path="url(#a)">
            <path fill="none" d="M4.206 87.092l60.084 54.76 30.042 55.13 30.042-12.8 60.084-48.763L244.542-61.7l60.084-26.986 60.084-44.048 60.084 54.288" class="highcharts-graph" stroke="#E7CEE2" stroke-width="2" stroke-linejoin="round" stroke-linecap="round"/>
            <path fill="none" d="M-5.794 87.092h10l60.084 54.76 30.042 55.13 30.042-12.8 60.084-48.763L244.542-61.7l60.084-26.986 60.084-44.048 60.084 54.288h10" stroke-linejoin="round" stroke="rgba(192,192,192,0.0001)" stroke-width="22" class="highcharts-tracker"/>
        </g>
        <g class="highcharts-series highcharts-series-4 highcharts-line-series highcharts-color-undefined" transform="translate(46 148)" clip-path="url(#a)">
            <path fill="none" d="M4.206 106.83l60.084 5.685 30.042 14.166 30.042-30.87 60.084 1.452 60.084 5.74 60.084-8.704 60.084-4.974 60.084-2.27" class="highcharts-graph" stroke="#73B97C" stroke-width="2" stroke-linejoin="round" stroke-linecap="round"/>
            <path fill="none" d="M-5.794 106.83h10l60.084 5.685 30.042 14.166 30.042-30.87 60.084 1.452 60.084 5.74 60.084-8.704 60.084-4.974 60.084-2.27h10" stroke-linejoin="round" stroke="rgba(192,192,192,0.0001)" stroke-width="22" class="highcharts-tracker"/>
        </g>
        <g class="highcharts-markers highcharts-series-4 highcharts-line-series highcharts-color-undefined highcharts-tracker">
            <path fill="#73B97C" d="M470 231c5.328 0 5.328 8 0 8s-5.328-8 0-8zm-60 2c5.328 0 5.328 8 0 8s-5.328-8 0-8zm-60 5c5.328 0 5.328 8 0 8s-5.328-8 0-8zm-60 9c5.328 0 5.328 8 0 8s-5.328-8 0-8zm-60-6c5.328 0 5.328 8 0 8s-5.328-8 0-8zm-60-1c5.328 0 5.328 8 0 8s-5.328-8 0-8zm-30 31c5.328 0 5.328 8 0 8s-5.328-8 0-8zm-30-14c5.328 0 5.328 8 0 8s-5.328-8 0-8zm-60-6c5.328 0 5.328 8 0 8s-5.328-8 0-8z" class="highcharts-point"/>
        </g>
        <g class="highcharts-series highcharts-series-5 highcharts-line-series highcharts-color-undefined" visibility="hidden" transform="translate(46 148)" clip-path="url(#a)">
            <path fill="none" d="M4.206-132.753l60.084-31.302 30.042 54.586 30.042 8.301 60.084 4.637 60.084-195.097 60.084 11.845 60.084-20.873 60.084-3.579" class="highcharts-graph" stroke="#73B97C" stroke-width="2" stroke-linejoin="round" stroke-linecap="round"/>
            <path fill="none" d="M-5.794-132.753h10l60.084-31.302 30.042 54.586 30.042 8.301 60.084 4.637 60.084-195.097 60.084 11.845 60.084-20.873 60.084-3.579h10" stroke-linejoin="round" stroke="rgba(192,192,192,0.0001)" stroke-width="22" class="highcharts-tracker"/>
        </g>
        <g class="highcharts-series highcharts-series-6 highcharts-line-series highcharts-color-undefined" transform="translate(46 148)" clip-path="url(#a)">
            <path fill="none" d="M4.206 18.485L64.29 32.517l30.042 32.74 30.042-26.137 60.084 9.61 60.084-.78 60.084-15.263L364.71 21.34l60.084 10.805" class="highcharts-graph" stroke="#FFBB58" stroke-width="2" stroke-linejoin="round" stroke-linecap="round"/>
            <path fill="none" d="M-5.794 18.485h10L64.29 32.517l30.042 32.74 30.042-26.137 60.084 9.61 60.084-.78 60.084-15.263L364.71 21.34l60.084 10.805h10" stroke-linejoin="round" stroke="rgba(192,192,192,0.0001)" stroke-width="22" class="highcharts-tracker"/>
        </g>
        <g class="highcharts-markers highcharts-series-6 highcharts-line-series highcharts-color-undefined highcharts-tracker">
            <path fill="#FFBB58" d="M470 176c5.328 0 5.328 8 0 8s-5.328-8 0-8zm-60-11c5.328 0 5.328 8 0 8s-5.328-8 0-8zm-60 12c5.328 0 5.328 8 0 8s-5.328-8 0-8zm-60 15c5.328 0 5.328 8 0 8s-5.328-8 0-8zm-60 1c5.328 0 5.328 8 0 8s-5.328-8 0-8zm-60-10c5.328 0 5.328 8 0 8s-5.328-8 0-8zm-30 26c5.328 0 5.328 8 0 8s-5.328-8 0-8zm-30-32c5.328 0 5.328 8 0 8s-5.328-8 0-8zm-60-15c5.328 0 5.328 8 0 8s-5.328-8 0-8z" class="highcharts-point"/>
        </g>
        <g class="highcharts-series highcharts-series-7 highcharts-line-series highcharts-color-undefined" visibility="hidden" transform="translate(46 148)" clip-path="url(#a)">
            <path fill="none" d="M4.206-359.399l60.084 64.18 30.042 58.923 30.042 8.468 60.084 23.747 60.084-236.292 60.084-7.932 60.084 2.96 60.084 11.244" class="highcharts-graph" stroke="#FFBB58" stroke-width="2" stroke-linejoin="round" stroke-linecap="round"/>
            <path fill="none" d="M-5.794-359.399h10l60.084 64.18 30.042 58.923 30.042 8.468 60.084 23.747 60.084-236.292 60.084-7.932 60.084 2.96 60.084 11.244h10" stroke-linejoin="round" stroke="rgba(192,192,192,0.0001)" stroke-width="22" class="highcharts-tracker"/>
        </g>
    </g>
    <text x="10" class="highcharts-title" style="width:421px" y="21" color="#000" font-size="14" font-weight="700">
        <tspan>LP.1.03.1 Globale und kontinentale Erreichbarkeit –</tspan><tspan dy="17" x="10">Basel im nationalen Vergleich</tspan><title>LP.1.03.1 Globale und kontinentale Erreichbarkeit – Basel im nationalen Vergleich</title>
    </text>
    <g class="highcharts-legend" transform="translate(30 45)">
        <rect fill="none" class="highcharts-legend-box" rx="0" ry="0" width="396" height="91"/>
        <g class="highcharts-legend-item highcharts-line-series highcharts-color-undefined highcharts-series-0">
            <path fill="none" d="M8 14h16" class="highcharts-graph" stroke="#71A3B5" stroke-width="2"/>
            <path fill="#71A3B5" d="M16 10c5.328 0 5.328 8 0 8s-5.328-8 0-8z" class="highcharts-point"/>
            <text x="21" y="15" color="#333" font-weight="400" cursor="pointer" fill="#333" transform="translate(8 3)">
                <tspan>BS global</tspan>
            </text>
        </g>
        <g class="highcharts-legend-item highcharts-line-series highcharts-color-undefined highcharts-series-1 highcharts-legend-item-hidden">
            <path fill="none" d="M208 14h16" class="highcharts-graph" stroke="#ccc" stroke-width="2"/>
            <text x="21" y="15" color="#ccc" font-weight="400" cursor="pointer" fill="#ccc" transform="translate(208 3)">
                <tspan>BS kontinental</tspan>
            </text>
        </g>
        <g class="highcharts-legend-item highcharts-line-series highcharts-color-undefined highcharts-series-2">
            <path fill="none" d="M8 34h16" class="highcharts-graph" stroke="#E7CEE2" stroke-width="2"/>
            <path fill="#E7CEE2" d="M16 30c5.328 0 5.328 8 0 8s-5.328-8 0-8z" class="highcharts-point"/>
            <text x="21" y="15" color="#333" font-weight="400" cursor="pointer" fill="#333" transform="translate(8 23)">
                <tspan>BE global</tspan>
            </text>
        </g>
        <g class="highcharts-legend-item highcharts-line-series highcharts-color-undefined highcharts-series-3 highcharts-legend-item-hidden">
            <path fill="none" d="M208 34h16" class="highcharts-graph" stroke="#ccc" stroke-width="2"/>
            <text x="21" y="15" color="#ccc" font-weight="400" cursor="pointer" fill="#ccc" transform="translate(208 23)">
                <tspan>BE kontinental</tspan>
            </text>
        </g>
        <g class="highcharts-legend-item highcharts-line-series highcharts-color-undefined highcharts-series-4">
            <path fill="none" d="M8 54h16" class="highcharts-graph" stroke="#73B97C" stroke-width="2"/>
            <path fill="#73B97C" d="M16 50c5.328 0 5.328 8 0 8s-5.328-8 0-8z" class="highcharts-point"/>
            <text x="21" y="15" color="#333" font-weight="400" cursor="pointer" fill="#333" transform="translate(8 43)">
                <tspan>GE global</tspan>
            </text>
        </g>
        <g class="highcharts-legend-item highcharts-line-series highcharts-color-undefined highcharts-series-5 highcharts-legend-item-hidden">
            <path fill="none" d="M208 54h16" class="highcharts-graph" stroke="#ccc" stroke-width="2"/>
            <text x="21" y="15" color="#ccc" font-weight="400" cursor="pointer" fill="#ccc" transform="translate(208 43)">
                <tspan>GE kontinental</tspan>
            </text>
        </g>
        <g class="highcharts-legend-item highcharts-line-series highcharts-color-undefined highcharts-series-6">
            <path fill="none" d="M8 74h16" class="highcharts-graph" stroke="#FFBB58" stroke-width="2"/>
            <path fill="#FFBB58" d="M16 70c5.328 0 5.328 8 0 8s-5.328-8 0-8z" class="highcharts-point"/>
            <text x="21" y="15" color="#333" font-weight="400" cursor="pointer" fill="#333" transform="translate(8 63)">
                <tspan>ZH global</tspan>
            </text>
        </g>
        <g class="highcharts-legend-item highcharts-line-series highcharts-color-undefined highcharts-series-7 highcharts-legend-item-hidden">
            <path fill="none" d="M208 74h16" class="highcharts-graph" stroke="#ccc" stroke-width="2"/>
            <text x="21" y="15" color="#ccc" font-weight="400" cursor="pointer" fill="#ccc" transform="translate(208 63)">
                <tspan>ZH kontinental</tspan>
            </text>
        </g>
    </g>
    <g class="highcharts-axis-labels highcharts-xaxis-labels" text-anchor="middle" color="#000" cursor="default" font-size="11">
        <text x="50.206" y="367">
            2000
        </text>
        <text x="110.29" y="367">
            2002
        </text>
        <text x="170.374" y="367">
            2004
        </text>
        <text x="230.458" y="367">
            2006
        </text>
        <text x="290.542" y="367">
            2008
        </text>
        <text x="350.626" y="367">
            2010
        </text>
        <text x="410.71" y="367">
            2012
        </text>
        <text x="461.031" y="367">
            2014
        </text>
    </g>
    <g class="highcharts-axis-labels highcharts-yaxis-labels" text-anchor="end" color="#000" cursor="default" font-size="11">
        <text x="31" style="width:150px" y="352">
            <tspan>100</tspan>
        </text>
        <text x="31" style="width:150px" y="285">
            <tspan>105</tspan>
        </text>
        <text x="31" style="width:150px" y="219">
            <tspan>110</tspan>
        </text>
        <text x="31" style="width:150px" y="152">
            <tspan>115</tspan>
        </text>
    </g>
    <text x="10" class="highcharts-credits" y="400" cursor="default" color="#000" font-size="10">
        <tspan>Quelle: BAK Basel Economics</tspan>
    </text>
</svg>
