<svg class="highcharts-root" xmlns="http://www.w3.org/2000/svg" viewBox="0 0 485 415" font-family="Arial" font-size="12">
    <rect fill="#fbfbfb" class="highcharts-background" width="485" height="415" rx="0" ry="0"/>
    <path fill="none" class="highcharts-plot-background" d="M53 148h422v152H53z"/>
    <g class="highcharts-grid highcharts-xaxis-grid">
        <path fill="none" class="highcharts-grid-line" d="M53 163.5h422m-422 15h422m-422 16h422m-422 15h422m-422 15h422m-422 15h422m-422 15h422m-422 16h422m-422 15h422m-422 15h422"/>
    </g>
    <g class="highcharts-grid highcharts-yaxis-grid">
        <path fill="none" stroke="#e6e6e6" class="highcharts-grid-line" d="M52.5 148v152m60-152v152m61-152v152m60-152v152m60-152v152m60-152v152m61-152v152m61-152v152"/>
    </g>
    <path fill="none" class="highcharts-plot-border" d="M53 148h422v152H53z"/>
    <g class="highcharts-axis highcharts-xaxis">
        <path fill="none" class="highcharts-tick" stroke="#FFF" d="M53 163.5H43m10 15H43m10 16H43m10 15H43m10 15H43m10 15H43m10 15H43m10 16H43m10 15H43m10 15H43"/>
        <path fill="none" class="highcharts-axis-line" stroke="#ccd6eb" d="M52.5 148v152"/>
    </g>
    <g class="highcharts-axis highcharts-yaxis">
        <path fill="none" class="highcharts-axis-line" d="M53 300h422"/>
    </g>
    <g class="highcharts-series-group">
        <g class="highcharts-markers highcharts-series-0 highcharts-scatter-series highcharts-color-undefined highcharts-tracker">
            <path fill="#44ab2b" d="M347 293c0-5.328-8-5.328-8 0s8 5.328 8 0zm-79-15c0-5.328-8-5.328-8 0s8 5.328 8 0zm-9-16c0-5.328-8-5.328-8 0s8 5.328 8 0zm20-15c0-5.328-8-5.328-8 0s8 5.328 8 0zm35-15c0-5.328-8-5.328-8 0s8 5.328 8 0zm-25-15c0-5.328-8-5.328-8 0s8 5.328 8 0zm-36-15c0-5.328-8-5.328-8 0s8 5.328 8 0zm-16-16c0-5.328-8-5.328-8 0s8 5.328 8 0zm55-15c0-5.328-8-5.328-8 0s8 5.328 8 0zm-30-15c0-5.328-8-5.328-8 0s8 5.328 8 0z" class="highcharts-point"/>
        </g>
        <g class="highcharts-markers highcharts-series-1 highcharts-scatter-series highcharts-color-undefined highcharts-tracker">
            <path fill="#71a3b5" d="M147 293l-4-4-4 4 4 4zm0-15l-4-4-4 4 4 4zm6-16l-4-4-4 4 4 4zm-1-15l-4-4-4 4 4 4zm-1-15l-4-4-4 4 4 4zm-1-15l-4-4-4 4 4 4zm-7-15l-4-4-4 4 4 4zm3-16l-4-4-4 4 4 4zm16-15l-4-4-4 4 4 4zm13-15l-4-4-4 4 4 4z" class="highcharts-point"/>
        </g>
        <g class="highcharts-markers highcharts-series-2 highcharts-scatter-series highcharts-color-undefined highcharts-tracker">
            <path fill="#b00000" d="M132 297v-8h-8v8zm44-15v-8h-8v8zm38-16v-8h-8v8zm-10-15v-8h-8v8zm-22-15v-8h-8v8zm6-15v-8h-8v8zm270-15v-8h-8v8zm-270-16v-8h-8v8zm6-15v-8h-8v8zm22-15v-8h-8v8z" class="highcharts-point"/>
        </g>
        <g class="highcharts-markers highcharts-series-3 highcharts-scatter-series highcharts-color-undefined highcharts-tracker">
            <path d="M104 293l-8-4v8zm-9-15l-8-4v8zm-5-16l-8-4v8zm-1-15l-8-4v8zm-10-15l-8-4v8zm-8-15l-8-4v8zm1-15l-8-4v8zm16-16l-8-4v8zm6-15l-8-4v8zm-6-15l-8-4v8z" class="highcharts-point"/>
        </g>
        <g class="highcharts-markers highcharts-series-4 highcharts-scatter-series highcharts-color-undefined highcharts-tracker">
            <path fill="#8a8a8a" d="M121 297v-8l-8 4zm4-15v-8l-8 4zm2-16v-8l-8 4zm-6-15v-8l-8 4zm4-15v-8l-8 4zm5-15v-8l-8 4zm-2-15v-8l-8 4zm0-16v-8l-8 4zm4-15v-8l-8 4zm12-15v-8l-8 4z" class="highcharts-point"/>
        </g>
        <g class="highcharts-markers highcharts-series-5 highcharts-scatter-series highcharts-color-undefined highcharts-tracker">
            <path fill="#933f8d" d="M115 293c0-5.328-8-5.328-8 0s8 5.328 8 0zm-9-15c0-5.328-8-5.328-8 0s8 5.328 8 0zm7-16c0-5.328-8-5.328-8 0s8 5.328 8 0zm1-15c0-5.328-8-5.328-8 0s8 5.328 8 0zm-6-15c0-5.328-8-5.328-8 0s8 5.328 8 0zm8-15c0-5.328-8-5.328-8 0s8 5.328 8 0zm-5-15c0-5.328-8-5.328-8 0s8 5.328 8 0zm33-16c0-5.328-8-5.328-8 0s8 5.328 8 0zm-18-15c0-5.328-8-5.328-8 0s8 5.328 8 0zm-27-15c0-5.328-8-5.328-8 0s8 5.328 8 0z" class="highcharts-point"/>
        </g>
        <g class="highcharts-markers highcharts-series-6 highcharts-scatter-series highcharts-color-undefined highcharts-tracker">
            <path fill="#ff8028" d="M102 293l-4-4-4 4 4 4zm3-15l-4-4-4 4 4 4zm2-16l-4-4-4 4 4 4zm-10-15l-4-4-4 4 4 4zm-4-15l-4-4-4 4 4 4zm4-15l-4-4-4 4 4 4zm-2-15l-4-4-4 4 4 4zm1-16l-4-4-4 4 4 4zm0-15l-4-4-4 4 4 4zm-5-15l-4-4-4 4 4 4z" class="highcharts-point"/>
        </g>
    </g>
    <text x="10" class="highcharts-title" style="width:421px" y="21" color="#000" font-size="14" font-weight="700">
        <tspan>LP.6.22.1 Anzahl Museumsbesuche</tspan>
    </text>
    <g class="highcharts-legend" transform="translate(55 45)">
        <rect fill="none" class="highcharts-legend-box" rx="0" ry="0" width="396" height="91"/>
        <g class="highcharts-legend-item highcharts-scatter-series highcharts-color-undefined highcharts-series-0">
            <path fill="none" d="M8 14h16" class="highcharts-graph"/>
            <path fill="#44ab2b" d="M16 10c5.328 0 5.328 8 0 8s-5.328-8 0-8z" class="highcharts-point"/>
            <text x="21" y="15" color="#333" font-weight="400" cursor="pointer" fill="#333" transform="translate(8 3)">
                <tspan>Fondation Beyeler</tspan>
            </text>
        </g>
        <g class="highcharts-legend-item highcharts-scatter-series highcharts-color-undefined highcharts-series-1">
            <path fill="none" d="M208 14h16" class="highcharts-graph"/>
            <path fill="#71a3b5" d="M216 10l4 4-4 4-4-4z" class="highcharts-point"/>
            <text x="21" y="15" color="#333" font-weight="400" cursor="pointer" fill="#333" transform="translate(208 3)">
                <tspan>Historisches Museum</tspan>
            </text>
        </g>
        <g class="highcharts-legend-item highcharts-scatter-series highcharts-color-undefined highcharts-series-2">
            <path fill="none" d="M8 34h16" class="highcharts-graph"/>
            <path fill="#b00000" d="M12 30h8v8h-8z" class="highcharts-point"/>
            <text x="21" y="15" color="#333" font-weight="400" cursor="pointer" fill="#333" transform="translate(8 23)">
                <tspan>Kunstmuseum Basel</tspan>
            </text>
        </g>
        <g class="highcharts-legend-item highcharts-scatter-series highcharts-color-undefined highcharts-series-3">
            <path fill="none" d="M208 34h16" class="highcharts-graph"/>
            <path d="M216 30l4 8h-8z" class="highcharts-point"/>
            <text x="21" y="15" color="#333" font-weight="400" cursor="pointer" fill="#333" transform="translate(208 23)">
                <tspan>Museum der Kulturen</tspan>
            </text>
        </g>
        <g class="highcharts-legend-item highcharts-scatter-series highcharts-color-undefined highcharts-series-4">
            <path fill="none" d="M8 54h16" class="highcharts-graph"/>
            <path fill="#8a8a8a" d="M12 50h8l-4 8z" class="highcharts-point"/>
            <text x="21" y="15" color="#333" font-weight="400" cursor="pointer" fill="#333" transform="translate(8 43)">
                <tspan>Museum Tinguely</tspan>
            </text>
        </g>
        <g class="highcharts-legend-item highcharts-scatter-series highcharts-color-undefined highcharts-series-5">
            <path fill="none" d="M208 54h16" class="highcharts-graph"/>
            <path fill="#933f8d" d="M216 50c5.328 0 5.328 8 0 8s-5.328-8 0-8z" class="highcharts-point"/>
            <text x="21" y="15" color="#333" font-weight="400" cursor="pointer" fill="#333" transform="translate(208 43)">
                <tspan>Naturhistorisches Museum</tspan>
            </text>
        </g>
        <g class="highcharts-legend-item highcharts-scatter-series highcharts-color-undefined highcharts-series-6">
            <path fill="none" d="M8 74h16" class="highcharts-graph"/>
            <path fill="#ff8028" d="M16 70l4 4-4 4-4-4z" class="highcharts-point"/>
            <text x="21" y="15" color="#333" font-weight="400" cursor="pointer" fill="#333" transform="translate(8 63)">
                <tspan>Spielzeug Welten Museum</tspan>
            </text>
        </g>
    </g>
    <g class="highcharts-axis-labels highcharts-xaxis-labels" text-anchor="end" color="#000" cursor="default" font-size="11">
        <text x="38" style="width:150px" y="160" text-overflow="ellipsis">
            <tspan>2006</tspan>
        </text>
        <text x="38" style="width:150px" y="175" text-overflow="ellipsis">
            <tspan>2007</tspan>
        </text>
        <text x="38" style="width:150px" y="190" text-overflow="ellipsis">
            <tspan>2008</tspan>
        </text>
        <text x="38" style="width:150px" y="205" text-overflow="ellipsis">
            <tspan>2009</tspan>
        </text>
        <text x="38" style="width:150px" y="220" text-overflow="ellipsis">
            <tspan>2010</tspan>
        </text>
        <text x="38" style="width:150px" y="236" text-overflow="ellipsis">
            <tspan>2011</tspan>
        </text>
        <text x="38" style="width:150px" y="251" text-overflow="ellipsis">
            <tspan>2012</tspan>
        </text>
        <text x="38" style="width:150px" y="266" text-overflow="ellipsis">
            <tspan>2013</tspan>
        </text>
        <text x="38" style="width:150px" y="281" text-overflow="ellipsis">
            <tspan>2014</tspan>
        </text>
        <text x="38" style="width:150px" y="296" text-overflow="ellipsis">
            <tspan>2015</tspan>
        </text>
    </g>
    <g class="highcharts-axis-labels highcharts-yaxis-labels" text-anchor="end" color="#000" cursor="default" font-size="11">
        <text x="55.593" style="width:415px" transform="rotate(-45 55.593 316)" y="316" text-overflow="ellipsis">
            <tspan>0%</tspan>
        </text>
        <text x="115.878" style="width:415px" transform="rotate(-45 115.878 316)" y="316" text-overflow="ellipsis">
            <tspan>10 000 000%</tspan>
        </text>
        <text x="176.164" style="width:415px" transform="rotate(-45 176.164 316)" y="316" text-overflow="ellipsis">
            <tspan>20 000 000%</tspan>
        </text>
        <text x="236.45" style="width:415px" transform="rotate(-45 236.45 316)" y="316" text-overflow="ellipsis">
            <tspan>30 000 000%</tspan>
        </text>
        <text x="296.736" style="width:415px" transform="rotate(-45 296.736 316)" y="316" text-overflow="ellipsis">
            <tspan>40 000 000%</tspan>
        </text>
        <text x="357.021" style="width:415px" transform="rotate(-45 357.021 316)" y="316" text-overflow="ellipsis">
            <tspan>50 000 000%</tspan>
        </text>
        <text x="417.307" style="width:415px" transform="rotate(-45 417.307 316)" y="316" text-overflow="ellipsis">
            <tspan>60 000 000%</tspan>
        </text>
        <text x="477.593" style="width:415px" transform="rotate(-45 477.593 316)" y="316" text-overflow="ellipsis">
            <tspan>70 000 000%</tspan>
        </text>
    </g>
    <text x="10" class="highcharts-credits" y="400" cursor="default" color="#000" font-size="10">
        <tspan>Quelle: Präsidialdepartement des Kantons Basel-Stadt, Abteilung Kultur</tspan>
    </text>
</svg>
