<svg class="highcharts-root" xmlns="http://www.w3.org/2000/svg" viewBox="0 0 485 415" font-family="Arial" font-size="12">
    <defs>
        <clipPath id="a">
            <path fill="none" d="M0 0h419v250H0z"/>
        </clipPath>
    </defs>
    <rect fill="#fbfbfb" class="highcharts-background" width="485" height="415" rx="0" ry="0"/>
    <path fill="none" class="highcharts-plot-background" d="M56 113h419v250H56z"/>
    <g class="highcharts-grid highcharts-xaxis-grid">
        <path fill="none" class="highcharts-grid-line" d="M139.5 113v250m84-250v250m83-250v250m84-250v250m84-250v250m-419-250v250"/>
    </g>
    <g class="highcharts-grid highcharts-yaxis-grid">
        <path fill="none" stroke="#e6e6e6" class="highcharts-grid-line" d="M56 363.5h419m-419-62h419m-419-63h419m-419-62h419m-419-64h419"/>
    </g>
    <path fill="none" class="highcharts-plot-border" d="M56 113h419v250H56z"/>
    <g class="highcharts-axis highcharts-xaxis">
        <path fill="none" class="highcharts-tick" stroke="#FFF" d="M139.5 363v10m84-10v10m83-10v10m84-10v10m84-10v10m-419-10v10"/>
        <path fill="none" class="highcharts-axis-line" stroke="#ccd6eb" d="M56 363.5h419"/>
    </g>
    <g class="highcharts-axis highcharts-yaxis">
        <path fill="none" class="highcharts-axis-line" d="M56 113v250"/>
    </g>
    <g class="highcharts-series-group">
        <g class="highcharts-series highcharts-series-0 highcharts-column-series highcharts-color-undefined highcharts-tracker" transform="translate(56 113)" clip-path="url(#a)">
            <path fill="#cd9c00" class="highcharts-point" stroke="#fff" d="M17.5 48.5h9v202h-9zm84-5h9v207h-9zm83 5h9v202h-9zm84-16h9v218h-9zm84 5h9v213h-9z"/>
        </g>
        <g class="highcharts-series highcharts-series-1 highcharts-column-series highcharts-color-undefined highcharts-tracker" transform="translate(56 113)" clip-path="url(#a)">
            <path fill="#9f7c5a" class="highcharts-point" stroke="#fff" d="M27.5 50.5h9v200h-9zm84-28h9v228h-9zm83 10h9v218h-9zm84-5h9v223h-9zm84-6h9v229h-9z"/>
        </g>
        <g class="highcharts-series highcharts-series-2 highcharts-column-series highcharts-color-undefined highcharts-tracker" transform="translate(56 113)" clip-path="url(#a)">
            <path fill="#b00000" class="highcharts-point" stroke="#fff" d="M37.5 75.5h9v175h-9zm84-34h9v209h-9zm83 13h9v196h-9zm84-12h9v208h-9zm84-2h9v210h-9z"/>
        </g>
        <g class="highcharts-series highcharts-series-3 highcharts-column-series highcharts-color-undefined highcharts-tracker" transform="translate(56 113)" clip-path="url(#a)">
            <path fill="#45381d" class="highcharts-point" stroke="#fff" d="M47.5 57.5h9v193h-9zm84-8h9v201h-9zm84 12h9v189h-9zm83-15h9v204h-9zm84-2h9v206h-9z"/>
        </g>
        <g class="highcharts-series highcharts-series-4 highcharts-column-series highcharts-color-undefined highcharts-tracker" transform="translate(56 113)" clip-path="url(#a)">
            <path fill="#71a3b5" class="highcharts-point" stroke="#fff" d="M57.5 57.5h9v193h-9zm84-8h9v201h-9zm84-4h9v205h-9zm83-12h9v217h-9zm84 7h9v210h-9z"/>
        </g>
    </g>
    <text x="10" class="highcharts-title" style="width:421px" y="21" color="#000" font-size="14" font-weight="700">
        <tspan>LP.1.06.1 Positive Beurteilung der kantonalen</tspan><tspan dy="17" x="10">Verwaltung nach Heimat, Alter und Geschlecht</tspan><title>LP.1.06.1 Positive Beurteilung der kantonalen Verwaltung nach Heimat, Alter und Geschlecht</title>
    </text>
    <text x="10" class="highcharts-subtitle" style="width:421px" y="59" color="#000" font-weight="400">
        <tspan>«Denken Sie einmal an den letzten Kontakt, den Sie mit der</tspan><tspan dy="15" x="10">kantonalen Verwaltung gehabt haben. Wie ist dieser Kontakt</tspan><tspan dy="15" x="10">verlaufen?»</tspan><title>«Denken Sie einmal an den letzten Kontakt, den Sie mit der kantonalen Verwaltung gehabt haben. Wie ist dieser Kontakt verlaufen?»</title>
    </text>
    <g class="highcharts-legend" transform="translate(10 75)">
        <rect fill="none" class="highcharts-legend-box" rx="0" ry="0" width="440" height="26"/>
        <g class="highcharts-legend-item highcharts-column-series highcharts-color-undefined highcharts-series-0">
            <text x="21" y="15" color="#333" font-weight="400" cursor="pointer" fill="#333" transform="translate(8 3)">
                Schweiz
            </text>
            <path fill="#cd9c00" class="highcharts-point" d="M10 7h12v12H10z"/>
        </g>
        <g class="highcharts-legend-item highcharts-column-series highcharts-color-undefined highcharts-series-1">
            <text x="21" y="15" color="#333" font-weight="400" cursor="pointer" fill="#333" transform="translate(99.156 3)">
                Ausland
            </text>
            <path fill="#9f7c5a" class="highcharts-point" d="M101.156 7h12v12h-12z"/>
        </g>
        <g class="highcharts-legend-item highcharts-column-series highcharts-color-undefined highcharts-series-2">
            <text x="21" y="15" color="#333" font-weight="400" cursor="pointer" fill="#333" transform="translate(189.047 3)">
                <tspan>18-29 J.</tspan>
            </text>
            <path fill="#b00000" class="highcharts-point" d="M191.047 7h12v12h-12z"/>
        </g>
        <g class="highcharts-legend-item highcharts-column-series highcharts-color-undefined highcharts-series-3">
            <text x="21" y="15" color="#333" font-weight="400" cursor="pointer" fill="#333" transform="translate(277.016 3)">
                <tspan>30-39 J.</tspan>
            </text>
            <path fill="#45381d" class="highcharts-point" d="M279.016 7h12v12h-12z"/>
        </g>
        <g class="highcharts-legend-item highcharts-column-series highcharts-color-undefined highcharts-series-4">
            <text x="21" y="15" color="#333" font-weight="400" cursor="pointer" fill="#333" transform="translate(364.984 3)">
                <tspan>40-49 J.</tspan>
            </text>
            <path fill="#71a3b5" class="highcharts-point" d="M366.984 7h12v12h-12z"/>
        </g>
    </g>
    <g class="highcharts-axis-labels highcharts-xaxis-labels" text-anchor="middle" color="#000" cursor="default" font-size="11">
        <text x="97.9" style="width:74px" y="382">
            <tspan>2003</tspan>
        </text>
        <text x="181.7" style="width:74px" y="382">
            <tspan>2005</tspan>
        </text>
        <text x="265.5" style="width:74px" y="382">
            <tspan>2007</tspan>
        </text>
        <text x="349.3" style="width:74px" y="382">
            <tspan>2011</tspan>
        </text>
        <text x="433.1" style="width:74px" y="382">
            <tspan>2015</tspan>
        </text>
    </g>
    <g class="highcharts-axis-labels highcharts-yaxis-labels" text-anchor="end" color="#000" cursor="default" font-size="11">
        <text x="41" style="width:150px" y="367">
            <tspan>0%</tspan>
        </text>
        <text x="41" style="width:150px" y="305">
            <tspan>25%</tspan>
        </text>
        <text x="41" style="width:150px" y="242">
            <tspan>50%</tspan>
        </text>
        <text x="41" style="width:150px" y="180">
            <tspan>75%</tspan>
        </text>
        <text x="41" style="width:150px" y="117">
            <tspan>100%</tspan>
        </text>
    </g>
    <text x="10" class="highcharts-credits" y="400" cursor="default" color="#000" font-size="10">
        <tspan>Quelle: Statistisches Amt Basel-Stadt, kantonale Bevölkerungsbefragung: F19a</tspan>
    </text>
</svg>
