<svg class="highcharts-root" xmlns="http://www.w3.org/2000/svg" viewBox="0 0 485 415" font-family="Arial" font-size="12">
    <defs>
        <clipPath id="a">
            <path fill="none" d="M0 0h419v222H0z"/>
        </clipPath>
    </defs>
    <rect fill="#fbfbfb" class="highcharts-background" width="485" height="415" rx="0" ry="0"/>
    <path fill="none" class="highcharts-plot-background" d="M56 113h419v222H56z"/>
    <g class="highcharts-grid highcharts-xaxis-grid">
        <path fill="none" class="highcharts-grid-line" d="M93.5 113v222m38-222v222m38-222v222m38-222v222m38-222v222m39-222v222m38-222v222m38-222v222m38-222v222m38-222v222m38-222v222m-419-222v222"/>
    </g>
    <g class="highcharts-grid highcharts-yaxis-grid">
        <path fill="none" stroke="#e6e6e6" class="highcharts-grid-line" d="M56 335.5h419m-419-55h419m-419-56h419m-419-56h419m-419-55h419"/>
    </g>
    <path fill="none" class="highcharts-plot-border" d="M56 113h419v222H56z"/>
    <g class="highcharts-axis highcharts-xaxis">
        <path fill="none" class="highcharts-tick" stroke="#FFF" d="M93.5 335v10m38-10v10m38-10v10m38-10v10m38-10v10m39-10v10m38-10v10m38-10v10m38-10v10m38-10v10m38-10v10m-419-10v10"/>
        <path fill="none" class="highcharts-axis-line" stroke="#ccd6eb" d="M56 335.5h419"/>
    </g>
    <g class="highcharts-axis highcharts-yaxis">
        <path fill="none" class="highcharts-axis-line" d="M56 113v222"/>
    </g>
    <g class="highcharts-series-group">
        <g class="highcharts-series highcharts-series-0 highcharts-column-series highcharts-color-undefined highcharts-tracker" transform="translate(56 113)" clip-path="url(#a)">
            <path fill="#cd9c00" class="highcharts-point" stroke="#fff" d="M7.5 42.5h4v180h-4zm38 2h4v178h-4zm38 22h4v156h-4zm38-15h4v171h-4zm38 0h4v171h-4zm39-18h4v189h-4zm38-1h4v190h-4zm38-5h4v195h-4zm38 19h4v176h-4zm38-7h4v183h-4zm38 4h4v179h-4z"/>
        </g>
        <g class="highcharts-series highcharts-series-1 highcharts-column-series highcharts-color-undefined highcharts-tracker" transform="translate(56 113)" clip-path="url(#a)">
            <path fill="#9f7c5a" class="highcharts-point" stroke="#fff" d="M12.5 38.5h4v184h-4zm38-19h4v203h-4zm38 18h4v185h-4zm38 6h4v179h-4zm38 1h4v178h-4zm38-9h4v187h-4zm38-9h4v196h-4zm38-2h4v198h-4zm38 11h4v187h-4zm38 0h4v187h-4zm39 0h4v187h-4z"/>
        </g>
        <g class="highcharts-series highcharts-series-2 highcharts-column-series highcharts-color-undefined highcharts-tracker" transform="translate(56 113)" clip-path="url(#a)">
            <path fill="#b00000" class="highcharts-point" stroke="#fff" d="M16.5 43.5h4v179h-4zm38-15h4v194h-4zm38 20h4v174h-4zm38 6h4v168h-4zm39-14h4v182h-4zm38 3h4v179h-4zm38-12h4v191h-4zm38 4h4v187h-4zm38 3h4v184h-4zm38 6h4v178h-4zm38-3h4v181h-4z"/>
        </g>
        <g class="highcharts-series highcharts-series-3 highcharts-column-series highcharts-color-undefined highcharts-tracker" transform="translate(56 113)" clip-path="url(#a)">
            <path fill="#45381d" class="highcharts-point" stroke="#fff" d="M21.5 28.5h4v194h-4zm38-4h4v198h-4zm38 13h4v185h-4zm38 4h4v181h-4zm38-12h4v193h-4zm38-2h4v195h-4zm38-1h4v196h-4zm38-10h4v206h-4zm39 12h4v194h-4zm38 0h4v194h-4zm38 0h4v194h-4z"/>
        </g>
        <g class="highcharts-series highcharts-series-4 highcharts-column-series highcharts-color-undefined highcharts-tracker" transform="translate(56 113)" clip-path="url(#a)">
            <path fill="#71a3b5" class="highcharts-point" stroke="#fff" d="M25.5 33.5h4v189h-4zm38-14h4v203h-4zm39 17h4v186h-4zm38 3h4v183h-4zm38-4h4v187h-4zm38-2h4v189h-4zm38 2h4v187h-4zm38-14h4v201h-4zm38 10h4v191h-4zm38 0h4v191h-4zm38 0h4v191h-4z"/>
        </g>
    </g>
    <text x="10" class="highcharts-title" style="width:421px" y="21" color="#000" font-size="14" font-weight="700">
        <tspan>LP.1.06.1 Positive Beurteilung der kantonalen</tspan><tspan dy="17" x="10">Verwaltung nach Heimat, Alter und Geschlecht</tspan><title>LP.1.06.1 Positive Beurteilung der kantonalen Verwaltung nach Heimat, Alter und Geschlecht</title>
    </text>
    <text x="10" class="highcharts-subtitle" style="width:421px" y="59" color="#000" font-weight="400">
        <tspan>«Denken Sie einmal an den letzten Kontakt, den Sie mit der</tspan><tspan dy="15" x="10">kantonalen Verwaltung gehabt haben. Wie ist dieser Kontakt</tspan><tspan dy="15" x="10">verlaufen?»</tspan><title>«Denken Sie einmal an den letzten Kontakt, den Sie mit der kantonalen Verwaltung gehabt haben. Wie ist dieser Kontakt verlaufen?»</title>
    </text>
    <g class="highcharts-legend" transform="translate(10 75)">
        <rect fill="none" class="highcharts-legend-box" rx="0" ry="0" width="353" height="26"/>
        <g class="highcharts-legend-item highcharts-column-series highcharts-color-undefined highcharts-series-0">
            <text x="21" y="15" color="#333" font-weight="400" cursor="pointer" fill="#333" transform="translate(8 3)">
                2003
            </text>
            <path fill="#cd9c00" class="highcharts-point" d="M10 7h12v12H10z"/>
        </g>
        <g class="highcharts-legend-item highcharts-column-series highcharts-color-undefined highcharts-series-1">
            <text x="21" y="15" color="#333" font-weight="400" cursor="pointer" fill="#333" transform="translate(79.5 3)">
                2005
            </text>
            <path fill="#9f7c5a" class="highcharts-point" d="M81.5 7h12v12h-12z"/>
        </g>
        <g class="highcharts-legend-item highcharts-column-series highcharts-color-undefined highcharts-series-2">
            <text x="21" y="15" color="#333" font-weight="400" cursor="pointer" fill="#333" transform="translate(151 3)">
                2007
            </text>
            <path fill="#b00000" class="highcharts-point" d="M153 7h12v12h-12z"/>
        </g>
        <g class="highcharts-legend-item highcharts-column-series highcharts-color-undefined highcharts-series-3">
            <text x="21" y="15" color="#333" font-weight="400" cursor="pointer" fill="#333" transform="translate(222.5 3)">
                2011
            </text>
            <path fill="#45381d" class="highcharts-point" d="M224.5 7h12v12h-12z"/>
        </g>
        <g class="highcharts-legend-item highcharts-column-series highcharts-color-undefined highcharts-series-4">
            <text x="21" y="15" color="#333" font-weight="400" cursor="pointer" fill="#333" transform="translate(294 3)">
                2015
            </text>
            <path fill="#71a3b5" class="highcharts-point" d="M296 7h12v12h-12z"/>
        </g>
    </g>
    <g class="highcharts-axis-labels highcharts-xaxis-labels" text-anchor="end" color="#000" cursor="default" font-size="11">
        <text x="77.638" style="width:415px" transform="rotate(-45 77.638 351)" y="351" text-overflow="ellipsis">
            <tspan>Schweiz</tspan>
        </text>
        <text x="115.729" style="width:415px" transform="rotate(-45 115.73 351)" y="351" text-overflow="ellipsis">
            <tspan>Ausland</tspan>
        </text>
        <text x="153.82" style="width:415px" transform="rotate(-45 153.82 351)" y="351" text-overflow="ellipsis">
            <tspan>18-29 J.</tspan>
        </text>
        <text x="191.911" style="width:415px" transform="rotate(-45 191.91 351)" y="351" text-overflow="ellipsis">
            <tspan>30-39 J.</tspan>
        </text>
        <text x="230.002" style="width:415px" transform="rotate(-45 230.002 351)" y="351" text-overflow="ellipsis">
            <tspan>40-49 J.</tspan>
        </text>
        <text x="268.093" style="width:415px" transform="rotate(-45 268.093 351)" y="351" text-overflow="ellipsis">
            <tspan>50-59 J.</tspan>
        </text>
        <text x="306.184" style="width:415px" transform="rotate(-45 306.184 351)" y="351" text-overflow="ellipsis">
            <tspan>60-69 J.</tspan>
        </text>
        <text x="344.275" style="width:415px" transform="rotate(-45 344.275 351)" y="351" text-overflow="ellipsis">
            <tspan>&gt;69 J</tspan>
        </text>
        <text x="382.365" style="width:415px" transform="rotate(-45 382.365 351)" y="351" text-overflow="ellipsis">
            <tspan>Männer</tspan>
        </text>
        <text x="420.456" style="width:415px" transform="rotate(-45 420.456 351)" y="351" text-overflow="ellipsis">
            <tspan>Frauen</tspan>
        </text>
        <text x="458.547" style="width:415px" transform="rotate(-45 458.547 351)" y="351" text-overflow="ellipsis">
            <tspan>Total</tspan>
        </text>
    </g>
    <g class="highcharts-axis-labels highcharts-yaxis-labels" text-anchor="end" color="#000" cursor="default" font-size="11">
        <text x="41" style="width:150px" y="339">
            <tspan>0%</tspan>
        </text>
        <text x="41" style="width:150px" y="284">
            <tspan>25%</tspan>
        </text>
        <text x="41" style="width:150px" y="228">
            <tspan>50%</tspan>
        </text>
        <text x="41" style="width:150px" y="172">
            <tspan>75%</tspan>
        </text>
        <text x="41" style="width:150px" y="117">
            <tspan>100%</tspan>
        </text>
    </g>
    <text x="10" class="highcharts-credits" y="400" cursor="default" color="#000" font-size="10">
        <tspan>Quelle: Statistisches Amt Basel-Stadt, kantonale Bevölkerungsbefragung: F19a</tspan>
    </text>
</svg>
