<svg class="highcharts-root" xmlns="http://www.w3.org/2000/svg" viewBox="0 0 485 415" font-family="Arial" font-size="12">
    <defs>
        <clipPath id="a">
            <path fill="none" d="M0 0h429v305H0z"/>
        </clipPath>
    </defs>
    <rect fill="#fbfbfb" class="highcharts-background" width="485" height="415" rx="0" ry="0"/>
    <path fill="none" class="highcharts-plot-background" d="M46 43h429v305H46z"/>
    <g class="highcharts-grid highcharts-xaxis-grid">
        <path fill="none" class="highcharts-grid-line" d="M49.5 43v305m47-305v305m47-305v305m46-305v305m47-305v305m47-305v305m47-305v305m46-305v305m47-305v305m47-305v305"/>
    </g>
    <g class="highcharts-grid highcharts-yaxis-grid">
        <path fill="none" stroke="#e6e6e6" class="highcharts-grid-line" d="M46 348.5h429m-429-61h429m-429-61h429m-429-61h429m-429-61h429m-429-62h429"/>
    </g>
    <path fill="none" class="highcharts-plot-border" d="M46 43h429v305H46z"/>
    <g class="highcharts-axis highcharts-xaxis">
        <path fill="none" class="highcharts-axis-line" stroke="#ccd6eb" d="M46 348.5h429"/>
    </g>
    <g class="highcharts-axis highcharts-yaxis">
        <path fill="none" class="highcharts-axis-line" d="M46 43v305"/>
    </g>
    <g class="highcharts-series-group">
        <g class="highcharts-series highcharts-series-0 highcharts-line-series highcharts-color-undefined" transform="translate(46 43)" clip-path="url(#a)">
            <path fill="none" d="M4.206 195.31l46.732 1.227 46.732 3.85 46.732-9.31 46.732 5.167 46.732 8.189 46.732-1.938 46.732 3.193 46.732-1.223 46.732 4.233" class="highcharts-graph" stroke="#8b2223" stroke-width="2" stroke-linejoin="round" stroke-linecap="round"/>
            <path fill="none" d="M-5.794 195.31h10l46.732 1.227 46.732 3.85 46.732-9.31 46.732 5.167 46.732 8.189 46.732-1.938 46.732 3.193 46.732-1.223 46.732 4.233h10" stroke-linejoin="round" stroke="rgba(192,192,192,0.0001)" stroke-width="22" class="highcharts-tracker"/>
        </g>
        <g class="highcharts-markers highcharts-series-0 highcharts-line-series highcharts-color-undefined highcharts-tracker">
            <path fill="#8b2223" d="M470 248c5.328 0 5.328 8 0 8s-5.328-8 0-8z" class="highcharts-point"/>
            <path fill="#8b2223" d="M470 248c5.328 0 5.328 8 0 8s-5.328-8 0-8zm-46-5c5.328 0 5.328 8 0 8s-5.328-8 0-8z" class="highcharts-point"/>
            <path fill="#8b2223" d="M424 243c5.328 0 5.328 8 0 8s-5.328-8 0-8zm-47 2c5.328 0 5.328 8 0 8s-5.328-8 0-8z" class="highcharts-point"/>
            <path fill="#8b2223" d="M377 245c5.328 0 5.328 8 0 8s-5.328-8 0-8zm-47-4c5.328 0 5.328 8 0 8s-5.328-8 0-8z" class="highcharts-point"/>
            <path fill="#8b2223" d="M330 241c5.328 0 5.328 8 0 8s-5.328-8 0-8zm-47 2c5.328 0 5.328 8 0 8s-5.328-8 0-8z" class="highcharts-point"/>
            <path fill="#8b2223" d="M283 243c5.328 0 5.328 8 0 8s-5.328-8 0-8zm-46-8c5.328 0 5.328 8 0 8s-5.328-8 0-8zm-47-5c5.328 0 5.328 8 0 8s-5.328-8 0-8zm-47 9c5.328 0 5.328 8 0 8s-5.328-8 0-8zm-47-3c5.328 0 5.328 8 0 8s-5.328-8 0-8zm-46-2c5.328 0 5.328 8 0 8s-5.328-8 0-8z" class="highcharts-point"/>
        </g>
    </g>
    <text x="10" class="highcharts-title" style="width:421px" y="21" color="#000" font-size="14" font-weight="700">
        <tspan>LP.8.34.7 Siedlungsabfälle pro Kopf in Kilogramm</tspan>
    </text>
    <g class="highcharts-data-labels highcharts-series-0 highcharts-line-series highcharts-color-undefined">
        <text x="5" style="text-outline:1px contrast" y="16" font-size="11" font-weight="700" color="#000" transform="translate(41 204)" class="highcharts-label highcharts-data-label highcharts-data-label-color-undefined">
            <tspan x="5" y="16" class="highcharts-text-outline" fill="#FFF" stroke="#FFF" stroke-width="2" stroke-linejoin="round">179.818859143504</tspan><tspan x="5" y="16">179.818859143504</tspan>
        </text>
        <text x="5" style="text-outline:1px contrast" y="16" font-size="11" font-weight="700" color="#000" transform="translate(351 218)" class="highcharts-label highcharts-data-label highcharts-data-label-color-undefined">
            <tspan x="5" y="16" class="highcharts-text-outline" fill="#FFF" stroke="#FFF" stroke-width="2" stroke-linejoin="round">157.872558365956</tspan><tspan x="5" y="16">157.872558365956</tspan>
        </text>
        <text x="5" style="text-outline:1px contrast" y="16" font-size="11" font-weight="700" color="#000" transform="translate(351 218)" class="highcharts-label highcharts-data-label highcharts-data-label-color-undefined">
            <tspan x="5" y="16" class="highcharts-text-outline" fill="#FFF" stroke="#FFF" stroke-width="2" stroke-linejoin="round">157.872558365956</tspan><tspan x="5" y="16">157.872558365956</tspan>
        </text>
    </g>
    <g class="highcharts-axis-labels highcharts-xaxis-labels" text-anchor="middle" color="#000" cursor="default" font-size="11">
        <text x="50.206" y="367">
            2006
        </text>
        <text x="96.938" y="367">
            2007
        </text>
        <text x="143.67" y="367">
            2008
        </text>
        <text x="190.402" y="367">
            2009
        </text>
        <text x="237.134" y="367">
            2010
        </text>
        <text x="283.866" y="367">
            2011
        </text>
        <text x="330.598" y="367">
            2012
        </text>
        <text x="377.33" y="367">
            2013
        </text>
        <text x="424.062" y="367">
            2014
        </text>
        <text x="461.031" y="367">
            2015
        </text>
    </g>
    <g class="highcharts-axis-labels highcharts-yaxis-labels" text-anchor="end" color="#000" cursor="default" font-size="11">
        <text x="31" style="width:150px" y="352">
            <tspan>0</tspan>
        </text>
        <text x="31" style="width:150px" y="291">
            <tspan>100</tspan>
        </text>
        <text x="31" style="width:150px" y="230">
            <tspan>200</tspan>
        </text>
        <text x="31" style="width:150px" y="169">
            <tspan>300</tspan>
        </text>
        <text x="31" style="width:150px" y="108">
            <tspan>400</tspan>
        </text>
        <text x="31" style="width:150px" y="47">
            <tspan>500</tspan>
        </text>
    </g>
    <text x="10" class="highcharts-credits" y="400" cursor="default" color="#000" font-size="10">
        <tspan>Quelle: Amt für Umwelt und Energie Basel-Stadt</tspan>
    </text>
</svg>
