<svg class="highcharts-root" xmlns="http://www.w3.org/2000/svg" viewBox="0 0 485 415" font-family="Arial" font-size="12">
    <defs>
        <clipPath id="a">
            <path fill="none" d="M0 0h419v220H0z"/>
        </clipPath>
    </defs>
    <rect fill="#fbfbfb" class="highcharts-background" width="485" height="415" rx="0" ry="0"/>
    <path fill="none" class="highcharts-plot-background" d="M56 128h419v220H56z"/>
    <g class="highcharts-grid highcharts-xaxis-grid">
        <path fill="none" class="highcharts-grid-line" d="M139.5 128v220m84-220v220m83-220v220m84-220v220m84-220v220m-419-220v220"/>
    </g>
    <g class="highcharts-grid highcharts-yaxis-grid">
        <path fill="none" stroke="#e6e6e6" class="highcharts-grid-line" d="M56 348.5h419m-419-55h419m-419-55h419m-419-55h419m-419-55h419"/>
    </g>
    <path fill="none" class="highcharts-plot-border" d="M56 128h419v220H56z"/>
    <g class="highcharts-axis highcharts-xaxis">
        <path fill="none" class="highcharts-axis-line" stroke="#ccd6eb" d="M56 348.5h419"/>
    </g>
    <g class="highcharts-axis highcharts-yaxis">
        <path fill="none" class="highcharts-axis-line" d="M56 128v220"/>
    </g>
    <g class="highcharts-series-group">
        <g class="highcharts-series highcharts-series-0 highcharts-column-series highcharts-color-undefined highcharts-tracker" transform="translate(56 128)" clip-path="url(#a)">
            <path fill="#e7cfe2" class="highcharts-point" stroke="#fff" d="M17.5 40.5h9v180h-9zm84 0h9v180h-9zm83-16h9v196h-9zm84 32h9v164h-9zm84-34h9v198h-9z"/>
        </g>
        <g class="highcharts-series highcharts-series-1 highcharts-column-series highcharts-color-undefined highcharts-tracker" transform="translate(56 128)" clip-path="url(#a)">
            <path fill="#b475ab" class="highcharts-point" stroke="#fff" d="M27.5 29.5h9v191h-9zm84-4h9v195h-9zm83 3h9v192h-9zm84-9h9v201h-9zm84 1h9v200h-9z"/>
        </g>
        <g class="highcharts-series highcharts-series-2 highcharts-column-series highcharts-color-undefined highcharts-tracker" transform="translate(56 128)" clip-path="url(#a)">
            <path fill="#672773" class="highcharts-point" stroke="#fff" d="M37.5 39.5h9v181h-9zm84-7h9v188h-9zm83-2h9v190h-9zm84-3h9v193h-9zm84-9h9v202h-9z"/>
        </g>
        <g class="highcharts-series highcharts-series-3 highcharts-column-series highcharts-color-undefined highcharts-tracker" transform="translate(56 128)" clip-path="url(#a)">
            <path fill="#2f1435" class="highcharts-point" stroke="#fff" d="M47.5 45.5h9v175h-9zm84 16h9v159h-9zm84-14h9v173h-9zm83-16h9v189h-9zm84-1h9v190h-9z"/>
        </g>
        <g class="highcharts-series highcharts-series-4 highcharts-column-series highcharts-color-undefined highcharts-tracker" transform="translate(56 128)" clip-path="url(#a)">
            <path fill="#403152" class="highcharts-point" stroke="#fff" d="M57.5 16.5h9v204h-9zm84 23h9v181h-9zm84-19h9v200h-9zm83-5h9v205h-9zm84 2h9v203h-9z"/>
        </g>
    </g>
    <text x="10" class="highcharts-title" style="width:421px" y="21" color="#000" font-size="14" font-weight="700">
        <tspan>LP.5.16.2c Anteil Befragte, die mit verschiedenen</tspan><tspan dy="17" x="10">Aspekten sehr oder eher zufrieden sind nach</tspan><tspan dy="17" x="10">Wohngegend</tspan><title>LP.5.16.2c Anteil Befragte, die mit verschiedenen Aspekten sehr oder eher zufrieden sind nach Wohngegend</title>
    </text>
    <text x="10" class="highcharts-subtitle" style="width:421px" y="76" color="#000" font-weight="400">
        <tspan>«Wie zufrieden sind Sie mit dem Quartierleben»</tspan>
    </text>
    <g class="highcharts-legend" transform="translate(10 75)">
        <rect fill="none" class="highcharts-legend-box" rx="0" ry="0" width="378" height="41"/>
        <g class="highcharts-legend-item highcharts-column-series highcharts-color-undefined highcharts-series-0">
            <text x="21" y="15" color="#333" font-weight="400" cursor="pointer" fill="#333" transform="translate(8 3)">
                Innenstadt
            </text>
            <path fill="#e7cfe2" class="highcharts-point" d="M10 7h12v12H10z"/>
        </g>
        <g class="highcharts-legend-item highcharts-column-series highcharts-color-undefined highcharts-series-1">
            <text x="21" y="15" color="#333" font-weight="400" cursor="pointer" fill="#333" transform="translate(114.578 3)">
                <tspan>Am Ring</tspan>
            </text>
            <path fill="#b475ab" class="highcharts-point" d="M116.578 7h12v12h-12z"/>
        </g>
        <g class="highcharts-legend-item highcharts-column-series highcharts-color-undefined highcharts-series-2">
            <text x="21" y="15" color="#333" font-weight="400" cursor="pointer" fill="#333" transform="translate(207.672 3)">
                <tspan>St Alban</tspan>
            </text>
            <path fill="#672773" class="highcharts-point" d="M209.672 7h12v12h-12z"/>
        </g>
        <g class="highcharts-legend-item highcharts-column-series highcharts-color-undefined highcharts-series-3">
            <text x="21" y="15" color="#333" font-weight="400" cursor="pointer" fill="#333" transform="translate(300.531 3)">
                Unteres
            </text>
            <path fill="#2f1435" class="highcharts-point" d="M302.531 7h12v12h-12z"/>
        </g>
        <g class="highcharts-legend-item highcharts-column-series highcharts-color-undefined highcharts-series-4">
            <text x="21" y="15" color="#333" font-weight="400" cursor="pointer" fill="#333" transform="translate(8 18)">
                Oberes
            </text>
            <path fill="#403152" class="highcharts-point" d="M10 22h12v12H10z"/>
        </g>
    </g>
    <g class="highcharts-axis-labels highcharts-xaxis-labels" text-anchor="middle" color="#000" cursor="default" font-size="11">
        <text x="97.9" style="width:74px" y="367">
            <tspan>2003</tspan>
        </text>
        <text x="181.7" style="width:74px" y="367">
            <tspan>2005</tspan>
        </text>
        <text x="265.5" style="width:74px" y="367">
            <tspan>2007</tspan>
        </text>
        <text x="349.3" style="width:74px" y="367">
            <tspan>2011</tspan>
        </text>
        <text x="433.1" style="width:74px" y="367">
            <tspan>2015</tspan>
        </text>
    </g>
    <g class="highcharts-axis-labels highcharts-yaxis-labels" text-anchor="end" color="#000" cursor="default" font-size="11">
        <text x="41" style="width:150px" y="352">
            <tspan>0%</tspan>
        </text>
        <text x="41" style="width:150px" y="297">
            <tspan>25%</tspan>
        </text>
        <text x="41" style="width:150px" y="242">
            <tspan>50%</tspan>
        </text>
        <text x="41" style="width:150px" y="187">
            <tspan>75%</tspan>
        </text>
        <text x="41" style="width:150px" y="132">
            <tspan>100%</tspan>
        </text>
    </g>
    <text x="10" class="highcharts-credits" y="400" cursor="default" color="#000" font-size="10">
        <tspan>Quelle: Statistisches Amt Basel-Stadt, kantonale Bevölkerungsbefragung: F6_7</tspan>
    </text>
</svg>
