<svg class="highcharts-root" xmlns="http://www.w3.org/2000/svg" viewBox="0 0 485 415" font-family="Arial" font-size="12">
    <defs>
        <clipPath id="a">
            <path fill="none" d="M0 0h419v250H0z"/>
        </clipPath>
    </defs>
    <rect fill="#fbfbfb" class="highcharts-background" width="485" height="415" rx="0" ry="0"/>
    <path fill="none" class="highcharts-plot-background" d="M56 113h419v250H56z"/>
    <g class="highcharts-grid highcharts-xaxis-grid">
        <path fill="none" class="highcharts-grid-line" d="M139.5 113v250m84-250v250m83-250v250m84-250v250m84-250v250m-419-250v250"/>
    </g>
    <g class="highcharts-grid highcharts-yaxis-grid">
        <path fill="none" stroke="#e6e6e6" class="highcharts-grid-line" d="M56 363.5h419m-419-62h419m-419-63h419m-419-62h419m-419-64h419"/>
    </g>
    <path fill="none" class="highcharts-plot-border" d="M56 113h419v250H56z"/>
    <g class="highcharts-axis highcharts-xaxis">
        <path fill="none" class="highcharts-tick" stroke="#FFF" d="M139.5 363v10m84-10v10m83-10v10m84-10v10m84-10v10m-419-10v10"/>
        <path fill="none" class="highcharts-axis-line" stroke="#ccd6eb" d="M56 363.5h419"/>
    </g>
    <g class="highcharts-axis highcharts-yaxis">
        <path fill="none" class="highcharts-axis-line" d="M56 113v250"/>
    </g>
    <g class="highcharts-series-group">
        <g class="highcharts-series highcharts-series-0 highcharts-column-series highcharts-color-undefined highcharts-tracker" transform="translate(56 113)" clip-path="url(#a)">
            <path fill="#cd9c00" class="highcharts-point" stroke="#fff" d="M17.5 33.5h9v217h-9zm84-4h9v221h-9zm83 4h9v217h-9zm84-4h9v221h-9zm84 4h9v217h-9z"/>
        </g>
        <g class="highcharts-series highcharts-series-1 highcharts-column-series highcharts-color-undefined highcharts-tracker" transform="translate(56 113)" clip-path="url(#a)">
            <path fill="#9f7c5a" class="highcharts-point" stroke="#fff" d="M27.5 39.5h9v211h-9zm84-15h9v226h-9zm83 10h9v216h-9zm84 2h9v214h-9zm84 2h9v212h-9z"/>
        </g>
        <g class="highcharts-series highcharts-series-2 highcharts-column-series highcharts-color-undefined highcharts-tracker" transform="translate(56 113)" clip-path="url(#a)">
            <path fill="#b00000" class="highcharts-point" stroke="#fff" d="M37.5 24.5h9v226h-9zm84-7h9v233h-9zm83 2h9v231h-9zm84-2h9v233h-9zm84-7h9v240h-9z"/>
        </g>
        <g class="highcharts-series highcharts-series-3 highcharts-column-series highcharts-color-undefined highcharts-tracker" transform="translate(56 113)" clip-path="url(#a)">
            <path fill="#ff5050" class="highcharts-point" stroke="#fff" d="M47.5 26.5h9v224h-9zm84-7h9v231h-9zm84 2h9v229h-9zm83-5h9v234h-9zm84 5h9v229h-9z"/>
        </g>
        <g class="highcharts-series highcharts-series-4 highcharts-column-series highcharts-color-undefined highcharts-tracker" transform="translate(56 113)" clip-path="url(#a)">
            <path fill="#45381d" class="highcharts-point" stroke="#fff" d="M57.5 21.5h9v229h-9zm84 5h9v224h-9zm84 0h9v224h-9zm83-7h9v231h-9zm84 13h9v218h-9z"/>
        </g>
    </g>
    <text x="10" class="highcharts-title" style="width:421px" y="21" color="#000" font-size="14" font-weight="700">
        <tspan>LP.9.40.2 Anteil Befragte, die sich gesundheitlich</tspan><tspan dy="17" x="10">eher oder sehr gut fühlen nach Heimat, Alter und</tspan><tspan dy="17" x="10">Geschlecht</tspan><title>LP.9.40.2 Anteil Befragte, die sich gesundheitlich eher oder sehr gut fühlen nach Heimat, Alter und Geschlecht</title>
    </text>
    <text x="10" class="highcharts-subtitle" style="width:421px" y="76" color="#000" font-weight="400">
        <tspan>«Wie fühlen Sie sich zurzeit gesundheitlich?»</tspan>
    </text>
    <g class="highcharts-legend" transform="translate(10 75)">
        <rect fill="none" class="highcharts-legend-box" rx="0" ry="0" width="429" height="26"/>
        <g class="highcharts-legend-item highcharts-column-series highcharts-color-undefined highcharts-series-0">
            <text x="21" y="15" color="#333" font-weight="400" cursor="pointer" fill="#333" transform="translate(8 3)">
                Schweiz
            </text>
            <path fill="#cd9c00" class="highcharts-point" d="M10 7h12v12H10z"/>
        </g>
        <g class="highcharts-legend-item highcharts-column-series highcharts-color-undefined highcharts-series-1">
            <text x="21" y="15" color="#333" font-weight="400" cursor="pointer" fill="#333" transform="translate(99.156 3)">
                Ausland
            </text>
            <path fill="#9f7c5a" class="highcharts-point" d="M101.156 7h12v12h-12z"/>
        </g>
        <g class="highcharts-legend-item highcharts-column-series highcharts-color-undefined highcharts-series-2">
            <text x="21" y="15" color="#333" font-weight="400" cursor="pointer" fill="#333" transform="translate(189.047 3)">
                <tspan>18-29 J</tspan>
            </text>
            <path fill="#b00000" class="highcharts-point" d="M191.047 7h12v12h-12z"/>
        </g>
        <g class="highcharts-legend-item highcharts-column-series highcharts-color-undefined highcharts-series-3">
            <text x="21" y="15" color="#333" font-weight="400" cursor="pointer" fill="#333" transform="translate(273.203 3)">
                <tspan>30-39 J</tspan>
            </text>
            <path fill="#ff5050" class="highcharts-point" d="M275.203 7h12v12h-12z"/>
        </g>
        <g class="highcharts-legend-item highcharts-column-series highcharts-color-undefined highcharts-series-4">
            <text x="21" y="15" color="#333" font-weight="400" cursor="pointer" fill="#333" transform="translate(357.36 3)">
                <tspan>40-49 J</tspan>
            </text>
            <path fill="#45381d" class="highcharts-point" d="M359.36 7h12v12h-12z"/>
        </g>
    </g>
    <g class="highcharts-axis-labels highcharts-xaxis-labels" text-anchor="middle" color="#000" cursor="default" font-size="11">
        <text x="97.9" style="width:74px" y="382">
            <tspan>2003</tspan>
        </text>
        <text x="181.7" style="width:74px" y="382">
            <tspan>2005</tspan>
        </text>
        <text x="265.5" style="width:74px" y="382">
            <tspan>2007</tspan>
        </text>
        <text x="349.3" style="width:74px" y="382">
            <tspan>2011</tspan>
        </text>
        <text x="433.1" style="width:74px" y="382">
            <tspan>2015</tspan>
        </text>
    </g>
    <g class="highcharts-axis-labels highcharts-yaxis-labels" text-anchor="end" color="#000" cursor="default" font-size="11">
        <text x="41" style="width:150px" y="367">
            <tspan>0%</tspan>
        </text>
        <text x="41" style="width:150px" y="305">
            <tspan>25%</tspan>
        </text>
        <text x="41" style="width:150px" y="242">
            <tspan>50%</tspan>
        </text>
        <text x="41" style="width:150px" y="180">
            <tspan>75%</tspan>
        </text>
        <text x="41" style="width:150px" y="117">
            <tspan>100%</tspan>
        </text>
    </g>
    <text x="10" class="highcharts-credits" y="400" cursor="default" color="#000" font-size="10">
        <tspan>Quelle: Statistisches Amt Basel-Stadt, kantonale Bevölkerungsbefragung: S11</tspan>
    </text>
</svg>
